#N canvas 260 461 640 392 10;
#N canvas 8 49 450 300 _\$0-patch 1;
#X obj 100 150 ./\$1 _________________________________________;
#X obj 100 100 r \$0-toPatch;
#X obj 100 200 s \$0-fromPatch;
#X obj 250 100 adc~ 1 2 3 4;
#X obj 250 200 dac~ 1 2 3 4 5 6 7 8;
#X connect 0 0 2 0;
#X connect 0 1 4 0;
#X connect 0 2 4 1;
#X connect 0 3 4 2;
#X connect 0 4 4 3;
#X connect 0 5 4 4;
#X connect 0 6 4 5;
#X connect 0 7 4 6;
#X connect 0 8 4 7;
#X connect 1 0 0 0;
#X connect 3 0 0 1;
#X connect 3 1 0 2;
#X connect 3 2 0 3;
#X connect 3 3 0 4;
#X restore 110 60 pd _\$0-patch;
#X obj 77 158 s _\$0-toPatch;
#X obj 78 205 r _\$0-fromPatch;
#X obj 78 227 outlet;
#X obj 77 136 inlet;
#X text 383 135 4 inlet~s \, 8 outlet~s;
#N canvas 423 104 816 468 rebuild 0;
#X msg 708 200 clear;
#X obj 81 434 s pd-_\$0-patch;
#X obj 149 43 inlet;
#X text 339 14 0.. patch;
#X text 339 29 1.. r messages;
#X text 339 45 2.. s messages;
#X text 339 61 3.. adc;
#X text 339 78 4.. dac;
#X obj 81 193 swap;
#N canvas 626 452 450 402 inlet~ 0;
#X obj 82 42 inlet num;
#X obj 82 334 outlet create;
#X obj 82 64 t f f;
#X obj 246 137 until;
#X obj 246 159 i;
#X obj 246 181 + 1;
#X obj 246 203 t f f;
#X obj 246 230 list prepend;
#X obj 246 252 t l l;
#X obj 221 284 list;
#X obj 221 116 t b f b;
#X obj 295 134 t b b;
#X msg 295 157 0;
#X obj 82 130 until;
#X obj 82 152 i;
#X obj 82 174 + 1;
#X obj 82 196 t f f;
#X obj 82 107 t f b;
#X msg 128 130 -1;
#X obj 82 218 t f f;
#X obj 82 265 pack;
#X obj 114 240 + 1;
#X obj 221 306 list trim;
#X msg 82 287 connect 3 \$1 0 \$2;
#X msg 327 156 obj 250 100 adc~;
#X connect 0 0 2 0;
#X connect 2 0 17 0;
#X connect 2 1 10 0;
#X connect 3 0 4 0;
#X connect 4 0 5 0;
#X connect 5 0 6 0;
#X connect 6 0 7 0;
#X connect 6 1 4 1;
#X connect 7 0 8 0;
#X connect 8 0 9 1;
#X connect 8 1 7 1;
#X connect 9 0 22 0;
#X connect 10 0 9 0;
#X connect 10 1 3 0;
#X connect 10 2 11 0;
#X connect 11 0 12 0;
#X connect 11 1 24 0;
#X connect 12 0 4 1;
#X connect 13 0 14 0;
#X connect 14 0 15 0;
#X connect 15 0 16 0;
#X connect 16 0 19 0;
#X connect 16 1 14 1;
#X connect 17 0 13 0;
#X connect 17 1 18 0;
#X connect 18 0 14 1;
#X connect 19 0 20 0;
#X connect 19 1 21 0;
#X connect 20 0 23 0;
#X connect 21 0 20 1;
#X connect 22 0 1 0;
#X connect 23 0 1 0;
#X connect 24 0 7 1;
#X restore 106 234 pd inlet~;
#N canvas 626 452 532 402 outlet~ 0;
#X obj 82 42 inlet num;
#X obj 82 334 outlet create;
#X obj 82 64 t f f;
#X obj 246 137 until;
#X obj 246 159 i;
#X obj 246 181 + 1;
#X obj 246 203 t f f;
#X obj 246 230 list prepend;
#X obj 246 252 t l l;
#X obj 221 284 list;
#X obj 221 116 t b f b;
#X obj 296 134 t b b;
#X msg 296 157 0;
#X obj 82 130 until;
#X obj 82 152 i;
#X obj 82 174 + 1;
#X obj 82 196 t f f;
#X obj 82 107 t f b;
#X msg 128 130 -1;
#X obj 82 218 t f f;
#X obj 82 265 pack;
#X obj 114 240 + 1;
#X obj 221 306 list trim;
#X msg 328 156 obj 250 200 dac~;
#X msg 82 287 connect 0 \$2 4 \$1;
#X connect 0 0 2 0;
#X connect 2 0 17 0;
#X connect 2 1 10 0;
#X connect 3 0 4 0;
#X connect 4 0 5 0;
#X connect 5 0 6 0;
#X connect 6 0 7 0;
#X connect 6 1 4 1;
#X connect 7 0 8 0;
#X connect 8 0 9 1;
#X connect 8 1 7 1;
#X connect 9 0 22 0;
#X connect 10 0 9 0;
#X connect 10 1 3 0;
#X connect 10 2 11 0;
#X connect 11 0 12 0;
#X connect 11 1 23 0;
#X connect 12 0 4 1;
#X connect 13 0 14 0;
#X connect 14 0 15 0;
#X connect 15 0 16 0;
#X connect 16 0 19 0;
#X connect 16 1 14 1;
#X connect 17 0 13 0;
#X connect 17 1 18 0;
#X connect 18 0 14 1;
#X connect 19 0 20 0;
#X connect 19 1 21 0;
#X connect 20 0 24 0;
#X connect 21 0 20 1;
#X connect 22 0 1 0;
#X connect 23 0 7 1;
#X connect 24 0 1 0;
#X restore 81 213 pd outlet~;
#X obj 149 65 t l b;
#N canvas 4 77 761 382 core+messages 0;
#X msg 266 131 0;
#X msg 71 131 1;
#X obj 266 155 makefilename $%d-toPatch;
#X obj 71 176 pack s s s;
#X msg 447 131 0;
#X obj 447 155 makefilename $%d-fromPatch;
#X obj 71 155 makefilename ./$%d;
#X msg 71 208 obj 100 150 \$1 _________________________________________
\, obj 100 100 r \$2 \, obj 100 200 s \$3 \, connect 1 0 0 0 \, connect
0 0 2 0;
#X obj 71 256 outlet;
#X obj 71 20 inlet;
#X obj 71 42 t a b;
#X obj 266 81 t b b;
#X obj 71 64 route bang;
#X obj 138 102 symbol;
#X connect 0 0 2 0;
#X connect 1 0 6 0;
#X connect 2 0 3 1;
#X connect 3 0 7 0;
#X connect 4 0 5 0;
#X connect 5 0 3 2;
#X connect 6 0 3 0;
#X connect 7 0 8 0;
#X connect 9 0 10 0;
#X connect 10 0 12 0;
#X connect 10 1 11 0;
#X connect 11 0 0 0;
#X connect 11 1 4 0;
#X connect 12 0 1 0;
#X connect 12 1 13 0;
#X connect 13 0 3 0;
#X restore 218 175 pd core+messages;
#X obj 101 109 list split 2;
#X connect 0 0 1 0;
#X connect 2 0 11 0;
#X connect 8 0 10 0;
#X connect 8 1 9 0;
#X connect 9 0 1 0;
#X connect 10 0 1 0;
#X connect 11 0 13 0;
#X connect 11 1 0 0;
#X connect 12 0 1 0;
#X connect 13 0 8 0;
#X connect 13 1 12 0;
#X restore 303 138 pd rebuild;
#X msg 303 116 4 8 \$1;
#X msg 303 91 symbol test;
#X msg 373 116 4 8;
#X connect 2 0 3 0;
#X connect 4 0 1 0;
#X connect 7 0 6 0;
#X connect 8 0 7 0;
#X connect 9 0 6 0;
