#N canvas 432 288 844 588 10;
#X obj 47 182 _MINT/loader;
#X obj 47 232 packOSC;
#X obj 521 209 unpackOSC;
#X obj 47 129 r \$0-OSCin;
#N canvas 649 202 432 526 OSCinTEST 0;
#X msg 41 55 /control/load/stream L24;
#X msg 121 78 /stream/start localhost 7777;
#X msg 54 154 /control/load/record;
#X msg 157 182 /record/start foo 1234 1234;
#X msg 157 204 /record/stop;
#X obj 41 77 s \$0-OSCin;
#X msg 121 100 /stream/stop;
#X obj 54 177 s \$0-OSCin;
#X obj 64 351 s \$0-OSCin;
#X msg 72 316 /control/load/process 4 2 foobarbaz;
#X obj 50 484 s \$0-OSCin;
#X msg 58 449 /control/load/process;
#X connect 0 0 5 0;
#X connect 1 0 5 0;
#X connect 2 0 7 0;
#X connect 3 0 7 0;
#X connect 4 0 7 0;
#X connect 6 0 5 0;
#X connect 9 0 8 0;
#X connect 11 0 10 0;
#X restore 219 28 pd OSCinTEST;
#N canvas 458 102 614 300 sanitizeOSC 0;
#X obj 74 37 inlet;
#X obj 74 209 route prefix;
#X obj 155 237 outlet;
#X obj 249 42 r \$0-loadedprefix;
#X obj 376 42 r \$0-OSCprefix;
#X obj 249 164 pack s s;
#X msg 148 179 /foo 123;
#X msg 249 212 prefix \$2\$1;
#X obj 249 64 t a b;
#X obj 302 101 symbol;
#X connect 0 0 1 0;
#X connect 1 1 2 0;
#X connect 3 0 8 0;
#X connect 4 0 9 1;
#X connect 5 0 7 0;
#X connect 6 0 2 0;
#X connect 7 0 2 0;
#X connect 8 0 5 0;
#X connect 8 1 9 0;
#X connect 9 0 5 1;
#X restore 47 204 pd sanitizeOSC;
#N canvas 4 49 450 300 parseOSC 0;
#X obj 93 118 routeOSC /load;
#N canvas 312 79 692 502 /load 0;
#X obj 93 122 list prepend 0 0 _MINT/STREAMER;
#X obj 93 75 inlet;
#X obj 93 234 outlet;
#X obj 281 122 list prepend 0 0 _MINT/RECORDER;
#X obj 93 100 routeOSC /stream /record /process;
#X obj 93 144 t l b;
#X obj 281 144 t l b;
#X obj 421 153 t l b;
#X obj 519 269 t a;
#X obj 519 291 outlet;
#X msg 125 164 symbol /stream;
#X msg 313 164 symbol /record;
#X msg 453 174 symbol /process;
#X obj 489 120 print error;
#X connect 0 0 5 0;
#X connect 1 0 4 0;
#X connect 3 0 6 0;
#X connect 4 0 0 0;
#X connect 4 1 3 0;
#X connect 4 2 7 0;
#X connect 4 3 13 0;
#X connect 5 0 2 0;
#X connect 5 1 10 0;
#X connect 6 0 2 0;
#X connect 6 1 11 0;
#X connect 7 0 2 0;
#X connect 7 1 12 0;
#X connect 8 0 9 0;
#X connect 10 0 8 0;
#X connect 11 0 8 0;
#X connect 12 0 8 0;
#X restore 93 138 pd /load;
#X obj 18 98 routeOSC /foo /control;
#X msg 201 55 set \$1 /control;
#X obj 93 250 outlet loaderCTL;
#X obj 18 270 outlet loadedCTL;
#X obj 146 162 s \$0-loadedprefix;
#X obj 201 12 r \$0-loadedprefix;
#X obj 201 34 t s;
#X obj 18 61 inlet OSC;
#X connect 0 0 1 0;
#X connect 1 0 4 0;
#X connect 1 1 6 0;
#X connect 2 0 5 0;
#X connect 2 1 0 0;
#X connect 3 0 2 0;
#X connect 7 0 8 0;
#X connect 8 0 3 0;
#X connect 9 0 2 0;
#X restore 47 156 pd parseOSC;
#N canvas 5 49 450 300 timestamp 0;
#X obj 100 99 bang~;
#X obj 100 121 pcmtimestamp;
#X obj 100 143 s _pcmtimestamp;
#X connect 0 0 1 0;
#X connect 1 0 2 0;
#X restore 348 32 pd timestamp;
#X obj 47 408 unpackOSC;
#X obj 47 430 s \$0-OSCin;
#X obj 47 305 spigot;
#X obj 87 350 t f f;
#X obj 47 327 udpclient;
#X obj 87 372 tgl 15 0 empty empty empty 17 7 0 10 -262144 -1 -1 0
1;
#X obj 211 295 r _MINT_port;
#X obj 211 317 t f;
#X msg 211 339 disconnect \, connect localhost \$1;
#X obj 47 254 s \$0-OSCrawout;
#X obj 47 286 r \$0-OSCrawout;
#X obj 521 189 r \$0-OSCrawout;
#X obj 521 230 spigot;
#X obj 521 251 print OSCout;
#X obj 572 231 tgl 15 0 empty empty empty 17 7 0 10 -262144 -1 -1 0
1;
#N canvas 354 353 450 300 meter 0;
#X obj 112 102 adc~ 1 2 3 4;
#X obj 112 124 env~;
#X obj 152 124 env~;
#X obj 232 124 env~;
#X obj 89 200 s \$0-OSCout;
#X obj 89 156 pack 0 0 0 0 0;
#X obj 192 124 env~;
#X msg 89 178 /meter \$2 \$3 \$4 \$5;
#X obj 89 16 r pd;
#X obj 89 38 route dsp;
#X obj 89 60 metro 100;
#X connect 0 0 1 0;
#X connect 0 1 2 0;
#X connect 0 2 6 0;
#X connect 0 3 3 0;
#X connect 1 0 5 1;
#X connect 2 0 5 2;
#X connect 3 0 5 4;
#X connect 5 0 7 0;
#X connect 6 0 5 3;
#X connect 7 0 4 0;
#X connect 8 0 9 0;
#X connect 9 0 10 0;
#X connect 10 0 5 0;
#X restore 198 125 pd meter;
#N canvas 155 521 541 312 OSCdoc 0;
#X text 9 15 streaming:;
#X text 23 48 /stream/start <host> <port>: start RTP-stream to port
;
#X text 23 68 /stream/stop: stop RTP-stream;
#X text 23 28 /control/load/stream L16: setup an RTP-stream (L16);
#X text 19 100 recording:;
#X text 31 115 /control/load/record: setup a 4-channel recorder;
#X text 34 132 /record/start <basename> <TShi> <TSlo>: start recording
at TS32;
#X text 22 204 processing:;
#X text 39 219 /control/load/process <PATCHNAME>;
#X text 38 165 /record/stop: stop recording;
#X text 43 242 /process/...: control process;
#X restore 98 24 pd OSCdoc;
#N canvas 4 49 450 300 OSCout 0;
#X obj 85 105 r \$0-OSCout;
#X obj 85 127 packOSC;
#X obj 85 149 s \$0-OSCrawout;
#X obj 172 105 r \$0-OSCprefix;
#X msg 172 127 prefix \$1;
#X connect 0 0 1 0;
#X connect 1 0 2 0;
#X connect 3 0 4 0;
#X connect 4 0 1 0;
#X restore 47 99 pd OSCout;
#X connect 0 0 5 0;
#X connect 1 0 17 0;
#X connect 2 0 20 0;
#X connect 3 0 6 0;
#X connect 5 0 1 0;
#X connect 6 0 0 0;
#X connect 6 1 0 1;
#X connect 8 0 9 0;
#X connect 10 0 12 0;
#X connect 11 0 13 0;
#X connect 11 1 10 1;
#X connect 12 0 8 0;
#X connect 12 2 11 0;
#X connect 14 0 15 0;
#X connect 15 0 16 0;
#X connect 16 0 9 0;
#X connect 18 0 10 0;
#X connect 19 0 2 0;
#X connect 20 0 21 0;
#X connect 22 0 20 1;
