#N canvas 485 484 530 432 10;
#X obj 100 221 audiosettings;
#X msg 100 198 driver jack;
#X obj 100 12 r pd;
#X obj 100 34 route audiostuck;
#X obj 100 56 t b;
#X msg 208 207 bang;
#X obj 100 243 route device;
#X obj 100 265 route driver;
#X obj 100 160 symbol jack;
#X obj 100 287 symbol;
#X obj 100 309 t s s;
#X obj 100 331 print AUDIOAPI;
#N canvas 4 49 450 436 speelimit 0;
#X obj 127 210 t f b;
#X obj 109 235 i;
#X msg 95 210 1;
#X msg 127 188 0;
#X obj 109 258 select 1;
#X obj 58 136 t b b;
#X obj 127 114 delay 1000;
#X obj 127 136 t b b;
#X msg 90 157 0;
#X obj 90 181 t f;
#X msg 159 157 1;
#X obj 58 114 spigot 1;
#X obj 58 92 t b b b;
#X obj 58 296 t b;
#X obj 58 62 inlet;
#X obj 58 318 outlet;
#X connect 0 0 1 1;
#X connect 0 1 1 0;
#X connect 1 0 4 0;
#X connect 2 0 1 1;
#X connect 3 0 0 0;
#X connect 4 0 13 0;
#X connect 5 0 13 0;
#X connect 5 1 8 0;
#X connect 6 0 7 0;
#X connect 7 0 3 0;
#X connect 7 1 10 0;
#X connect 8 0 9 0;
#X connect 9 0 11 1;
#X connect 10 0 9 0;
#X connect 11 0 5 0;
#X connect 12 0 11 0;
#X connect 12 1 2 0;
#X connect 12 2 6 0;
#X connect 13 0 15 0;
#X connect 14 0 12 0;
#X restore 100 106 pd speelimit;
#X connect 0 0 6 0;
#X connect 1 0 0 0;
#X connect 2 0 3 0;
#X connect 3 0 4 0;
#X connect 4 0 12 0;
#X connect 5 0 0 0;
#X connect 6 0 7 0;
#X connect 7 0 9 0;
#X connect 8 0 1 0;
#X connect 9 0 10 0;
#X connect 10 0 11 0;
#X connect 10 1 8 1;
#X connect 12 0 8 0;
