#N canvas 248 256 450 300 10;
#X obj 112 58 r _config;
#X obj 112 80 print config;
#X obj 244 89 loadbang;
#X msg 244 133 \; pd quit;
#X obj 244 111 delay 5000;
#X connect 0 0 1 0;
#X connect 2 0 4 0;
#X connect 4 0 3 0;
