#N canvas 509 566 450 300 10;
#X obj 112 58 r _config;
#X obj 112 80 print config;
#X obj 244 89 loadbang;
#X msg 244 133 \; pd quit;
#X obj 244 111 delay 5000;
#X msg 89 140 bang;
#X obj 89 160 print;
#X obj 134 160 + 1;
#X obj 134 180 t f f;
#X msg 134 140 bang;
#X connect 0 0 1 0;
#X connect 2 0 4 0;
#X connect 4 0 3 0;
#X connect 5 0 6 0;
#X connect 7 0 8 0;
#X connect 8 0 6 0;
#X connect 8 1 7 1;
#X connect 9 0 7 0;
