#N canvas 237 463 660 452 10;
#X text 39 26 stream-receiver (HG-side);
#N canvas 610 50 666 559 OSCinTEST 0;
#X msg 236 264 /stream/fo1/protocol rtp \, /stream/fo1/profile L16
\, /stream/fo1/transport/protocol udp;
#X obj 70 322 s \$0-OSCin;
#X msg 46 53 /stream/protocol rtp \, /stream/profile L16 \, /stream/transport/port
46069;
#X msg 92 176 /create porsche;
#X msg 57 123 /stream/protocol rtsp \, /stream/profile L20 \, /create
foo;
#X connect 0 0 1 0;
#X connect 2 0 1 0;
#X connect 3 0 1 0;
#X connect 4 0 1 0;
#X restore 229 26 pd OSCinTEST;
#X obj 27 108 r \$0-OSCin;
#X obj 168 203 packOSC;
#X obj 101 225 s \$0-OSCrawout;
#X obj 101 273 _WILMA/pdserver_client \$0 udp;
#N canvas 9 50 450 300 dummyreceivers 0;
#X obj 123 83 r _WILMA_pwd;
#X obj 122 60 r _WILMA_port;
#X floatatom 223 62 5 0 0 0 - - -;
#X symbolatom 220 85 0 0 0 0 - - -;
#X obj 123 105 symbol;
#X connect 0 0 4 0;
#X connect 1 0 2 0;
#X connect 4 0 3 0;
#X restore 398 238 pd dummyreceivers;
#N canvas 195 186 677 309 OSCdoc 0;
#X text 45 100 /*/stream/transport/protocol;
#X text 45 120 /*/stream/transport/port;
#X text 45 140 /*/stream/protocol;
#X text 45 160 /*/stream/profile;
#X text 23 81 streaming (per SMi);
#X text 393 81 streaming (HG defaults);
#X text 415 100 /stream/transport/protocol;
#X text 415 120 /stream/transport/port;
#X text 415 140 /stream/protocol;
#X text 415 160 /stream/profile;
#X text 23 11 general;
#X text 40 25 /create ...;
#X text 33 187 backchannel;
#X text 45 205 /*/stream/uri (stream-target if applicable \; sender
should RESTART stream to this URI);
#X restore 100 52 pd OSCdoc;
#N canvas 6 49 450 300 init 0;
#X obj 126 77 loadbang;
#X obj 126 99 delay 1000;
#X msg 235 139 \; pd dsp 1;
#X obj 126 121 t b b;
#X msg 158 195 /ping;
#X obj 158 217 packOSC;
#X obj 158 239 s \$0-OSCrawout;
#X obj 126 143 t b b;
#X obj 126 165 outlet done;
#X connect 0 0 1 0;
#X connect 1 0 3 0;
#X connect 3 0 7 0;
#X connect 3 1 2 0;
#X connect 4 0 5 0;
#X connect 5 0 6 0;
#X connect 7 0 8 0;
#X connect 7 1 4 0;
#X restore 101 250 pd init;
#X msg 458 28 bang;
#X obj 458 50 print _WILMAmix;
#X obj 101 183 route list;
#N canvas 640 172 450 300 debug 1;
#X obj 151 142 r \$0-OSCrawout;
#X obj 151 164 spigot;
#X obj 151 186 unpackOSC;
#X obj 151 208 print OSCout;
#X obj 203 165 tgl 15 0 empty empty empty 17 7 0 10 -262144 -1 -1 0
1;
#X obj 276 141 r \$0-OSCin;
#X obj 276 163 spigot;
#X obj 276 215 print OSCin;
#X obj 328 164 tgl 15 0 empty empty empty 17 7 0 10 -262144 -1 -1 0
1;
#X obj 276 185 route /ping;
#X connect 0 0 1 0;
#X connect 1 0 2 0;
#X connect 2 0 3 0;
#X connect 4 0 1 1;
#X connect 5 0 6 0;
#X connect 6 0 9 0;
#X connect 8 0 6 1;
#X connect 9 1 7 0;
#X restore 397 169 pd debug;
#X obj 27 130 route /ping;
#X obj 27 152 s \$0-ping;
#X obj 101 161 _WILMA/STREAMRECVR \$0;
#X connect 2 0 13 0;
#X connect 3 0 4 0;
#X connect 8 0 5 0;
#X connect 9 0 10 0;
#X connect 11 0 4 0;
#X connect 11 1 3 0;
#X connect 13 0 14 0;
#X connect 13 1 15 0;
#X connect 15 0 11 0;
