#N canvas 103 537 648 375 10;
#X text 39 26 stream-receiver (HG-side);
#X obj 101 161 _WILMA/STREAMRECVR;
#N canvas 8 49 666 559 OSCinTEST 0;
#X msg 92 176 /stream/create /fo1 /bar /baz;
#X msg 237 204 /stream/protocol rtp \, /stream/profile L16;
#X msg 57 123 /stream/protocol rtsp \, /stream/profile L20 \, /stream/create
/foo;
#X msg 236 264 /stream/fo1/protocol rtp \, /stream/fo1/profile L16
\, /stream/fo1/transport/protocol udp;
#X obj 70 322 s \$0-OSCin;
#X msg 238 359 /stream/create /porsche;
#X connect 0 0 4 0;
#X connect 1 0 4 0;
#X connect 2 0 4 0;
#X connect 3 0 4 0;
#X connect 5 0 4 0;
#X restore 229 26 pd OSCinTEST;
#X obj 101 138 r \$0-OSCin;
#X obj 101 183 packOSC;
#X obj 101 205 s \$0-OSCrawout;
#X obj 101 233 _WILMA/pdserver_client \$0 udp;
#X obj 391 142 r \$0-OSCrawout;
#X obj 391 164 spigot;
#X obj 391 186 unpackOSC;
#X obj 391 208 print OSCout;
#X obj 443 165 tgl 15 0 empty empty empty 17 7 0 10 -262144 -1 -1 0
1;
#X obj 516 141 r \$0-OSCin;
#X obj 516 163 spigot;
#X obj 516 185 print OSCin;
#X obj 568 164 tgl 15 0 empty empty empty 17 7 0 10 -262144 -1 -1 0
1;
#N canvas 8 49 450 300 dummyreceivers 0;
#X obj 123 83 r _WILMA_pwd;
#X obj 122 60 r _WILMA_port;
#X floatatom 223 62 5 0 0 0 - - -;
#X symbolatom 220 85 0 0 0 0 - - -;
#X obj 123 105 symbol;
#X connect 0 0 4 0;
#X connect 1 0 2 0;
#X connect 4 0 3 0;
#X restore 398 238 pd dummyreceivers;
#N canvas 195 186 677 309 OSCdoc 0;
#X text 45 100 /*/stream/transport/protocol;
#X text 45 120 /*/stream/transport/port;
#X text 45 140 /*/stream/protocol;
#X text 45 160 /*/stream/profile;
#X text 23 81 streaming (per SMi);
#X text 393 81 streaming (HG defaults);
#X text 415 100 /stream/transport/protocol;
#X text 415 120 /stream/transport/port;
#X text 415 140 /stream/protocol;
#X text 415 160 /stream/profile;
#X text 23 11 general;
#X text 40 25 /create ...;
#X text 33 187 backchannel;
#X text 45 205 /*/stream/uri (stream-target if applicable \; sender
should RESTART stream to this URI);
#X restore 100 52 pd OSCdoc;
#X connect 1 0 4 0;
#X connect 3 0 1 0;
#X connect 4 0 5 0;
#X connect 7 0 8 0;
#X connect 8 0 9 0;
#X connect 9 0 10 0;
#X connect 11 0 8 1;
#X connect 12 0 13 0;
#X connect 13 0 14 0;
#X connect 15 0 13 1;
