#N canvas 210 400 610 317 10;
#X obj 47 182 _WILMA/loader;
#X obj 47 232 packOSC;
#X obj 47 129 r \$0-OSCin;
#N canvas 813 170 432 526 OSCinTEST 0;
#X msg 54 154 /control/load/record;
#X msg 157 182 /record/start foo 1234 1234;
#X msg 157 204 /record/stop;
#X obj 41 77 s \$0-OSCin;
#X msg 121 120 /stream/stop;
#X obj 54 177 s \$0-OSCin;
#X obj 64 351 s \$0-OSCin;
#X obj 50 484 s \$0-OSCin;
#X msg 58 449 /control/load/process;
#X msg 121 78 /stream/destination localhost 17777;
#X msg 121 100 /stream/start;
#X msg 72 316 /control/load/process 4 1 MAIN;
#X msg 157 349 /process/start;
#X msg 159 376 /process/stop;
#X msg 38 51 /control/load/stream;
#X msg 40 19 /stream/transport/protocol tcp;
#X msg 211 49 /stream/protocol rtp \, /stream/profile L16;
#X connect 0 0 5 0;
#X connect 1 0 5 0;
#X connect 2 0 5 0;
#X connect 4 0 3 0;
#X connect 8 0 7 0;
#X connect 9 0 3 0;
#X connect 10 0 3 0;
#X connect 11 0 6 0;
#X connect 12 0 6 0;
#X connect 13 0 6 0;
#X connect 14 0 3 0;
#X connect 15 0 3 0;
#X connect 16 0 3 0;
#X restore 219 28 pd OSCinTEST;
#N canvas 463 82 614 300 sanitizeOSC 0;
#X obj 74 37 inlet;
#X obj 74 209 route prefix;
#X obj 155 237 outlet;
#X obj 249 42 r \$0-loadedprefix;
#X obj 376 42 r \$0-OSCprefix;
#X obj 249 164 pack s s;
#X msg 148 179 /foo 123;
#X msg 249 212 prefix \$2\$1;
#X obj 249 64 t a b;
#X obj 302 101 symbol;
#X connect 0 0 1 0;
#X connect 1 1 2 0;
#X connect 3 0 8 0;
#X connect 4 0 9 1;
#X connect 5 0 7 0;
#X connect 6 0 2 0;
#X connect 7 0 2 0;
#X connect 8 0 5 0;
#X connect 8 1 9 0;
#X connect 9 0 5 1;
#X restore 47 204 pd sanitizeOSC;
#N canvas 109 248 683 380 parseOSC 0;
#X obj 216 188 routeOSC /load;
#N canvas 562 183 692 502 /load 0;
#X obj 155 75 inlet;
#X obj 186 357 outlet;
#X obj 155 100 routeOSC /stream /record /process;
#X obj 13 174 t l b;
#X obj 231 176 t l b;
#X obj 477 152 t l b;
#X obj 519 291 outlet;
#X obj 481 100 print error;
#X obj 274 52 r _WILMA_pwd;
#X obj 186 276 t l;
#X obj 186 298 list append .;
#X obj 186 323 t l;
#X obj 13 152 list prepend 4 4 _WILMA/nop4~;
#X obj 231 152 list prepend 4 0 _WILMA/SMiRECORD;
#X obj 519 269 symbol;
#X msg 519 152 /process;
#X msg 273 176 /record;
#X msg 55 174 /stream;
#X symbolatom 567 270 10 0 0 0 - - -, f 10;
#X connect 0 0 2 0;
#X connect 2 0 12 0;
#X connect 2 1 13 0;
#X connect 2 2 5 0;
#X connect 2 3 7 0;
#X connect 3 0 9 0;
#X connect 3 1 17 0;
#X connect 4 0 9 0;
#X connect 4 1 16 0;
#X connect 5 0 9 0;
#X connect 5 1 15 0;
#X connect 8 0 10 1;
#X connect 9 0 10 0;
#X connect 10 0 11 0;
#X connect 11 0 1 0;
#X connect 12 0 3 0;
#X connect 13 0 4 0;
#X connect 14 0 6 0;
#X connect 14 0 18 0;
#X connect 15 0 14 0;
#X connect 16 0 14 0;
#X connect 17 0 14 0;
#X restore 216 208 pd /load;
#X obj 216 320 outlet loaderCTL;
#X obj 141 340 outlet loadedCTL;
#X obj 269 232 s \$0-loadedprefix;
#X obj 201 12 r \$0-loadedprefix;
#X obj 201 34 t s;
#X obj 18 11 inlet OSC;
#X msg 201 55 set \$1 /control /stream;
#X obj 141 168 routeOSC /foo /control /stream;
#X obj 460 345 outlet streamCtl;
#X obj 18 83 route /start /stop;
#X obj 18 252 t a a;
#X obj 18 105 t b;
#X obj 79 105 t b;
#X msg 18 197 /start;
#X msg 79 197 /stop;
#X obj 18 219 t a;
#X obj 18 33 route /ping;
#X obj 18 55 s \$0-ping;
#X msg 18 127 1;
#X msg 79 127 0;
#X obj 18 171 select 1 0;
#X obj 18 149 t f f;
#X obj 60 149 s \$0-state;
#X connect 0 0 1 0;
#X connect 1 0 2 0;
#X connect 1 1 4 0;
#X connect 5 0 6 0;
#X connect 6 0 8 0;
#X connect 7 0 18 0;
#X connect 8 0 9 0;
#X connect 9 0 3 0;
#X connect 9 1 0 0;
#X connect 9 2 10 0;
#X connect 11 0 13 0;
#X connect 11 1 14 0;
#X connect 11 2 9 0;
#X connect 12 0 3 0;
#X connect 12 1 10 0;
#X connect 13 0 20 0;
#X connect 14 0 21 0;
#X connect 15 0 17 0;
#X connect 16 0 17 0;
#X connect 17 0 12 0;
#X connect 18 0 19 0;
#X connect 18 1 11 0;
#X connect 20 0 23 0;
#X connect 21 0 23 0;
#X connect 22 0 15 0;
#X connect 22 1 16 0;
#X connect 23 0 22 0;
#X connect 23 1 24 0;
#X restore 47 156 pd parseOSC;
#X obj 47 254 s \$0-OSCrawout;
#N canvas 1377 153 892 312 OSCdoc 0;
#X text 9 15 streaming:;
#X text 23 48 /stream/start <host> <port>: start RTP-stream to port
;
#X text 23 68 /stream/stop: stop RTP-stream;
#X text 23 28 /control/load/stream L16: setup an RTP-stream (L16);
#X text 19 100 recording:;
#X text 31 115 /control/load/record: setup a 4-channel recorder;
#X text 34 132 /record/start <basename> <TShi> <TSlo>: start recording
at TS32;
#X text 22 204 processing:;
#X text 39 219 /control/load/process <PATCHNAME>;
#X text 38 165 /record/stop: stop recording;
#X text 43 242 /process/...: control process;
#X text 530 27 /mode: setup for streaming;
#X text 529 43 /stream 1|0: start/stop streaming;
#X text 534 62 /stream/protocol RTP;
#X text 538 78 /stream/profile L16;
#X text 540 94 /stream/channels 4;
#X restore 98 24 pd OSCdoc;
#N canvas 71 412 450 300 OSCout 0;
#X obj 85 105 r \$0-OSCout;
#X obj 85 149 s \$0-OSCrawout;
#X obj 172 105 r \$0-OSCprefix;
#X msg 172 127 prefix \$1;
#X obj 85 127 packOSC;
#X connect 0 0 4 0;
#X connect 2 0 3 0;
#X connect 3 0 4 0;
#X connect 4 0 1 0;
#X restore 47 99 pd OSCout;
#X obj 168 125 _WILMA/meter \$0;
#X obj 303 177 _WILMA/pdserver_client \$0 udp;
#N canvas 670 95 458 387 init 0;
#X obj 58 138 loadbang;
#X msg 158 200 /control/load/stream udp 0 rtp L16 4;
#X obj 158 222 s \$0-OSCin;
#X text 58 82 by default we load the STREAM config;
#X obj 58 160 t b b;
#X obj 58 182 delay 1000;
#X obj 58 204 t b b;
#X msg 90 234 \; pd dsp 1;
#X obj 58 301 outlet initdone;
#X connect 0 0 4 0;
#X connect 1 0 2 0;
#X connect 4 0 5 0;
#X connect 4 1 1 0;
#X connect 5 0 6 0;
#X connect 6 0 8 0;
#X connect 6 1 7 0;
#X restore 303 125 pd init;
#X obj 303 147 del 10;
#N canvas 528 242 710 650 debug 0;
#X obj 209 53 r \$0-OSCrawout;
#X obj 209 115 print OSCout;
#X obj 261 75 tgl 15 0 empty empty empty 17 7 0 10 -262144 -1 -1 0
1;
#X obj 206 151 r \$0-OSCin;
#X obj 415 235 spigot;
#X obj 470 235 tgl 15 0 empty empty empty 17 7 0 10 -262144 -1 -1 0
1;
#X obj 209 73 spigot;
#X obj 209 95 unpackOSC;
#X obj 415 255 print OSCin;
#X obj 238 210 route /ping /stream/destination;
#X obj 238 260 spigot;
#X obj 293 260 tgl 15 0 empty empty empty 17 7 0 10 -262144 -1 -1 0
1;
#X obj 238 280 print streamdest;
#X obj 206 354 s \$0-loglevel;
#X obj 311 239 r \$0-loglevel;
#X obj 521 229 r \$0-loglevel;
#X obj 343 37 r \$0-loglevel;
#X obj 343 59 < 10;
#X obj 521 251 <= 10;
#X obj 311 261 <= 20;
#X obj 206 314 t f f;
#X obj 206 173 route /log/level;
#X msg 314 148 /log/level \$1;
#X msg 314 106 50;
#X floatatom 314 128 5 0 0 0 - - -, f 5;
#X msg 346 106 10;
#X msg 378 106 0;
#X obj 339 351 s __WILMA_loglevel;
#X msg 235 434 50 CRITICAL;
#X msg 235 594 10 DEBUG;
#X msg 235 484 40 ERROR;
#X msg 235 454 50 FATAL;
#X msg 235 564 20 INFO;
#X msg 235 614 0 NOTSET;
#X msg 235 514 30 WARN;
#X msg 235 534 30 WARNING;
#X obj 146 541 t f;
#X connect 0 0 6 0;
#X connect 2 0 6 1;
#X connect 3 0 21 0;
#X connect 4 0 8 0;
#X connect 5 0 4 1;
#X connect 6 0 7 0;
#X connect 7 0 1 0;
#X connect 9 1 10 0;
#X connect 9 2 4 0;
#X connect 10 0 12 0;
#X connect 11 0 10 1;
#X connect 14 0 19 0;
#X connect 15 0 18 0;
#X connect 16 0 17 0;
#X connect 17 0 2 0;
#X connect 18 0 5 0;
#X connect 19 0 11 0;
#X connect 20 0 13 0;
#X connect 20 1 27 0;
#X connect 21 0 20 0;
#X connect 21 1 9 0;
#X connect 22 0 21 0;
#X connect 23 0 24 0;
#X connect 24 0 22 0;
#X connect 25 0 24 0;
#X connect 26 0 24 0;
#X connect 28 0 36 0;
#X connect 29 0 36 0;
#X connect 30 0 36 0;
#X connect 31 0 36 0;
#X connect 32 0 36 0;
#X connect 33 0 36 0;
#X connect 34 0 36 0;
#X connect 35 0 36 0;
#X connect 36 0 20 0;
#X restore 328 255 pd debug;
#X obj 339 27 _WILMA/timestampsend _pcmtimestamp;
#X connect 0 0 4 0;
#X connect 1 0 6 0;
#X connect 2 0 5 0;
#X connect 4 0 1 0;
#X connect 5 0 0 0;
#X connect 5 1 0 1;
#X connect 5 2 0 2;
#X connect 11 0 12 0;
#X connect 12 0 10 0;
