#N canvas 391 306 844 588 10;
#X obj 47 182 _WILMA/loader;
#X obj 47 232 packOSC;
#X obj 521 209 unpackOSC;
#X obj 47 129 r \$0-OSCin;
#N canvas 812 174 432 526 OSCinTEST 0;
#X msg 54 154 /control/load/record;
#X msg 157 182 /record/start foo 1234 1234;
#X msg 157 204 /record/stop;
#X obj 41 77 s \$0-OSCin;
#X msg 121 120 /stream/stop;
#X obj 54 177 s \$0-OSCin;
#X obj 64 351 s \$0-OSCin;
#X obj 50 484 s \$0-OSCin;
#X msg 58 449 /control/load/process;
#X msg 121 78 /stream/destination localhost 17777;
#X msg 121 100 /stream/start;
#X msg 72 316 /control/load/process 4 1 MAIN;
#X msg 157 349 /process/start;
#X msg 159 376 /process/stop;
#X msg 38 51 /control/load/stream;
#X msg 40 19 /stream/transport/protocol tcp;
#X msg 211 49 /stream/protocol rtp \, /stream/profile L16;
#X connect 0 0 5 0;
#X connect 1 0 5 0;
#X connect 2 0 5 0;
#X connect 4 0 3 0;
#X connect 8 0 7 0;
#X connect 9 0 3 0;
#X connect 10 0 3 0;
#X connect 11 0 6 0;
#X connect 12 0 6 0;
#X connect 13 0 6 0;
#X connect 14 0 3 0;
#X connect 15 0 3 0;
#X connect 16 0 3 0;
#X restore 219 28 pd OSCinTEST;
#N canvas 460 94 614 300 sanitizeOSC 0;
#X obj 74 37 inlet;
#X obj 74 209 route prefix;
#X obj 155 237 outlet;
#X obj 249 42 r \$0-loadedprefix;
#X obj 376 42 r \$0-OSCprefix;
#X obj 249 164 pack s s;
#X msg 148 179 /foo 123;
#X msg 249 212 prefix \$2\$1;
#X obj 249 64 t a b;
#X obj 302 101 symbol;
#X connect 0 0 1 0;
#X connect 1 1 2 0;
#X connect 3 0 8 0;
#X connect 4 0 9 1;
#X connect 5 0 7 0;
#X connect 6 0 2 0;
#X connect 7 0 2 0;
#X connect 8 0 5 0;
#X connect 8 1 9 0;
#X connect 9 0 5 1;
#X restore 47 204 pd sanitizeOSC;
#N canvas 1380 456 683 380 parseOSC 0;
#X obj 93 188 routeOSC /load;
#N canvas 558 199 692 502 /load 0;
#X obj 93 75 inlet;
#X obj 266 357 outlet;
#X obj 93 100 routeOSC /stream /record /process;
#X obj 93 144 t l b;
#X obj 281 144 t l b;
#X obj 471 153 t l b;
#X obj 569 269 t a;
#X obj 569 291 outlet;
#X msg 137 144 symbol /stream;
#X msg 363 164 symbol /record;
#X msg 503 174 symbol /process;
#X obj 539 100 print error;
#X obj 354 52 r _WILMA_pwd;
#X obj 266 276 t l;
#X obj 266 298 list append .;
#X obj 266 323 t l;
#X obj 93 122 list prepend 4 4 _WILMA/nop4~;
#X obj 331 122 list prepend 4 0 _WILMA/SMiRECORD;
#X connect 0 0 2 0;
#X connect 2 0 16 0;
#X connect 2 1 17 0;
#X connect 2 2 5 0;
#X connect 2 3 11 0;
#X connect 3 0 13 0;
#X connect 3 1 8 0;
#X connect 4 0 13 0;
#X connect 4 1 9 0;
#X connect 5 0 13 0;
#X connect 5 1 10 0;
#X connect 6 0 7 0;
#X connect 8 0 6 0;
#X connect 9 0 6 0;
#X connect 10 0 6 0;
#X connect 12 0 14 1;
#X connect 13 0 14 0;
#X connect 14 0 15 0;
#X connect 15 0 1 0;
#X connect 16 0 3 0;
#X connect 17 0 4 0;
#X restore 93 208 pd /load;
#X obj 93 320 outlet loaderCTL;
#X obj 18 340 outlet loadedCTL;
#X obj 146 232 s \$0-loadedprefix;
#X obj 201 12 r \$0-loadedprefix;
#X obj 201 34 t s;
#X obj 18 61 inlet OSC;
#X msg 201 55 set \$1 /control /stream;
#X obj 18 168 routeOSC /foo /control /stream;
#X obj 337 345 outlet streamCtl;
#X connect 0 0 1 0;
#X connect 1 0 2 0;
#X connect 1 1 4 0;
#X connect 5 0 6 0;
#X connect 6 0 8 0;
#X connect 7 0 9 0;
#X connect 8 0 9 0;
#X connect 9 0 3 0;
#X connect 9 1 0 0;
#X connect 9 2 10 0;
#X restore 47 156 pd parseOSC;
#N canvas 5 49 450 300 timestamp 0;
#X obj 100 99 bang~;
#X obj 100 121 pcmtimestamp;
#X obj 100 143 s _pcmtimestamp;
#X connect 0 0 1 0;
#X connect 1 0 2 0;
#X restore 348 32 pd timestamp;
#X obj 47 408 unpackOSC;
#X obj 47 430 s \$0-OSCin;
#X obj 47 254 s \$0-OSCrawout;
#X obj 47 286 r \$0-OSCrawout;
#X obj 521 189 r \$0-OSCrawout;
#X obj 521 230 spigot;
#X obj 521 251 print OSCout;
#X obj 572 231 tgl 15 0 empty empty empty 17 7 0 10 -262144 -1 -1 0
1;
#N canvas 1377 153 892 312 OSCdoc 0;
#X text 9 15 streaming:;
#X text 23 48 /stream/start <host> <port>: start RTP-stream to port
;
#X text 23 68 /stream/stop: stop RTP-stream;
#X text 23 28 /control/load/stream L16: setup an RTP-stream (L16);
#X text 19 100 recording:;
#X text 31 115 /control/load/record: setup a 4-channel recorder;
#X text 34 132 /record/start <basename> <TShi> <TSlo>: start recording
at TS32;
#X text 22 204 processing:;
#X text 39 219 /control/load/process <PATCHNAME>;
#X text 38 165 /record/stop: stop recording;
#X text 43 242 /process/...: control process;
#X text 530 27 /mode: setup for streaming;
#X text 529 43 /stream 1|0: start/stop streaming;
#X text 534 62 /stream/protocol RTP;
#X text 538 78 /stream/profile L16;
#X text 540 94 /stream/channels 4;
#X restore 98 24 pd OSCdoc;
#N canvas 69 442 450 300 OSCout 0;
#X obj 85 105 r \$0-OSCout;
#X obj 85 127 packOSC;
#X obj 85 149 s \$0-OSCrawout;
#X obj 172 105 r \$0-OSCprefix;
#X msg 172 127 prefix \$1;
#X connect 0 0 1 0;
#X connect 1 0 2 0;
#X connect 3 0 4 0;
#X connect 4 0 1 0;
#X restore 47 99 pd OSCout;
#N canvas 143 392 517 307 UDPconnection 0;
#X obj 84 48 inlet data;
#X obj 84 249 outlet data;
#X obj 84 115 spigot;
#X obj 84 137 udpclient;
#X obj 124 182 tgl 15 0 empty empty empty 17 7 0 10 -262144 -1 -1 1
1;
#X obj 248 65 r _WILMA_port;
#X msg 248 149 connect localhost \$1;
#X obj 248 87 f;
#X obj 248 109 t f b;
#X obj 402 149 i;
#X obj 402 171 select 1;
#X msg 402 193 disconnect;
#X obj 124 160 t f f f;
#X obj 84 209 t a b;
#X obj 266 36 delay 10000;
#X text 276 18 timeout (incoming message);
#X msg 341 65 bang;
#X floatatom 338 96 5 0 0 0 - - -;
#X obj 248 211 t a b;
#X obj 248 171 t a b;
#X connect 0 0 2 0;
#X connect 2 0 3 0;
#X connect 3 0 13 0;
#X connect 3 2 12 0;
#X connect 5 0 7 0;
#X connect 6 0 19 0;
#X connect 7 0 8 0;
#X connect 7 0 17 0;
#X connect 8 0 6 0;
#X connect 8 1 9 0;
#X connect 9 0 10 0;
#X connect 10 0 11 0;
#X connect 11 0 18 0;
#X connect 12 0 4 0;
#X connect 12 1 2 1;
#X connect 12 2 9 1;
#X connect 13 0 1 0;
#X connect 13 1 14 0;
#X connect 14 0 7 0;
#X connect 16 0 7 0;
#X connect 18 0 3 0;
#X connect 19 0 18 0;
#X connect 19 1 14 0;
#X restore 47 368 pd UDPconnection;
#X obj 636 201 r \$0-OSCin;
#X obj 636 223 spigot;
#X obj 636 243 print OSCin;
#X obj 691 223 tgl 15 0 empty empty empty 17 7 0 10 -262144 -1 -1 0
1;
#X obj 305 125 loadbang;
#X obj 305 147 delay 1000;
#X msg 305 169 \; pd dsp 1;
#X obj 198 125 _WILMA/meter \$0;
#X connect 0 0 5 0;
#X connect 1 0 10 0;
#X connect 2 0 13 0;
#X connect 3 0 6 0;
#X connect 5 0 1 0;
#X connect 6 0 0 0;
#X connect 6 1 0 1;
#X connect 6 2 0 2;
#X connect 8 0 9 0;
#X connect 11 0 18 0;
#X connect 12 0 2 0;
#X connect 13 0 14 0;
#X connect 15 0 13 1;
#X connect 18 0 8 0;
#X connect 19 0 20 0;
#X connect 20 0 21 0;
#X connect 22 0 20 1;
#X connect 23 0 24 0;
#X connect 24 0 25 0;
