#N canvas 568 432 450 300 10;
#X obj 240 108 loadbang;
#X msg 302 108 bang;
#N canvas 431 150 633 411 args 0;
#X obj 211 81 inlet;
#N canvas 264 218 677 297 sanitize 0;
#X obj 122 12 inlet channels;
#X obj 122 34 moses 1;
#X msg 122 56 4;
#X obj 168 56 moses 64;
#X obj 221 76 t b f;
#X obj 253 133 print ERROR@adc2send~;
#X obj 122 78 t f;
#X obj 122 100 outlet;
#X msg 253 109 invalid number of channels \$1...defaulting to 4;
#X connect 0 0 1 0;
#X connect 1 0 2 0;
#X connect 1 1 3 0;
#X connect 2 0 6 0;
#X connect 3 0 6 0;
#X connect 3 1 4 0;
#X connect 4 0 2 0;
#X connect 4 1 8 0;
#X connect 6 0 7 0;
#X connect 8 0 5 0;
#X restore 211 210 pd sanitize;
#X obj 211 189 i \$2;
#X text 271 190 channels;
#X obj 211 326 outlet;
#X obj 297 148 i \$3;
#X obj 211 264 list prepend \$1;
#X text 337 151 offset;
#X obj 211 232 pack;
#X obj 211 103 t b b;
#X connect 0 0 9 0;
#X connect 1 0 8 0;
#X connect 2 0 1 0;
#X connect 5 0 8 1;
#X connect 6 0 4 0;
#X connect 8 0 6 0;
#X connect 9 0 2 0;
#X connect 9 1 5 0;
#X restore 240 131 pd args;
#N canvas 7 70 682 513 create 0;
#X obj 54 24 inlet;
#X text 102 26 1:prefix 2:channels 3:offset;
#X obj 54 441 s \$0-adc2sends;
#X obj 121 298 list prepend \$0;
#X msg 54 96 \$2 \$3 \$1;
#X obj 54 148 list split 2;
#X obj 54 170 unpack;
#X obj 54 118 t a b;
#X obj 54 192 until;
#X obj 54 214 i;
#X obj 54 236 t f f;
#X obj 86 214 + 1;
#X obj 77 279 +;
#X msg 100 192 0;
#X text 65 363 1:y 2:adcnum 3:sendname;
#X obj 54 346 pack 0 0 s;
#X obj 54 257 t f f f;
#X obj 54 303 * 25;
#X obj 54 325 + 50;
#X msg 54 398 obj 100 \$1 adc2send~ \$2 \$3;
#X obj 54 46 t a b;
#X msg 276 386 clear;
#X msg 121 320 symbol \$1:\$2;
#X connect 0 0 20 0;
#X connect 3 0 22 0;
#X connect 4 0 7 0;
#X connect 5 0 6 0;
#X connect 5 1 3 1;
#X connect 6 0 8 0;
#X connect 6 1 12 1;
#X connect 7 0 5 0;
#X connect 7 1 13 0;
#X connect 8 0 9 0;
#X connect 9 0 10 0;
#X connect 10 0 16 0;
#X connect 10 1 11 0;
#X connect 11 0 9 1;
#X connect 12 0 15 1;
#X connect 13 0 9 1;
#X connect 15 0 19 0;
#X connect 16 0 17 0;
#X connect 16 1 12 0;
#X connect 16 2 3 0;
#X connect 17 0 18 0;
#X connect 18 0 15 0;
#X connect 19 0 2 0;
#X connect 20 0 4 0;
#X connect 20 1 21 0;
#X connect 21 0 2 0;
#X connect 22 0 15 2;
#X restore 240 152 pd create;
#X msg 181 145 vis 1;
#X text 57 51 [adc2sends~ 1:<prefix> 2:<channels> 3:<adcoffset>];
#X obj 35 145 sandbox \$0-adc2sends;
#X connect 0 0 2 0;
#X connect 1 0 2 0;
#X connect 2 0 3 0;
#X connect 4 0 6 1;
