#N canvas 163 267 454 341 10;
#X obj 83 30 inlet;
#X obj 83 212 i \$1;
#X obj 83 234 makefilename $%d;
#X obj 83 256 outlet;
#X obj 227 99 list prepend \$2;
#X obj 227 121 route symbol;
#X obj 227 143 symbol;
#X msg 227 165 set \$1;
#X obj 83 52 t a b;
#X connect 0 0 8 0;
#X connect 1 0 2 0;
#X connect 2 0 3 0;
#X connect 4 0 5 0;
#X connect 5 0 6 0;
#X connect 6 0 7 0;
#X connect 7 0 2 0;
#X connect 8 0 1 0;
#X connect 8 1 4 0;
