#N canvas 1711 234 833 392 10;
#X obj 78 227 outlet;
#X obj 77 136 inlet;
#X text 494 134 4 inlet~s \, 8 outlet~s;
#N canvas 254 499 816 468 rebuild 1;
#X msg 595 326 clear;
#X obj 101 43 inlet;
#X msg 153 40 0 0 _STREAMER;
#X obj 101 95 t b l b;
#X obj 468 98 t b;
#X obj 124 118 route bang;
#X obj 451 364 s \$0-input;
#X obj 246 358 s \$0-process;
#N canvas 716 511 438 463 inputs 0;
#X obj 95 57 t f b;
#X obj 95 310 outlet;
#X obj 95 31 inlet;
#X obj 95 79 t f b;
#X obj 95 101 until;
#X obj 95 123 i;
#X obj 95 145 t f f;
#X obj 127 124 + 1;
#X msg 136 99 0;
#X obj 95 167 t f f;
#X obj 95 189 * 20;
#X obj 95 231 pack 0 0;
#X floatatom 46 33 5 0 0 0 - - -;
#X obj 95 211 + 50;
#X obj 96 265 list append \$0-IN;
#X msg 95 288 obj 50 \$1 adc2send~ \$2 \$3:\$2;
#X connect 0 0 3 0;
#X connect 2 0 0 0;
#X connect 3 0 4 0;
#X connect 3 1 8 0;
#X connect 4 0 5 0;
#X connect 5 0 6 0;
#X connect 6 0 9 0;
#X connect 6 1 7 0;
#X connect 7 0 5 1;
#X connect 8 0 5 1;
#X connect 9 0 10 0;
#X connect 9 1 11 1;
#X connect 10 0 13 0;
#X connect 11 0 14 0;
#X connect 12 0 0 0;
#X connect 13 0 11 0;
#X connect 14 0 15 0;
#X connect 15 0 1 0;
#X restore 451 324 pd inputs;
#X obj 191 160 t l l l;
#N canvas 447 605 750 319 process 0;
#X obj 152 96 swap;
#N canvas 233 406 1040 416 inlet~ 0;
#X obj 82 42 inlet num;
#X obj 82 334 outlet create;
#X obj 557 345 outlet offset;
#X obj 82 228 + 100;
#X obj 82 206 * 25;
#X obj 126 228 + 3;
#X text 113 281 1:y 2:ID \, 3:outletnum \, 4:recname;
#X obj 82 250 pack 0 0 0 s;
#X obj 156 228 + 1;
#X obj 82 184 t f f f f;
#X obj 82 113 until;
#X obj 82 135 i;
#X obj 82 159 t f f;
#X msg 125 113 0;
#X obj 82 91 t f b;
#X msg 82 300 obj 350 \$1 r~ \$4 \, connect \$2 0 0 \$3;
#X obj 110 135 + 1;
#X obj 82 64 t f f;
#X obj 557 324 + 3;
#X obj 543 46 inlet offset;
#X obj 543 68 t f f;
#X obj 637 249 t b f;
#X msg 637 271 2;
#X obj 637 295 makefilename $%d-IN:0;
#X msg 697 259 set $$%d-IN:1;
#X floatatom 638 220 5 0 0 0 - - -;
#X symbolatom 637 317 10 0 0 0 - - -;
#X floatatom 716 214 5 0 0 0 - - -;
#X msg 715 234 set set \, adddollsym $%d-IN:1;
#N canvas 4 49 450 300 receivename 0;
#X obj 234 203 pack f s;
#X obj 288 183 symbol $;
#X obj 233 175 t f b;
#X obj 198 247 makefilename;
#X obj 198 144 t b f;
#X msg 198 166 2;
#X msg 234 225 set \$2%d-IN:\$1;
#X obj 196 107 inlet;
#X obj 198 269 outlet;
#X connect 0 0 6 0;
#X connect 1 0 0 1;
#X connect 2 0 0 0;
#X connect 2 1 1 0;
#X connect 3 0 8 0;
#X connect 4 0 5 0;
#X connect 4 1 2 0;
#X connect 5 0 3 0;
#X connect 6 0 3 0;
#X connect 7 0 4 0;
#X restore 194 226 pd receivename;
#X connect 0 0 17 0;
#X connect 3 0 7 0;
#X connect 4 0 3 0;
#X connect 5 0 7 1;
#X connect 7 0 15 0;
#X connect 8 0 7 2;
#X connect 9 0 4 0;
#X connect 9 1 5 0;
#X connect 9 2 8 0;
#X connect 9 3 29 0;
#X connect 10 0 11 0;
#X connect 11 0 12 0;
#X connect 12 0 9 0;
#X connect 12 1 16 0;
#X connect 13 0 11 1;
#X connect 14 0 10 0;
#X connect 14 1 13 0;
#X connect 15 0 1 0;
#X connect 16 0 11 1;
#X connect 17 0 14 0;
#X connect 17 1 18 0;
#X connect 18 0 2 0;
#X connect 19 0 20 0;
#X connect 20 0 5 1;
#X connect 20 1 18 1;
#X connect 21 0 22 0;
#X connect 21 1 24 0;
#X connect 22 0 23 0;
#X connect 23 0 26 0;
#X connect 24 0 23 0;
#X connect 25 0 21 0;
#X connect 27 0 28 0;
#X connect 28 0 24 0;
#X connect 29 0 7 3;
#X restore 177 117 pd inlet~;
#N canvas 169 501 532 402 outlet~ 0;
#X obj 82 42 inlet num;
#X obj 82 334 outlet create;
#X obj 82 64 t f f;
#X obj 313 49 inlet offset;
#X obj 349 334 outlet offset;
#X obj 82 206 * 25;
#X obj 126 228 + 3;
#X obj 82 250 pack 0 0 0 s;
#X obj 156 228 + 1;
#X obj 82 184 t f f f f;
#X obj 82 113 until;
#X obj 82 135 i;
#X obj 82 159 t f f;
#X msg 125 113 0;
#X obj 82 91 t f b;
#X obj 110 135 + 1;
#X text 100 280 1:y 2:ID \, 3:inletnum \, 4:recname;
#X obj 313 71 t f f;
#X obj 349 312 + 3;
#X obj 82 228 + 200;
#X msg 82 300 obj 250 \$1 s~ \$4 \, connect 0 \$3 \$2 0;
#N canvas 5 49 450 300 receivename 0;
#X obj 234 203 pack f s;
#X obj 288 183 symbol $;
#X obj 233 175 t f b;
#X obj 198 247 makefilename;
#X obj 198 144 t b f;
#X msg 198 166 2;
#X obj 196 107 inlet;
#X obj 198 269 outlet;
#X msg 234 225 set \$2%d-OUT:\$1;
#X connect 0 0 8 0;
#X connect 1 0 0 1;
#X connect 2 0 0 0;
#X connect 2 1 1 0;
#X connect 3 0 7 0;
#X connect 4 0 5 0;
#X connect 4 1 2 0;
#X connect 5 0 3 0;
#X connect 6 0 4 0;
#X connect 8 0 3 0;
#X restore 188 229 pd receivename;
#X connect 0 0 2 0;
#X connect 2 0 14 0;
#X connect 2 1 18 0;
#X connect 3 0 17 0;
#X connect 5 0 19 0;
#X connect 6 0 7 1;
#X connect 7 0 20 0;
#X connect 8 0 7 2;
#X connect 9 0 5 0;
#X connect 9 1 6 0;
#X connect 9 2 8 0;
#X connect 9 3 21 0;
#X connect 10 0 11 0;
#X connect 11 0 12 0;
#X connect 12 0 9 0;
#X connect 12 1 15 0;
#X connect 13 0 11 1;
#X connect 14 0 10 0;
#X connect 14 1 13 0;
#X connect 15 0 11 1;
#X connect 17 0 6 1;
#X connect 17 1 18 1;
#X connect 18 0 4 0;
#X connect 19 0 7 0;
#X connect 20 0 1 0;
#X connect 21 0 7 3;
#X restore 152 166 pd outlet~;
#N canvas 111 276 1067 529 core+messages 0;
#X obj 321 233 makefilename $%d-toPatch;
#X obj 502 233 makefilename $%d-fromPatch;
#X obj 353 115 makefilename ./$%d;
#X obj 321 346 outlet;
#X obj 321 20 inlet;
#X obj 321 189 t b b;
#X obj 353 64 route bang;
#X obj 353 141 list prepend obj 100 150;
#X obj 353 163 list trim;
#X obj 321 266 pack s s;
#X msg 321 298 obj 100 100 r \$1 \, obj 100 200 s \$2 \, connect 1
0 0 0 \, connect 0 0 2 0;
#X msg 321 209 2;
#X msg 502 209 2;
#X msg 353 91 3;
#X obj 738 315 outlet offset;
#X obj 321 43 t b a b;
#X msg 738 291 3;
#X connect 0 0 9 0;
#X connect 1 0 9 1;
#X connect 2 0 7 0;
#X connect 4 0 15 0;
#X connect 5 0 11 0;
#X connect 5 1 12 0;
#X connect 6 0 13 0;
#X connect 6 1 7 0;
#X connect 7 0 8 0;
#X connect 8 0 3 0;
#X connect 9 0 10 0;
#X connect 10 0 3 0;
#X connect 11 0 0 0;
#X connect 12 0 1 0;
#X connect 13 0 2 0;
#X connect 15 0 5 0;
#X connect 15 1 6 0;
#X connect 15 2 16 0;
#X connect 16 0 14 0;
#X restore 192 96 pd core+messages;
#X obj 152 76 list split 2;
#X msg 120 207 loadbang;
#X obj 152 226 t a;
#X obj 120 56 t b l;
#X obj 152 248 outlet;
#X obj 120 32 inlet;
#X connect 0 0 2 0;
#X connect 0 1 1 0;
#X connect 1 0 6 0;
#X connect 1 1 2 1;
#X connect 2 0 6 0;
#X connect 3 0 6 0;
#X connect 3 1 1 1;
#X connect 4 0 0 0;
#X connect 4 1 3 0;
#X connect 5 0 6 0;
#X connect 6 0 8 0;
#X connect 7 0 5 0;
#X connect 7 1 4 0;
#X connect 9 0 7 0;
#X restore 246 318 pd process;
#X obj 451 344 t a;
#X obj 151 338 t a;
#N canvas 285 469 976 348 outputs 0;
#X obj 213 305 outlet;
#X obj 95 31 inlet;
#X obj 127 84 list split 1;
#X text 50 9 create an Nchannel streamer;
#X obj 604 51 inlet streamerconfig;
#X obj 213 278 list trim;
#X obj 167 108 t f b;
#X obj 213 256 list prepend obj 50 50 SMiSTREAM;
#X text 365 194 prefix #channels;
#X obj 213 236 list append udp 0 rtp L16;
#X text 438 237 transport transPort protocol profile;
#X obj 167 130 moses 1;
#X obj 213 194 list prepend \$0-OUT-;
#X obj 336 175 dollarsymbol 2 $%d-OUT;
#N canvas 610 137 620 655 streamerconfig 0;
#X obj 61 35 inlet;
#X obj 61 97 route /channels /transport/protocol /transport/port /protocol
/profile;
#X obj 61 132 s \$0-stream:audio:channels;
#X obj 61 154 s \$0-stream:transport:protocol;
#X obj 61 198 s \$0-stream:protocol;
#X obj 61 220 s \$0-stream:profile;
#X obj 54 297 t b b b;
#N canvas 4 49 539 300 transport2 0;
#X obj 45 35 inlet;
#X obj 45 57 t b b;
#X obj 45 79 symbol udp;
#X obj 45 101 pack s 0;
#X obj 45 123 outlet;
#X obj 191 36 r \$0-stream:transport:protocol;
#X obj 191 80 t b s;
#X obj 257 158 outlet activeChange;
#X obj 270 62 r \$0-stream:transport:port;
#X obj 270 106 t b f;
#X obj 270 84 int 0;
#X obj 191 58 symbol udp;
#X connect 0 0 1 0;
#X connect 1 0 2 0;
#X connect 2 0 3 0;
#X connect 3 0 4 0;
#X connect 5 0 11 0;
#X connect 6 0 7 0;
#X connect 6 1 2 1;
#X connect 8 0 10 0;
#X connect 9 0 7 0;
#X connect 9 1 3 1;
#X connect 10 0 9 0;
#X connect 11 0 6 0;
#X restore 54 329 pd transport2;
#N canvas 4 49 450 300 stream2 0;
#X obj 57 26 inlet;
#X obj 57 48 t b b;
#X obj 57 70 symbol rtp;
#X obj 57 92 pack s s;
#X obj 135 69 symbol L16;
#X obj 57 114 outlet;
#X obj 267 200 outlet activeChange;
#X obj 220 76 symbol;
#X obj 220 98 t b s;
#X obj 280 105 symbol;
#X obj 280 127 t b s;
#X obj 280 83 r \$0-stream:profile;
#X obj 220 54 r \$0-stream:protocol;
#X connect 0 0 1 0;
#X connect 1 0 2 0;
#X connect 1 1 4 0;
#X connect 2 0 3 0;
#X connect 3 0 5 0;
#X connect 4 0 3 1;
#X connect 7 0 8 0;
#X connect 8 0 6 0;
#X connect 8 1 2 1;
#X connect 9 0 10 0;
#X connect 10 0 6 0;
#X connect 10 1 4 0;
#X connect 11 0 9 0;
#X connect 12 0 7 0;
#X restore 155 328 pd stream2;
#X obj 54 351 list append;
#X obj 165 371 t b;
#X obj 165 393 del 0;
#X obj 54 383 t l b;
#X obj 54 405 outlet;
#X msg 197 371 stop;
#X obj 61 176 s \$0-stream:transport:port;
#X text 113 37 /stream prefix already stripped;
#X connect 0 0 1 0;
#X connect 1 0 2 0;
#X connect 1 1 3 0;
#X connect 1 2 15 0;
#X connect 1 3 4 0;
#X connect 1 4 5 0;
#X connect 6 1 7 0;
#X connect 6 2 8 0;
#X connect 7 0 9 0;
#X connect 7 1 10 0;
#X connect 8 0 9 1;
#X connect 8 1 10 0;
#X connect 9 0 12 0;
#X connect 10 0 11 0;
#X connect 11 0 6 0;
#X connect 12 0 13 0;
#X connect 12 1 14 0;
#X connect 14 0 11 0;
#X restore 604 73 pd streamerconfig;
#X obj 604 95 print config;
#X obj 730 106 print ouchf;
#X obj 95 53 t b l;
#X msg 95 270 loadbang;
#X connect 1 0 17 0;
#X connect 2 1 6 0;
#X connect 4 0 14 0;
#X connect 4 0 16 0;
#X connect 5 0 0 0;
#X connect 6 0 11 0;
#X connect 6 1 13 0;
#X connect 7 0 5 0;
#X connect 9 0 7 0;
#X connect 11 1 12 0;
#X connect 12 0 9 0;
#X connect 13 0 12 1;
#X connect 14 0 9 1;
#X connect 14 0 15 0;
#X connect 17 0 18 0;
#X connect 17 1 2 0;
#X connect 18 0 0 0;
#X restore 151 318 pd outputs;
#X obj 151 358 s \$0-output;
#X obj 246 338 t a a;
#X obj 619 92 inlet streamerconf;
#X obj 101 65 route reset;
#X connect 0 0 11 0;
#X connect 0 0 12 0;
#X connect 0 0 15 0;
#X connect 1 0 17 0;
#X connect 2 0 3 0;
#X connect 3 1 5 0;
#X connect 3 2 0 0;
#X connect 4 0 0 0;
#X connect 5 1 9 0;
#X connect 8 0 11 0;
#X connect 9 0 13 0;
#X connect 9 1 10 0;
#X connect 9 2 8 0;
#X connect 10 0 15 0;
#X connect 11 0 6 0;
#X connect 12 0 14 0;
#X connect 13 0 12 0;
#X connect 15 0 7 0;
#X connect 16 0 13 1;
#X connect 17 0 4 0;
#X connect 17 1 3 0;
#X restore 275 218 pd rebuild;
#X msg 501 108 4 8 \$1;
#X msg 571 108 4 8;
#X obj 252 53 inlet load;
#X text 336 53 <num.inlet~s> <num.outlet~s> <name>;
#X msg 501 83 symbol test;
#X obj 252 105 t b a b;
#X msg 340 83 0 0 _STREAMER;
#X obj 77 158 s \$0-toPatch;
#X obj 78 205 r \$0-fromPatch;
#X msg 383 272 vis 1;
#X msg 383 292 vis 1;
#X msg 383 312 vis 1;
#X obj 227 272 sandbox \$0-input \$0;
#X obj 227 292 sandbox \$0-process \$0;
#X obj 227 312 sandbox \$0-output \$0;
#X obj 221 151 suspendresumedsp;
#X obj 645 69 inlet streamerconf;
#X obj 645 91 t a a;
#X obj 564 202 s control->stream\$0-OUT;
#X connect 1 0 11 0;
#X connect 6 0 9 0;
#X connect 8 0 4 0;
#X connect 9 0 19 0;
#X connect 9 1 3 0;
#X connect 9 2 19 1;
#X connect 10 0 9 0;
#X connect 12 0 0 0;
#X connect 13 0 16 1;
#X connect 14 0 17 1;
#X connect 15 0 18 1;
#X connect 16 0 17 0;
#X connect 17 0 18 0;
#X connect 20 0 21 0;
#X connect 21 0 3 1;
#X connect 21 1 22 0;
