#N canvas 1395 519 768 392 10;
#X obj 78 227 outlet;
#X obj 77 136 inlet;
#X text 544 104 4 inlet~s \, 8 outlet~s;
#N canvas 199 448 816 468 rebuild 0;
#X msg 730 345 clear;
#X obj 101 43 inlet;
#X msg 153 40 0 0 _STREAMER;
#X obj 101 65 t b l b;
#X obj 468 76 inlet reset;
#X obj 468 98 t b;
#X obj 124 88 route bang;
#X obj 451 364 s \$0-input;
#X obj 246 358 s \$0-process;
#N canvas 1527 296 450 300 inputs 0;
#X msg 95 178 obj 50 50 adc2sends~ \$1 \$2 \, loadbang;
#X obj 95 57 t f b;
#X obj 95 200 outlet;
#X obj 95 31 inlet;
#X obj 95 123 list prepend \$0-IN-;
#X obj 225 104 dollarsymbol 2 $%d-IN;
#X connect 0 0 2 0;
#X connect 1 0 4 0;
#X connect 1 1 5 0;
#X connect 3 0 1 0;
#X connect 4 0 0 0;
#X connect 5 0 4 1;
#X restore 451 324 pd inputs;
#X obj 191 130 t l l l;
#N canvas 108 83 750 319 process 0;
#X obj 152 96 swap;
#N canvas 402 407 874 418 inlet~ 0;
#X obj 82 42 inlet num;
#X obj 82 334 outlet create;
#X obj 557 345 outlet offset;
#X obj 82 228 + 100;
#X obj 82 206 * 25;
#X obj 126 228 + 3;
#X obj 201 204 t b f;
#X msg 201 226 2;
#X text 113 281 1:y 2:ID \, 3:outletnum \, 4:recname;
#X obj 82 250 pack 0 0 0 s;
#X obj 156 228 + 1;
#X obj 82 184 t f f f f;
#X obj 82 113 until;
#X obj 82 135 i;
#X obj 82 159 t f f;
#X msg 125 113 0;
#X obj 82 91 t f b;
#X msg 82 300 obj 350 \$1 r~ \$4 \, connect \$2 0 0 \$3;
#X obj 110 135 + 1;
#X obj 82 64 t f f;
#X obj 557 324 + 3;
#X obj 543 46 inlet offset;
#X obj 543 68 t f f;
#X obj 201 250 makefilename $%d-IN:0;
#X msg 233 226 set $%d-IN:\$1;
#X connect 0 0 19 0;
#X connect 3 0 9 0;
#X connect 4 0 3 0;
#X connect 5 0 9 1;
#X connect 6 0 7 0;
#X connect 6 1 24 0;
#X connect 7 0 23 0;
#X connect 9 0 17 0;
#X connect 10 0 9 2;
#X connect 11 0 4 0;
#X connect 11 1 5 0;
#X connect 11 2 10 0;
#X connect 11 3 6 0;
#X connect 12 0 13 0;
#X connect 13 0 14 0;
#X connect 14 0 11 0;
#X connect 14 1 18 0;
#X connect 15 0 13 1;
#X connect 16 0 12 0;
#X connect 16 1 15 0;
#X connect 17 0 1 0;
#X connect 18 0 13 1;
#X connect 19 0 16 0;
#X connect 19 1 20 0;
#X connect 20 0 2 0;
#X connect 21 0 22 0;
#X connect 22 0 5 1;
#X connect 22 1 20 1;
#X connect 23 0 9 3;
#X connect 24 0 23 0;
#X restore 177 117 pd inlet~;
#N canvas 168 505 532 402 outlet~ 0;
#X obj 82 42 inlet num;
#X obj 82 334 outlet create;
#X obj 82 64 t f f;
#X obj 313 49 inlet offset;
#X obj 349 334 outlet offset;
#X obj 82 206 * 25;
#X obj 126 228 + 3;
#X obj 201 204 t b f;
#X msg 201 226 2;
#X obj 82 250 pack 0 0 0 s;
#X obj 156 228 + 1;
#X obj 82 184 t f f f f;
#X obj 82 113 until;
#X obj 82 135 i;
#X obj 82 159 t f f;
#X msg 125 113 0;
#X obj 82 91 t f b;
#X obj 110 135 + 1;
#X text 100 280 1:y 2:ID \, 3:inletnum \, 4:recname;
#X obj 313 71 t f f;
#X obj 349 312 + 3;
#X obj 82 228 + 200;
#X msg 82 300 obj 250 \$1 s~ \$4 \, connect 0 \$3 \$2 0;
#X msg 235 225 set $%d-OUT:\$1;
#X obj 201 250 makefilename $%d-OUT:0;
#X connect 0 0 2 0;
#X connect 2 0 16 0;
#X connect 2 1 20 0;
#X connect 3 0 19 0;
#X connect 5 0 21 0;
#X connect 6 0 9 1;
#X connect 7 0 8 0;
#X connect 7 1 23 0;
#X connect 8 0 24 0;
#X connect 9 0 22 0;
#X connect 10 0 9 2;
#X connect 11 0 5 0;
#X connect 11 1 6 0;
#X connect 11 2 10 0;
#X connect 11 3 7 0;
#X connect 12 0 13 0;
#X connect 13 0 14 0;
#X connect 14 0 11 0;
#X connect 14 1 17 0;
#X connect 15 0 13 1;
#X connect 16 0 12 0;
#X connect 16 1 15 0;
#X connect 17 0 13 1;
#X connect 19 0 6 1;
#X connect 19 1 20 1;
#X connect 20 0 4 0;
#X connect 21 0 9 0;
#X connect 22 0 1 0;
#X connect 23 0 24 0;
#X connect 24 0 9 3;
#X restore 152 166 pd outlet~;
#N canvas 111 276 1067 529 core+messages 0;
#X obj 321 233 makefilename $%d-toPatch;
#X obj 502 233 makefilename $%d-fromPatch;
#X obj 353 115 makefilename ./$%d;
#X obj 321 346 outlet;
#X obj 321 20 inlet;
#X obj 321 189 t b b;
#X obj 353 64 route bang;
#X obj 353 141 list prepend obj 100 150;
#X obj 353 163 list trim;
#X obj 321 266 pack s s;
#X msg 321 298 obj 100 100 r \$1 \, obj 100 200 s \$2 \, connect 1
0 0 0 \, connect 0 0 2 0;
#X msg 321 209 2;
#X msg 502 209 2;
#X msg 353 91 3;
#X obj 738 315 outlet offset;
#X obj 321 43 t b a b;
#X msg 738 291 3;
#X connect 0 0 9 0;
#X connect 1 0 9 1;
#X connect 2 0 7 0;
#X connect 4 0 15 0;
#X connect 5 0 11 0;
#X connect 5 1 12 0;
#X connect 6 0 13 0;
#X connect 6 1 7 0;
#X connect 7 0 8 0;
#X connect 8 0 3 0;
#X connect 9 0 10 0;
#X connect 10 0 3 0;
#X connect 11 0 0 0;
#X connect 12 0 1 0;
#X connect 13 0 2 0;
#X connect 15 0 5 0;
#X connect 15 1 6 0;
#X connect 15 2 16 0;
#X connect 16 0 14 0;
#X restore 192 96 pd core+messages;
#X obj 152 76 list split 2;
#X msg 120 207 loadbang;
#X obj 152 226 t a;
#X obj 120 56 t b l;
#X obj 152 248 outlet;
#X obj 120 32 inlet;
#X connect 0 0 2 0;
#X connect 0 1 1 0;
#X connect 1 0 6 0;
#X connect 1 1 2 1;
#X connect 2 0 6 0;
#X connect 3 0 6 0;
#X connect 3 1 1 1;
#X connect 4 0 0 0;
#X connect 4 1 3 0;
#X connect 5 0 6 0;
#X connect 6 0 8 0;
#X connect 7 0 5 0;
#X connect 7 1 4 0;
#X connect 9 0 7 0;
#X restore 246 318 pd process;
#X obj 451 344 t a;
#X obj 151 338 t a;
#N canvas 283 374 976 348 outputs 0;
#X obj 180 274 outlet;
#X obj 95 31 inlet;
#X obj 94 53 list split 1;
#X text 50 9 create an Nchannel streamer;
#X obj 604 51 inlet streamerconfig;
#X obj 180 247 list trim;
#X obj 134 77 t f b;
#X obj 180 225 list prepend obj 50 50 SMiSTREAM;
#X text 332 163 prefix #channels;
#X obj 180 205 list append udp 0 rtp L16;
#X text 405 206 transport transPort protocol profile;
#X obj 311 73 moses 1;
#X floatatom 353 98 5 0 0 0 - - -;
#X floatatom 314 92 5 0 0 0 - - -;
#X floatatom 312 33 5 0 0 0 - - -;
#X obj 134 99 moses 1;
#X obj 180 163 list prepend \$0-OUT-;
#X obj 303 144 dollarsymbol 2 $%d-OUT;
#X connect 1 0 2 0;
#X connect 2 1 6 0;
#X connect 5 0 0 0;
#X connect 6 0 15 0;
#X connect 6 1 17 0;
#X connect 7 0 5 0;
#X connect 9 0 7 0;
#X connect 11 0 13 0;
#X connect 11 1 12 0;
#X connect 14 0 11 0;
#X connect 15 1 16 0;
#X connect 16 0 9 0;
#X connect 17 0 16 1;
#X restore 151 318 pd outputs;
#X obj 151 358 s \$0-output;
#X obj 246 338 t a a;
#X connect 0 0 12 0;
#X connect 0 0 13 0;
#X connect 0 0 16 0;
#X connect 1 0 3 0;
#X connect 2 0 3 0;
#X connect 3 1 6 0;
#X connect 3 2 0 0;
#X connect 4 0 5 0;
#X connect 5 0 0 0;
#X connect 6 1 10 0;
#X connect 9 0 12 0;
#X connect 10 0 14 0;
#X connect 10 1 11 0;
#X connect 10 2 9 0;
#X connect 11 0 16 0;
#X connect 12 0 7 0;
#X connect 13 0 15 0;
#X connect 14 0 13 0;
#X connect 16 0 8 0;
#X restore 325 188 pd rebuild;
#X msg 551 78 4 8 \$1;
#X msg 621 78 4 8;
#X obj 302 23 inlet load;
#X text 386 23 <num.inlet~s> <num.outlet~s> <name>;
#X msg 551 53 symbol test;
#X obj 302 75 t b a b;
#X msg 390 53 0 0 _STREAMER;
#X obj 77 158 s \$0-toPatch;
#X obj 78 205 r \$0-fromPatch;
#X msg 392 164 reset;
#X obj 271 121 suspendresumedsp;
#X msg 383 272 vis 1;
#X msg 383 292 vis 1;
#X msg 383 312 vis 1;
#X obj 227 272 sandbox \$0-input \$0;
#X obj 227 292 sandbox \$0-process \$0;
#X obj 227 312 sandbox \$0-output \$0;
#X connect 1 0 11 0;
#X connect 6 0 9 0;
#X connect 8 0 4 0;
#X connect 9 0 14 0;
#X connect 9 1 3 0;
#X connect 9 2 14 1;
#X connect 10 0 9 0;
#X connect 12 0 0 0;
#X connect 13 0 3 1;
#X connect 15 0 18 1;
#X connect 16 0 19 1;
#X connect 17 0 20 1;
#X connect 18 0 19 0;
#X connect 19 0 20 0;
