#N canvas 4 49 450 300 10;
#X obj 169 148 tgl 15 0 empty empty empty 17 7 0 10 -262144 -1 -1 0
1;
#X obj 117 146 spigot;
#X obj 251 110 r __WILMA_loglevel;
#X obj 117 117 inlet;
#X obj 251 132 <= \$1;
#X obj 117 169 print \$2;
#X connect 0 0 1 1;
#X connect 1 0 5 0;
#X connect 2 0 4 0;
#X connect 3 0 1 0;
#X connect 4 0 0 0;
