#N canvas 315 93 663 397 10;
#X obj 112 122 adc~ 1 2 3 4;
#X obj 128 36 r pd;
#X obj 128 58 route dsp;
#X obj 89 280 s \$1-OSCout;
#X obj 257 39 iemlib1;
#X obj 112 153 pvu~ 100 100 100;
#X obj 152 172 pvu~ 100 100 100;
#X obj 192 193 pvu~ 100 100 100;
#X obj 232 153 pvu~ 100 100 100;
#X obj 322 197 r _pcmtimestamp;
#X obj 322 219 unpack;
#X obj 48 32 r \$1-ping;
#X obj 48 54 t b;
#X text 133 80 used to be started by DSP;
#X msg 389 344 /process \$1;
#X obj 390 314 tgl 15 0 empty empty empty 17 7 0 10 -262144 -1 -1 0
1;
#X obj 89 236 pack 0 0 0 0 0 0 0 0;
#X obj 492 219 t f;
#X obj 492 199 r \$1-state;
#X msg 89 258 [ \, /meter \$2 \$3 \$4 \$5 \, /timestamp \$6 \$7 \,
/process \$8 \, ];
#X connect 0 0 5 0;
#X connect 0 1 6 0;
#X connect 0 2 7 0;
#X connect 0 3 8 0;
#X connect 1 0 2 0;
#X connect 5 0 16 1;
#X connect 6 0 16 2;
#X connect 7 0 16 3;
#X connect 8 0 16 4;
#X connect 9 0 10 0;
#X connect 10 0 16 5;
#X connect 10 1 16 6;
#X connect 11 0 12 0;
#X connect 12 0 16 0;
#X connect 14 0 3 0;
#X connect 15 0 14 0;
#X connect 16 0 19 0;
#X connect 17 0 16 7;
#X connect 18 0 17 0;
#X connect 19 0 3 0;
