#N canvas 313 101 450 362 10;
#X obj 112 82 adc~ 1 2 3 4;
#X obj 89 16 r pd;
#X obj 89 38 route dsp;
#X obj 89 60 metro 100;
#X obj 89 240 s \$1-OSCout;
#X obj 257 39 iemlib1;
#X obj 112 113 pvu~ 100 100 100;
#X obj 152 132 pvu~ 100 100 100;
#X obj 192 153 pvu~ 100 100 100;
#X obj 232 113 pvu~ 100 100 100;
#X obj 322 157 r _pcmtimestamp;
#X msg 89 218 [ \, /meter \$2 \$3 \$4 \$5 \, /timestamp \$6 \$7 \,
];
#X obj 89 196 pack 0 0 0 0 0 0 0;
#X obj 322 179 unpack;
#X connect 0 0 6 0;
#X connect 0 1 7 0;
#X connect 0 2 8 0;
#X connect 0 3 9 0;
#X connect 1 0 2 0;
#X connect 2 0 3 0;
#X connect 3 0 12 0;
#X connect 6 0 12 1;
#X connect 7 0 12 2;
#X connect 8 0 12 3;
#X connect 9 0 12 4;
#X connect 10 0 13 0;
#X connect 11 0 4 0;
#X connect 12 0 11 0;
#X connect 13 0 12 5;
#X connect 13 1 12 6;
