#N canvas 469 313 450 300 10;
#X obj 114 60 inlet;
#X obj 114 82 list split 1;
#X obj 114 147 list append;
#X obj 114 104 list prepend \$1;
#X obj 114 169 outlet;
#X msg 114 126 \$1\$2;
#X connect 0 0 1 0;
#X connect 1 0 3 0;
#X connect 1 1 2 1;
#X connect 2 0 4 0;
#X connect 3 0 5 0;
#X connect 5 0 2 0;
