#N canvas 467 112 450 300 10;
#X obj 47 178 unpackOSC;
#X obj 47 96 r \$1-OSCrawout;
#X obj 47 230 s \$1-OSCin;
#N canvas 708 408 517 307 connection 0;
#X obj 84 48 inlet data;
#X obj 84 249 outlet data;
#X obj 84 115 spigot;
#X obj 124 182 tgl 15 0 empty empty empty 17 7 0 10 -262144 -1 -1 1
1;
#X obj 248 65 r _WILMA_port;
#X msg 248 149 connect localhost \$1;
#X obj 248 87 f;
#X obj 248 109 t f b;
#X obj 402 149 i;
#X obj 402 171 select 1;
#X msg 402 193 disconnect;
#X obj 124 160 t f f f;
#X obj 84 209 t a b;
#X obj 266 36 delay 10000;
#X text 276 18 timeout (incoming message);
#X msg 341 65 bang;
#X floatatom 338 96 5 0 0 0 - - -;
#X obj 248 171 t a b;
#X obj 84 137 \$2client;
#X obj 248 211 t a a;
#X obj 285 246 print pdserver_client.ctl;
#X connect 0 0 2 0;
#X connect 2 0 18 0;
#X connect 4 0 6 0;
#X connect 5 0 17 0;
#X connect 6 0 7 0;
#X connect 6 0 16 0;
#X connect 7 0 5 0;
#X connect 7 1 8 0;
#X connect 8 0 9 0;
#X connect 9 0 10 0;
#X connect 10 0 19 0;
#X connect 11 0 3 0;
#X connect 11 1 2 1;
#X connect 11 2 8 1;
#X connect 12 0 1 0;
#X connect 12 1 13 0;
#X connect 13 0 6 0;
#X connect 15 0 6 0;
#X connect 17 0 19 0;
#X connect 17 1 13 0;
#X connect 18 0 12 0;
#X connect 18 2 11 0;
#X connect 19 0 18 0;
#X connect 19 1 20 0;
#X restore 47 138 pd connection;
#N canvas 5 49 450 420 ping 0;
#X obj 106 317 outlet;
#X obj 106 192 metro 1000;
#X msg 187 244 /ping;
#X obj 187 266 packOSC;
#X obj 106 298 list prepend;
#X obj 106 118 inlet;
#X obj 106 162 f 1;
#X obj 106 140 t a b;
#X connect 1 0 4 0;
#X connect 2 0 3 0;
#X connect 3 0 4 1;
#X connect 4 0 0 0;
#X connect 5 0 7 0;
#X connect 6 0 1 0;
#X connect 7 0 6 0;
#X connect 7 1 2 0;
#X restore 215 121 pd ping;
#N canvas 5 50 450 300 pong 0;
#X obj 90 39 inlet;
#X obj 90 200 routeOSC /pong;
#X obj 90 222 spigot;
#X obj 90 244 print PING;
#X obj 142 223 tgl 15 0 empty empty empty 17 7 0 10 -262144 -1 -1 0
1;
#X obj 226 244 outlet;
#X connect 0 0 1 0;
#X connect 1 0 2 0;
#X connect 1 1 5 0;
#X connect 2 0 3 0;
#X connect 4 0 2 1;
#X restore 47 203 pd pong;
#X obj 215 99 inlet ping;
#X connect 0 0 5 0;
#X connect 1 0 3 0;
#X connect 3 0 0 0;
#X connect 4 0 3 0;
#X connect 5 0 2 0;
#X connect 6 0 4 0;
