#N canvas 284 487 756 440 10;
#X obj 106 242 writesf~ 4 1e+06;
#X obj 39 37 inlet ctl;
#X text 283 32 stop;
#X text 284 20 start <basefilename> <TShi> <TSlo>;
#X msg 362 58 start foo 1234 1234;
#X msg 460 215 1234 1298;
#X msg 458 195 1234 1106;
#X text 530 195 two blocks early;
#X text 537 216 one block late;
#X msg 462 235 1234 1234;
#X text 545 237 in time;
#X obj 39 128 t a;
#N canvas 587 49 580 497 control 0;
#X obj 289 217 unpack 0 0;
#X msg 289 398 stop \, open \$1;
#N canvas 8 49 450 300 blocks2ms 0;
#X obj 66 75 t f b;
#X obj 98 97 samplerate~;
#X obj 66 153 /;
#X obj 98 119 / 1000;
#X obj 66 53 inlet samples;
#X obj 66 195 outlet ms;
#X connect 0 0 2 0;
#X connect 0 1 1 0;
#X connect 1 0 3 0;
#X connect 2 0 5 0;
#X connect 3 0 2 1;
#X connect 4 0 0 0;
#X restore 63 194 pd blocks2ms;
#X obj 63 236 delay;
#X msg 63 260 start;
#X obj 173 73 t b;
#X msg 183 362 stop;
#X obj 63 15 inlet;
#X obj 63 456 outlet ->writesf;
#X obj 405 12 inlet now;
#X obj 63 434 t a a;
#X obj 289 261 t s b;
#X obj 289 354 pack s s s s;
#X msg 289 376 symbol \$4/\$3_\$1\$2.wav;
#X obj 425 283 list prepend \$1;
#X obj 425 305 route symbol;
#X obj 425 327 symbol;
#X msg 506 356 .;
#X obj 506 330 t b;
#X obj 63 39 route /start /stop /filename /timestamp;
#X obj 343 126 symbol;
#X obj 63 73 t b;
#X obj 63 142 list prepend;
#X obj 289 239 makefilename %04X;
#X obj 416 239 makefilename %04X;
#X obj 193 455 logger 20 RECctl;
#X obj 63 172 ts2deltime;
#X msg 95 286 start @ \$1;
#X obj 63 216 t a a;
#N canvas 8 50 450 300 blocks2ms 0;
#X obj 66 75 t f b;
#X obj 98 97 samplerate~;
#X obj 66 153 /;
#X obj 98 119 / 1000;
#X obj 66 53 inlet samples;
#X obj 66 195 outlet ms;
#X connect 0 0 2 0;
#X connect 0 1 1 0;
#X connect 1 0 3 0;
#X connect 2 0 5 0;
#X connect 3 0 2 1;
#X connect 4 0 0 0;
#X restore 173 194 pd blocks2ms;
#X obj 173 236 delay;
#X obj 173 142 list prepend;
#X obj 173 172 ts2deltime;
#X obj 173 216 t a a;
#X msg 173 260 stop;
#X msg 205 286 stop @ \$1;
#X obj 405 34 t a a;
#X obj 222 73 t a a;
#X connect 0 0 23 0;
#X connect 0 1 24 0;
#X connect 1 0 10 0;
#X connect 2 0 28 0;
#X connect 3 0 4 0;
#X connect 4 0 10 0;
#X connect 5 0 31 0;
#X connect 6 0 10 0;
#X connect 7 0 19 0;
#X connect 9 0 36 0;
#X connect 10 0 8 0;
#X connect 10 1 25 0;
#X connect 11 0 12 0;
#X connect 11 1 14 0;
#X connect 12 0 13 0;
#X connect 13 0 1 0;
#X connect 14 0 15 0;
#X connect 15 0 16 0;
#X connect 15 1 18 0;
#X connect 16 0 12 3;
#X connect 17 0 16 0;
#X connect 18 0 17 0;
#X connect 19 0 21 0;
#X connect 19 1 5 0;
#X connect 19 2 20 0;
#X connect 19 3 37 0;
#X connect 20 0 12 2;
#X connect 21 0 22 0;
#X connect 22 0 26 0;
#X connect 23 0 11 0;
#X connect 24 0 12 1;
#X connect 26 0 2 0;
#X connect 26 1 0 0;
#X connect 27 0 25 0;
#X connect 28 0 3 0;
#X connect 28 1 27 0;
#X connect 29 0 33 0;
#X connect 30 0 34 0;
#X connect 31 0 32 0;
#X connect 32 0 29 0;
#X connect 33 0 30 0;
#X connect 33 1 35 0;
#X connect 34 0 10 0;
#X connect 35 0 25 0;
#X connect 36 0 26 1;
#X connect 36 1 32 1;
#X connect 37 0 22 1;
#X connect 37 1 31 1;
#X restore 39 100 pd control;
#X obj 412 191 t a;
#X obj 36 357 outlet data;
#X obj 105 152 inlet~;
#X obj 143 172 inlet~;
#X obj 177 192 inlet~;
#X obj 216 215 inlet~;
#X obj 413 168 r _pcmtimestamp;
#X obj 39 59 t a a;
#X obj 94 59 logger 20 RECcontrol;
#X connect 1 0 20 0;
#X connect 4 0 12 0;
#X connect 5 0 13 0;
#X connect 6 0 13 0;
#X connect 9 0 13 0;
#X connect 11 0 0 0;
#X connect 12 0 11 0;
#X connect 13 0 12 1;
#X connect 15 0 0 0;
#X connect 16 0 0 1;
#X connect 17 0 0 2;
#X connect 18 0 0 3;
#X connect 19 0 13 0;
#X connect 20 0 12 0;
#X connect 20 1 21 0;
