#N canvas 283 491 756 440 10;
#X obj 106 242 writesf~ 4 1e+06;
#X obj 39 37 inlet ctl;
#X text 283 32 stop;
#X text 284 20 start <basefilename> <TShi> <TSlo>;
#X msg 362 58 start foo 1234 1234;
#X msg 460 215 1234 1298;
#X msg 458 195 1234 1106;
#X text 530 195 two blocks early;
#X text 537 216 one block late;
#X msg 462 235 1234 1234;
#X text 545 237 in time;
#X obj 39 128 t a;
#N canvas 586 49 450 497 control 0;
#N canvas 749 130 527 655 timestamp-diff 0;
#X obj 63 23 inlet TS;
#X obj 220 22 inlet now;
#X obj 63 191 / 64;
#X obj 63 213 int;
#X text 72 233 blocks to delay;
#X obj 63 491 outlet;
#X obj 367 362 outlet startTS;
#X obj 63 375 moses 0;
#X msg 63 449 0;
#X obj 108 168 r _WILMA_blocksize;
#X obj 63 265 * 64;
#X text 78 285 samples to delay;
#X obj 108 190 t f f;
#X obj 346 523 *;
#X floatatom 346 544 0 0 0 0 - - -;
#X msg 346 500 48000 10;
#X obj 63 354 moses 480000;
#N canvas 826 558 450 300 TS-now 0;
#X obj 63 197 outlet deltaT;
#X obj 63 40 inlet TS;
#X obj 220 40 inlet now;
#X obj 63 73 unpack 0 0;
#X obj 220 73 unpack 0 0;
#X obj 63 125 -;
#X obj 63 147 * 65536;
#X obj 130 125 -;
#X obj 63 169 +;
#X connect 1 0 3 0;
#X connect 2 0 4 0;
#X connect 3 0 5 0;
#X connect 3 1 7 0;
#X connect 4 0 5 1;
#X connect 4 1 7 1;
#X connect 5 0 6 0;
#X connect 6 0 8 0;
#X connect 7 0 8 1;
#X connect 8 0 0 0;
#X restore 63 140 pd TS-now;
#X obj 63 45 t a a;
#X obj 220 44 t a a;
#X obj 272 311 list prepend;
#X obj 367 309 list prepend;
#X obj 109 425 t f b;
#X obj 63 424 t b b;
#X obj 63 471 t f f;
#N canvas 7 49 627 381 debug 0;
#X obj 101 72 inlet offset;
#X obj 281 77 inlet TS;
#X obj 361 75 inlet now;
#X obj 281 140 pack 0 0 0 0;
#X obj 281 99 unpack;
#X obj 351 106 unpack;
#X obj 101 94 t f;
#X obj 101 204 route 0;
#X msg 101 226 missed \$1/\$2 < \$3/\$4;
#X msg 268 226 start @\$1: \$2/\$3 >= \$4/\$5;
#X obj 101 182 list append 0 0 0 0;
#X obj 101 266 logger 40 recording;
#X connect 0 0 6 0;
#X connect 1 0 4 0;
#X connect 2 0 5 0;
#X connect 3 0 10 1;
#X connect 4 0 3 0;
#X connect 4 1 3 1;
#X connect 5 0 3 2;
#X connect 5 1 3 3;
#X connect 6 0 10 0;
#X connect 7 0 8 0;
#X connect 7 1 9 0;
#X connect 8 0 11 0;
#X connect 9 0 11 0;
#X connect 10 0 7 0;
#X restore 164 534 pd debug;
#X connect 0 0 18 0;
#X connect 1 0 19 0;
#X connect 2 0 3 0;
#X connect 3 0 10 0;
#X connect 7 0 23 0;
#X connect 7 1 22 0;
#X connect 8 0 24 0;
#X connect 9 0 12 0;
#X connect 10 0 16 0;
#X connect 12 0 2 1;
#X connect 12 1 10 1;
#X connect 13 0 14 0;
#X connect 15 0 13 0;
#X connect 16 0 7 0;
#X connect 16 1 23 0;
#X connect 17 0 2 0;
#X connect 18 0 17 0;
#X connect 18 1 20 1;
#X connect 18 1 25 1;
#X connect 19 0 17 1;
#X connect 19 1 21 1;
#X connect 19 1 25 2;
#X connect 20 0 6 0;
#X connect 21 0 6 0;
#X connect 22 0 24 0;
#X connect 22 1 20 0;
#X connect 23 0 8 0;
#X connect 23 1 21 0;
#X connect 24 0 5 0;
#X connect 24 1 25 0;
#X restore 63 172 pd timestamp-diff;
#X obj 179 217 unpack 0 0;
#X msg 179 398 stop \, open \$1;
#N canvas 4 50 450 300 blocks2ms 0;
#X obj 66 75 t f b;
#X obj 98 97 samplerate~;
#X obj 66 153 /;
#X obj 98 119 / 1000;
#X obj 66 53 inlet samples;
#X obj 66 195 outlet ms;
#X connect 0 0 2 0;
#X connect 0 1 1 0;
#X connect 1 0 3 0;
#X connect 2 0 5 0;
#X connect 3 0 2 1;
#X connect 4 0 0 0;
#X restore 63 194 pd blocks2ms;
#X obj 63 216 delay;
#X msg 63 240 start;
#X obj 157 60 t b;
#X msg 157 82 stop;
#X obj 63 15 inlet;
#X obj 63 456 outlet ->writesf;
#X obj 265 12 inlet now;
#X obj 63 434 t a a;
#X obj 179 261 t s b;
#X obj 179 354 pack s s s s;
#X msg 179 376 symbol \$4/\$3_\$1\$2.wav;
#X obj 315 283 list prepend \$1;
#X obj 315 305 route symbol;
#X obj 315 327 symbol;
#X msg 396 356 .;
#X obj 396 330 t b;
#X obj 63 39 route /start /stop /filename /timestamp;
#X obj 233 126 symbol;
#X obj 63 61 t b;
#X obj 63 142 list prepend;
#X obj 179 239 makefilename %04X;
#X obj 306 239 makefilename %04X;
#X obj 193 455 logger 20 RECctl;
#X connect 0 0 3 0;
#X connect 0 1 1 0;
#X connect 1 0 24 0;
#X connect 1 1 25 0;
#X connect 2 0 11 0;
#X connect 3 0 4 0;
#X connect 3 0 26 0;
#X connect 4 0 5 0;
#X connect 5 0 11 0;
#X connect 6 0 7 0;
#X connect 7 0 11 0;
#X connect 8 0 20 0;
#X connect 10 0 0 1;
#X connect 11 0 9 0;
#X connect 11 1 26 0;
#X connect 12 0 13 0;
#X connect 12 1 15 0;
#X connect 13 0 14 0;
#X connect 14 0 2 0;
#X connect 15 0 16 0;
#X connect 16 0 17 0;
#X connect 16 1 19 0;
#X connect 17 0 13 3;
#X connect 18 0 17 0;
#X connect 19 0 18 0;
#X connect 20 0 22 0;
#X connect 20 1 6 0;
#X connect 20 2 21 0;
#X connect 20 3 23 1;
#X connect 21 0 13 2;
#X connect 22 0 23 0;
#X connect 23 0 0 0;
#X connect 24 0 12 0;
#X connect 25 0 13 1;
#X restore 39 100 pd control;
#X obj 412 191 t a;
#X obj 36 357 outlet data;
#X obj 105 152 inlet~;
#X obj 143 172 inlet~;
#X obj 177 192 inlet~;
#X obj 216 215 inlet~;
#X obj 413 168 r _pcmtimestamp;
#X obj 39 59 t a a;
#X obj 94 59 logger 20 RECcontrol;
#X connect 1 0 20 0;
#X connect 4 0 12 0;
#X connect 5 0 13 0;
#X connect 6 0 13 0;
#X connect 9 0 13 0;
#X connect 11 0 0 0;
#X connect 12 0 11 0;
#X connect 13 0 12 1;
#X connect 15 0 0 0;
#X connect 16 0 0 1;
#X connect 17 0 0 2;
#X connect 18 0 0 3;
#X connect 19 0 13 0;
#X connect 20 0 12 0;
#X connect 20 1 21 0;
