#N canvas 462 198 814 452 10;
#X obj 187 35 inlet control;
#X obj 503 391 outlet control;
#X text 40 15 1:prefix 2:channels 3:transport 4:transPort 5:profile
;
#N canvas 4 622 647 293 reconfigure 0;
#X obj 67 36 inlet;
#X obj 442 104 outlet reject;
#X obj 67 133 s \$0-transport:protocol;
#X obj 67 199 s \$0-stream:profile;
#X obj 67 80 routeOSC /protocol /port;
#X obj 232 102 oscprefix /transport;
#X obj 67 59 routeOSC /transport /protocol /profile /channels;
#X obj 315 178 s \$0-audio:channels;
#X obj 315 153 t f f;
#X floatatom 362 139 5 0 0 0 - - -;
#X connect 0 0 6 0;
#X connect 4 0 2 0;
#X connect 4 2 5 0;
#X connect 5 0 1 0;
#X connect 6 0 4 0;
#X connect 6 2 3 0;
#X connect 6 3 8 0;
#X connect 6 4 1 0;
#X connect 8 0 7 0;
#X connect 9 0 8 0;
#X restore 187 58 pd reconfigure;
#X msg 329 272 disconnect \, connect \$1 \$2;
#X msg 394 298 disconnect;
#X obj 329 294 t a a;
#X obj 187 108 route /start /stop /destination;
#X obj 187 130 t b;
#X msg 187 153 1;
#X msg 220 154 0;
#N canvas 348 186 973 729 creator 0;
#X obj 65 39 inlet bang;
#X obj 88 634 s \$0-stream;
#X obj 88 216 list prepend \$0;
#X obj 88 604 t a;
#X obj 88 302 list split 1;
#X obj 88 324 t f b;
#X obj 88 346 until;
#X obj 88 368 i;
#X obj 88 390 t f f;
#X obj 116 368 + 1;
#X msg 129 346 0;
#X obj 202 437 list prepend \$1;
#X msg 203 457 symbol \$1:\$2;
#X obj 88 412 t f f f f;
#X obj 161 445 + 5;
#X text 96 500 1:<y> 2:<y> 3:<chan#> 4:<ID> 5:recname;
#X msg 88 574 obj \$1 \$2 r~ \$5 \, connect \$4 0 0 \$3;
#X obj 88 479 pack f f f f s;
#N canvas 669 607 450 300 xy 0;
#X obj 66 12 inlet f;
#X obj 66 245 outlet x y;
#X obj 66 78 t f f;
#X obj 66 122 pack;
#X obj 66 56 * 20;
#X obj 66 100 + 100;
#X obj 110 101 + 200;
#X connect 0 0 4 0;
#X connect 2 0 5 0;
#X connect 2 1 6 0;
#X connect 3 0 1 0;
#X connect 4 0 2 0;
#X connect 5 0 3 0;
#X connect 6 0 3 1;
#X restore 88 449 pd xy;
#X obj 88 258 t l l b;
#X msg 437 485 clear;
#X obj 38 177 suspendresumedsp;
#X obj 65 143 t b a b;
#N canvas 615 396 450 300 args 0;
#X obj 36 28 inlet bang;
#X obj 36 265 outlet args;
#X obj 36 178 list prepend \$1;
#X obj 36 200 t l b;
#N canvas 553 309 450 300 audio1 0;
#X obj 88 42 inlet;
#X obj 88 64 i \$2;
#X obj 88 86 outlet;
#X obj 178 38 r \$0-audio:channels;
#X obj 178 60 t b f;
#X obj 178 82 outlet activeChange;
#X connect 0 0 1 0;
#X connect 1 0 2 0;
#X connect 3 0 4 0;
#X connect 4 0 5 0;
#X connect 4 1 1 1;
#X restore 36 93 pd audio1;
#N canvas 405 508 450 300 transport1 0;
#X obj 88 42 inlet;
#X obj 88 86 outlet;
#X obj 178 112 outlet activeChange;
#X obj 88 64 symbol \$3;
#X obj 178 38 r \$0-transport:protocol;
#X obj 178 60 symbol udp;
#X obj 178 90 t b s;
#X connect 0 0 3 0;
#X connect 3 0 1 0;
#X connect 4 0 5 0;
#X connect 5 0 6 0;
#X connect 6 0 2 0;
#X connect 6 1 3 1;
#X restore 113 94 pd transport1;
#N canvas 554 305 450 300 stream1 0;
#X obj 88 82 inlet;
#X obj 88 126 outlet;
#X obj 178 122 outlet activeChange;
#X obj 178 38 r \$0-stream:profile;
#X obj 178 60 symbol L16;
#X obj 178 100 t b s;
#X obj 88 104 symbol \$5;
#X connect 0 0 6 0;
#X connect 3 0 4 0;
#X connect 4 0 5 0;
#X connect 5 0 2 0;
#X connect 5 1 6 1;
#X connect 6 0 1 0;
#X restore 213 94 pd stream1;
#X obj 113 116 list append;
#X obj 36 136 list append;
#X obj 36 50 t b b b;
#X obj 257 125 t b;
#X obj 257 147 del 0;
#X msg 285 125 stop;
#X text 47 244 1:prefix 2:channels 3:protocol 4:profile;
#X connect 0 0 9 0;
#X connect 2 0 3 0;
#X connect 3 0 1 0;
#X connect 3 1 12 0;
#X connect 4 0 8 0;
#X connect 4 1 10 0;
#X connect 5 0 7 0;
#X connect 5 1 10 0;
#X connect 6 0 7 1;
#X connect 6 1 10 0;
#X connect 7 0 8 1;
#X connect 8 0 2 0;
#X connect 9 0 4 0;
#X connect 9 1 5 0;
#X connect 9 2 6 0;
#X connect 10 0 11 0;
#X connect 11 0 9 0;
#X connect 12 0 11 0;
#X restore 65 81 pd args;
#X text 93 235 1:\$0 2:prefix 3:channels 4:protocol 5:profile;
#X msg 88 280 list \$3 \$2;
#X msg 166 61 bang;
#X msg 320 366 obj 20 100 rtp\$5pay~ \$3 \, obj 20 125 _WILMA/\$4_packetsender
\, obj 20 75 r \$1-control2payloader \, obj 178 100 r \$1-control2sender
\, obj 20 150 s \$1-sender2control \, connect 0 0 1 0 \, connect 2
0 0 0 \, connect 3 0 1 1 \, connect 1 0 4 0;
#X connect 0 0 23 0;
#X connect 2 0 19 0;
#X connect 3 0 1 0;
#X connect 4 0 5 0;
#X connect 4 1 11 1;
#X connect 5 0 6 0;
#X connect 5 1 10 0;
#X connect 6 0 7 0;
#X connect 7 0 8 0;
#X connect 8 0 13 0;
#X connect 8 1 9 0;
#X connect 9 0 7 1;
#X connect 10 0 7 1;
#X connect 11 0 12 0;
#X connect 12 0 17 4;
#X connect 13 0 18 0;
#X connect 13 1 17 2;
#X connect 13 2 14 0;
#X connect 13 3 11 0;
#X connect 14 0 17 3;
#X connect 16 0 3 0;
#X connect 17 0 16 0;
#X connect 18 0 17 0;
#X connect 19 0 25 0;
#X connect 19 1 27 0;
#X connect 19 2 20 0;
#X connect 20 0 3 0;
#X connect 22 0 21 0;
#X connect 22 1 2 0;
#X connect 22 2 21 1;
#X connect 23 0 22 0;
#X connect 25 0 4 0;
#X connect 26 0 23 0;
#X connect 27 0 3 0;
#X restore 512 177 pd creator;
#X msg 643 213 vis 1;
#X msg 512 155 bang;
#X obj 329 326 s \$0-control2sender;
#X obj 512 133 loadbang;
#X obj 512 213 sandbox \$0-stream;
#N canvas 371 284 450 300 proxy 0;
#X obj 58 41 r _pcmtimestamp;
#X msg 58 63 timestamp \$1 \$2;
#X obj 58 85 s \$0-payloadcontrol;
#X obj 245 43 r \$0-payloader:start;
#X msg 245 65 auto \$1;
#X obj 245 87 s \$0-control2payloader;
#X obj 63 137 r \$0-sender2control;
#X floatatom 63 159 5 0 0 0 - - -;
#X connect 0 0 1 0;
#X connect 1 0 2 0;
#X connect 3 0 4 0;
#X connect 4 0 5 0;
#X connect 6 0 7 0;
#X restore 146 368 pd proxy;
#X obj 187 175 s \$0-payloader:start;
#X obj 220 133 t b;
#X obj 329 224 t b a;
#X obj 401 41 print streamconfig;
#X obj 329 250 list prepend localhost 0;
#X msg 384 183 localhost \$1;
#X floatatom 384 165 5 0 0 0 - - -;
#X connect 0 0 3 0;
#X connect 0 0 21 0;
#X connect 3 0 7 0;
#X connect 4 0 6 0;
#X connect 5 0 6 0;
#X connect 6 0 14 0;
#X connect 7 0 8 0;
#X connect 7 1 19 0;
#X connect 7 2 20 0;
#X connect 8 0 9 0;
#X connect 9 0 18 0;
#X connect 10 0 18 0;
#X connect 12 0 16 1;
#X connect 13 0 11 0;
#X connect 15 0 13 0;
#X connect 19 0 10 0;
#X connect 20 0 22 0;
#X connect 20 1 22 1;
#X connect 22 0 4 0;
#X connect 23 0 20 0;
#X connect 24 0 23 0;
