#N canvas 136 483 814 452 10;
#X obj 187 35 inlet control;
#X obj 503 391 outlet control;
#X text 40 15 1:prefix 2:channels 3:transport 4:transPort 5:profile
;
#N canvas 8 49 647 293 reconfigure 0;
#X obj 67 36 inlet;
#X obj 442 104 outlet reject;
#X obj 67 133 s \$0-transport:protocol;
#X obj 67 155 s \$0-transport:port;
#X obj 67 199 s \$0-stream:profile;
#X obj 67 80 routeOSC /protocol /port;
#X obj 232 102 oscprefix /transport;
#X obj 67 59 routeOSC /transport /protocol /profile /channels;
#X obj 315 178 s \$0-audio:channels;
#X obj 315 153 t f f;
#X connect 0 0 7 0;
#X connect 5 0 2 0;
#X connect 5 1 3 0;
#X connect 5 2 6 0;
#X connect 6 0 1 0;
#X connect 7 0 5 0;
#X connect 7 2 4 0;
#X connect 7 3 9 0;
#X connect 7 4 1 0;
#X connect 9 0 8 0;
#X restore 187 58 pd reconfigure;
#X obj 187 210 pack s f;
#X msg 187 232 disconnect \, connect \$1 \$2;
#X msg 252 258 disconnect;
#X obj 187 254 t a a;
#X obj 187 108 route /start /stop /destination;
#X obj 252 209 t b b;
#X obj 187 130 t b;
#X msg 336 260 1;
#X msg 369 261 0;
#X obj 229 411 _WILMA/\$3_packetsender;
#N canvas 255 107 450 300 reblock 0;
#X obj 50 147 outlet;
#X obj 50 45 inlet~;
#X obj 73 65 inlet~;
#X obj 100 85 inlet~;
#X obj 123 105 inlet~;
#X obj 215 60 inlet control;
#X obj 50 125 rtp\$5pay~ 4;
#X obj 267 197 block~ 128;
#X msg 158 126 channels 2;
#X text 242 127 doesn't work yet;
#X connect 1 0 6 0;
#X connect 2 0 6 1;
#X connect 3 0 6 2;
#X connect 4 0 6 3;
#X connect 5 0 6 0;
#X connect 6 0 0 0;
#X connect 8 0 6 0;
#X restore 229 386 pd reblock;
#X obj 336 282 t a;
#X msg 336 362 auto \$1;
#X text 448 88 TODO: variable number of channels;
#X obj 230 302 r~ \$1:1;
#X obj 244 322 r~ \$1:2;
#X obj 261 342 r~ \$1:3;
#X obj 279 362 r~ \$1:4;
#X connect 0 0 3 0;
#X connect 3 0 8 0;
#X connect 4 0 5 0;
#X connect 5 0 7 0;
#X connect 6 0 7 0;
#X connect 7 0 13 1;
#X connect 8 0 10 0;
#X connect 8 1 9 0;
#X connect 8 2 4 0;
#X connect 9 1 12 0;
#X connect 10 0 11 0;
#X connect 11 0 15 0;
#X connect 12 0 15 0;
#X connect 14 0 13 0;
#X connect 15 0 16 0;
#X connect 16 0 14 4;
#X connect 18 0 14 0;
#X connect 19 0 14 1;
#X connect 20 0 14 2;
#X connect 21 0 14 3;
