#N canvas 99 592 580 375 10;
#X obj 135 95 \$2_packetreceiver \$3;
#N canvas 6 49 450 300 depaycontrol 0;
#X obj 53 109 route /timestamp /channels /bufsize;
#X obj 53 131 list prepend timestamp;
#X msg 133 151 channels \$1;
#X msg 220 132 bufsize \$1;
#X obj 53 153 list trim;
#X obj 53 175 t a;
#X obj 53 79 inlet ctl;
#X obj 53 197 outlet ->depay;
#X obj 295 208 outlet reject;
#X connect 0 0 1 0;
#X connect 0 1 2 0;
#X connect 0 2 3 0;
#X connect 0 3 8 0;
#X connect 1 0 4 0;
#X connect 2 0 5 0;
#X connect 3 0 5 0;
#X connect 4 0 5 0;
#X connect 5 0 7 0;
#X connect 6 0 0 0;
#X restore 284 127 pd depaycontrol;
#N canvas 475 166 450 300 netcontrol 0;
#X obj 68 49 inlet;
#X msg 68 97 port \$1;
#X obj 68 119 outlet ctrl;
#X obj 212 126 outlet reject;
#X obj 68 75 route /transport/port;
#X connect 0 0 4 0;
#X connect 1 0 2 0;
#X connect 4 0 1 0;
#X connect 4 1 3 0;
#X restore 135 75 pd netcontrol;
#X obj 15 200 outlet~ dummy;
#X obj 470 187 s \$1-timestamp;
#X obj 135 33 r \$1->recv;
#X obj 272 330 s recv->\$1;
#X obj 15 50 inlet~ dummy;
#X obj 272 197 route /port;
#X obj 272 241 list prepend \$2;
#X obj 272 219 i \$3;
#X msg 224 199 bang;
#X msg 272 263 /stream/uri rtp.\$1://:\$2;
#X obj 135 147 rtpdepay~ \$4 \$6 \$5 \$1-;
#X msg 420 117 bang;
#X obj 391 164 route timeout timestamp;
#X obj 391 186 t b;
#X floatatom 313 220 5 0 0 0 - - -;
#X connect 0 0 13 0;
#X connect 0 1 8 0;
#X connect 1 0 13 1;
#X connect 2 0 0 0;
#X connect 2 1 1 0;
#X connect 5 0 2 0;
#X connect 8 0 10 0;
#X connect 9 0 12 0;
#X connect 10 0 9 0;
#X connect 10 0 17 0;
#X connect 11 0 10 0;
#X connect 12 0 6 0;
#X connect 13 0 3 0;
#X connect 13 1 15 0;
#X connect 14 0 13 1;
#X connect 15 0 16 0;
#X connect 15 1 4 0;
#X connect 16 0 10 0;
