#N canvas 411 364 735 481 10;
#X obj 366 187 loadbang;
#X msg 449 186 bang;
#X msg 475 245 reset;
#X text 520 245 clear for saving!;
#N canvas 350 199 926 634 creator 0;
#X obj 100 21 inlet bang;
#X obj 123 104 route reset;
#X msg 594 455 clear;
#X obj 594 150 t b;
#X obj 197 494 t a;
#N canvas 1351 163 747 776 createoutputs 0;
#X obj 93 531 t a;
#X obj 266 180 t s b;
#X msg 310 180 symbol;
#X obj 266 202 select symbol;
#X obj 266 246 t s;
#X obj 93 213 until;
#X obj 93 235 i;
#X obj 93 257 t f f;
#X obj 123 235 + 1;
#X obj 93 338 * 30;
#X obj 93 360 + 50;
#X obj 266 155 symbol;
#X obj 93 171 t f b;
#X obj 93 193 t f b;
#X msg 135 213 0;
#X obj 266 224 symbol \$0-;
#X obj 93 553 outlet;
#X obj 93 17 inlet channels dacoffset recprefix;
#X obj 93 39 unpack 0 0 s;
#X text 120 410 1:<y> 2:<recID> 3:<dacID> 4:<recprefix> 5:<recnum>
6:<dacnum>;
#X msg 93 452 obj 100 \$1 r~ \$4\$5 \, obj 200 \$1 dac~ \$6 \, connect
\$2 0 \$3 0;
#X obj 93 382 pack 0 0 0 s 0 0;
#X obj 93 279 t f f f;
#X obj 292 334 t f f;
#X obj 324 356 +;
#X obj 134 316 * 2;
#X obj 134 338 t f f;
#X obj 166 360 + 1;
#X connect 0 0 16 0;
#X connect 1 0 3 0;
#X connect 1 1 2 0;
#X connect 2 0 3 1;
#X connect 3 0 15 0;
#X connect 3 1 4 0;
#X connect 4 0 21 3;
#X connect 5 0 6 0;
#X connect 6 0 7 0;
#X connect 7 0 22 0;
#X connect 7 1 8 0;
#X connect 8 0 6 1;
#X connect 9 0 10 0;
#X connect 10 0 21 0;
#X connect 11 0 1 0;
#X connect 12 0 13 0;
#X connect 12 1 11 0;
#X connect 13 0 5 0;
#X connect 13 1 14 0;
#X connect 14 0 6 1;
#X connect 15 0 4 0;
#X connect 17 0 18 0;
#X connect 18 0 12 0;
#X connect 18 1 24 1;
#X connect 18 2 11 1;
#X connect 20 0 0 0;
#X connect 21 0 20 0;
#X connect 22 0 9 0;
#X connect 22 1 25 0;
#X connect 22 2 23 0;
#X connect 23 0 21 4;
#X connect 23 1 24 0;
#X connect 24 0 21 5;
#X connect 25 0 26 0;
#X connect 26 0 21 1;
#X connect 26 1 27 0;
#X connect 27 0 21 2;
#X restore 197 474 pd createoutputs;
#X obj 197 514 s \$0-output;
#X text 199 322 1:<transport> 2:<port> 3:<protocol> 4:<profile> 5:<bufsize>
6:<channels> 7:<dacoffset>;
#X obj 197 218 t b b b;
#N canvas 12 49 450 300 transport2 0;
#X obj 75 40 inlet;
#X obj 75 136 outlet;
#X text 75 156 transport port;
#X obj 75 62 t b;
#X obj 261 139 outlet activeChange;
#X obj 170 59 t b a;
#X obj 261 67 r \$0-transport:port;
#X obj 261 89 t b f;
#X obj 170 37 r \$0-transport:protocol;
#X obj 202 79 symbol;
#X obj 75 83 symbol \$3;
#X obj 75 114 pack s \$4;
#X connect 0 0 3 0;
#X connect 3 0 10 0;
#X connect 5 0 4 0;
#X connect 5 1 9 0;
#X connect 6 0 7 0;
#X connect 7 0 4 0;
#X connect 7 1 11 1;
#X connect 8 0 5 0;
#X connect 9 0 10 1;
#X connect 10 0 11 0;
#X connect 11 0 1 0;
#X restore 197 244 pd transport2;
#N canvas 7 49 450 300 stream2 0;
#X obj 53 35 inlet;
#X obj 53 57 t b b b;
#X obj 53 171 outlet;
#X text 48 194 protocol profile;
#X obj 53 149 pack s s;
#X obj 294 180 outlet activeChange;
#X obj 229 28 r \$0-stream:protocol;
#X obj 294 51 r \$0-stream:profile;
#X obj 294 73 t b a;
#X obj 229 70 t b s;
#X obj 229 50 symbol;
#X obj 53 79 symbol \$5;
#X obj 75 105 symbol \$6;
#X connect 0 0 1 0;
#X connect 1 0 11 0;
#X connect 1 1 12 0;
#X connect 4 0 2 0;
#X connect 6 0 10 0;
#X connect 7 0 8 0;
#X connect 8 0 5 0;
#X connect 8 1 12 0;
#X connect 9 0 5 0;
#X connect 9 1 11 1;
#X connect 10 0 9 0;
#X connect 11 0 4 0;
#X connect 12 0 4 1;
#X restore 297 244 pd stream2;
#N canvas 6 49 450 300 audio3 0;
#X obj 61 39 inlet;
#X obj 61 61 t b b b;
#X obj 61 127 outlet;
#X text 63 147 bufsize channels dacoffset;
#X obj 202 24 r \$0-audio:bufsize;
#X obj 202 46 t b f;
#X obj 309 152 outlet activeChange;
#X obj 252 65 t b f;
#X obj 302 86 t b f;
#X obj 252 44 r \$0-audio:channels;
#X obj 302 64 r \$0-audio:dacoffset;
#X obj 61 83 i \$7;
#X obj 61 105 pack \$7 \$8 \$9;
#X connect 0 0 1 0;
#X connect 1 0 11 0;
#X connect 4 0 5 0;
#X connect 5 0 6 0;
#X connect 5 1 11 1;
#X connect 7 0 6 0;
#X connect 7 1 12 1;
#X connect 8 0 6 0;
#X connect 8 1 12 2;
#X connect 9 0 7 0;
#X connect 10 0 8 0;
#X connect 11 0 12 0;
#X connect 12 0 2 0;
#X restore 377 244 pd audio3;
#X obj 297 266 list append;
#X obj 197 266 list append;
#X obj 437 276 t b;
#X obj 437 298 del 0;
#X msg 197 454 \$6 \$7;
#X msg 241 75 bang;
#X obj 197 404 t l l;
#N canvas 575 211 665 276 createreceiver 0;
#X obj 14 3 inlet;
#X obj 59 256 outlet;
#X text 125 6 1:<transport> 2:<port> 3:<protocol> 4:<profile> 5:<bufsize>
6:<channels> 7:<dacoffset>;
#X obj 59 44 t l l;
#X obj 59 66 list split 2;
#X obj 99 87 list split 1;
#X obj 59 109 list append;
#X obj 59 168 list prepend obj 100 100 STREAMrtpreceiver;
#X msg 350 116 list obj 100 100 STREAM\$3receiver;
#X obj 59 190 list trim;
#X obj 59 131 list prepend \$0;
#X obj 14 25 t b l;
#X msg 14 227 loadbang;
#X connect 0 0 11 0;
#X connect 3 0 4 0;
#X connect 3 1 8 0;
#X connect 4 0 6 0;
#X connect 4 1 5 0;
#X connect 5 1 6 1;
#X connect 6 0 10 0;
#X connect 7 0 9 0;
#X connect 8 0 7 1;
#X connect 9 0 1 0;
#X connect 10 0 7 0;
#X connect 11 0 12 0;
#X connect 11 1 3 0;
#X connect 12 0 1 0;
#X restore 333 474 pd createreceiver;
#X obj 333 514 s \$0-receiver;
#X obj 333 494 t a;
#X obj 594 477 t a a;
#X obj 197 133 t b b;
#X obj 100 43 t b a b;
#X obj 76 65 suspendresumedsp;
#X connect 0 0 24 0;
#X connect 1 0 3 0;
#X connect 1 1 23 0;
#X connect 2 0 22 0;
#X connect 3 0 2 0;
#X connect 4 0 6 0;
#X connect 5 0 4 0;
#X connect 8 0 9 0;
#X connect 8 1 10 0;
#X connect 8 2 11 0;
#X connect 9 0 13 0;
#X connect 9 1 14 0;
#X connect 10 0 12 0;
#X connect 10 1 14 0;
#X connect 11 0 12 1;
#X connect 11 1 14 0;
#X connect 12 0 13 1;
#X connect 13 0 18 0;
#X connect 14 0 15 0;
#X connect 15 0 23 0;
#X connect 16 0 5 0;
#X connect 17 0 23 0;
#X connect 18 0 16 0;
#X connect 18 1 19 0;
#X connect 19 0 21 0;
#X connect 21 0 20 0;
#X connect 22 0 21 0;
#X connect 22 1 4 0;
#X connect 23 0 8 0;
#X connect 23 1 3 0;
#X connect 24 0 25 0;
#X connect 24 1 1 0;
#X connect 24 2 25 1;
#X restore 366 211 pd creator;
#X obj 30 302 sandbox \$0-output;
#X msg 155 302 vis 1;
#X text 50 66 [_STREAMRECVguts 1:\$0 2:<ID> 3:<transport> 4:<transportport>
5:<proto> 6:<profile> 7:<bufsize> 8:<channels> 9:<dacoffset>];
#X obj 147 356 oscprefix \$2;
#X obj 30 156 r WILMix->\$1;
#X obj 147 378 s \$1->WILMix;
#X obj 30 178 routeOSC \$2;
#X obj 265 318 s \$1->internal;
#X obj 30 273 sandbox \$0-receiver;
#X obj 30 200 s \$0-recv;
#N canvas 4 49 450 300 proxy 0;
#X obj 161 93 r \$0-timestamp;
#X obj 161 115 s \$1-timestamp;
#X connect 0 0 1 0;
#X restore 290 122 pd proxy;
#X msg 176 271 vis 1;
#X obj 546 144 r pd;
#X obj 546 166 route dsp;
#X floatatom 546 188 5 0 0 0 - - -;
#X connect 0 0 4 0;
#X connect 1 0 4 0;
#X connect 2 0 4 0;
#X connect 6 0 5 1;
#X connect 8 0 10 0;
#X connect 9 0 11 0;
#X connect 11 0 14 0;
#X connect 13 0 5 0;
#X connect 16 0 13 1;
#X connect 17 0 18 0;
#X connect 18 0 19 0;
