#N canvas 321 324 675 579 10;
#X obj 30 28 inlet control;
#X text 352 139 start <receiver> <port>;
#X text 353 155 stop;
#X obj 30 202 pack s f;
#X msg 30 224 disconnect \, connect \$1 \$2;
#X msg 95 250 disconnect;
#N canvas 489 245 646 662 creator 0;
#X obj 105 35 inlet;
#X obj 521 60 inlet reset;
#X obj 128 176 t b b b;
#N canvas 397 427 450 300 transport2 0;
#X obj 75 80 inlet;
#X obj 75 176 outlet;
#X text 75 196 transport port;
#X obj 75 102 t b;
#X obj 261 139 outlet activeChange;
#X obj 261 67 r \$0-transport:port;
#X obj 261 89 t b f;
#X obj 170 37 r \$0-transport:protocol;
#X obj 170 59 symbol;
#X obj 170 98 t b s;
#X obj 75 123 symbol \$1;
#X obj 75 154 pack s \$2;
#X text 147 124 udp;
#X text 150 155 0;
#X connect 0 0 3 0;
#X connect 3 0 10 0;
#X connect 5 0 6 0;
#X connect 6 0 4 0;
#X connect 6 1 11 1;
#X connect 7 0 8 0;
#X connect 8 0 9 0;
#X connect 9 0 4 0;
#X connect 9 1 10 1;
#X connect 10 0 11 0;
#X connect 11 0 1 0;
#X restore 128 202 pd transport2;
#N canvas 331 558 508 277 stream2 0;
#X obj 53 35 inlet;
#X obj 53 57 t b b b;
#X obj 53 171 outlet;
#X text 48 194 protocol profile;
#X obj 53 149 pack s s;
#X obj 294 180 outlet activeChange;
#X obj 229 28 r \$0-stream:protocol;
#X obj 294 51 r \$0-stream:profile;
#X obj 294 73 t b a;
#X obj 229 70 t b s;
#X obj 229 50 symbol;
#X obj 53 79 symbol \$3;
#X obj 75 105 symbol \$4;
#X text 149 105 L16;
#X text 126 81 rtp;
#X connect 0 0 1 0;
#X connect 1 0 11 0;
#X connect 1 1 12 0;
#X connect 4 0 2 0;
#X connect 6 0 10 0;
#X connect 7 0 8 0;
#X connect 8 0 5 0;
#X connect 8 1 12 0;
#X connect 9 0 5 0;
#X connect 9 1 11 1;
#X connect 10 0 9 0;
#X connect 11 0 4 0;
#X connect 12 0 4 1;
#X restore 228 202 pd stream2;
#N canvas 347 461 554 345 audio3 0;
#X obj 61 39 inlet;
#X obj 61 61 t b b b;
#X obj 61 127 outlet;
#X text 63 147 bufsize channels dacoffset;
#X obj 202 46 t b f;
#X obj 309 152 outlet activeChange;
#X obj 252 65 t b f;
#X obj 252 44 r \$0-audio:channels;
#X obj 202 24 r \$0-audio:bufsize;
#X obj 61 83 i \$5;
#X obj 61 105 pack \$5 \$6;
#X connect 0 0 1 0;
#X connect 1 0 9 0;
#X connect 4 0 5 0;
#X connect 4 1 9 1;
#X connect 6 0 5 0;
#X connect 6 1 10 1;
#X connect 7 0 6 0;
#X connect 8 0 4 0;
#X connect 9 0 10 0;
#X connect 10 0 2 0;
#X restore 308 202 pd audio3;
#X obj 228 224 list append;
#X obj 128 224 list append;
#X obj 368 234 t b;
#X obj 368 256 del 0;
#X msg 397 234 stop;
#X obj 128 141 t b b;
#X obj 128 255 t a b;
#X obj 128 483 s \$0-payloader;
#X msg 230 24 bang;
#X msg 521 294 clear;
#X obj 521 108 t b b;
#X text 133 299 1:\$0 2:<transport> 3:<port> 4:<protocol> 5:<profile>
6:<bufsize> 7:<channels>;
#X obj 128 277 list prepend \$0;
#X msg 128 371 obj 100 100 _WILMA/STREAMERguts \$1 \$4 \$5 \$7 128
\, obj 100 150 _WILMA/\$2_packetsender \$3 \, obj 100 80 r \$1-control2payloader
\, obj 200 130 r \$1-control2sender \, obj 100 170 s \$1-sender2control
\, connect 0 0 1 0 \, connect 2 0 0 0 \, connect 3 0 1 1 \, connect
1 0 4 0;
#X obj 105 57 t b b b;
#X obj 105 79 suspendresumedsp;
#X connect 0 0 20 0;
#X connect 1 0 16 0;
#X connect 2 0 3 0;
#X connect 2 1 4 0;
#X connect 2 2 5 0;
#X connect 3 0 7 0;
#X connect 3 1 8 0;
#X connect 4 0 6 0;
#X connect 4 1 8 0;
#X connect 5 0 6 1;
#X connect 5 1 8 0;
#X connect 6 0 7 1;
#X connect 7 0 12 0;
#X connect 8 0 9 0;
#X connect 9 0 11 0;
#X connect 10 0 9 0;
#X connect 11 0 2 0;
#X connect 11 1 16 0;
#X connect 12 0 18 0;
#X connect 14 0 20 0;
#X connect 15 0 13 0;
#X connect 16 0 15 0;
#X connect 16 1 10 0;
#X connect 18 0 19 0;
#X connect 19 0 13 0;
#X connect 20 0 21 0;
#X connect 20 1 11 0;
#X connect 20 2 21 1;
#X restore 350 113 pd creator;
#X obj 350 52 loadbang;
#X obj 55 520 outlet data;
#X obj 30 246 t a a;
#X obj 70 283 print \$0-ctl;
#X msg 428 113 reset;
#X msg 430 51 bang;
#X msg 591 249 vis 1;
#N canvas 6 49 450 300 input~ 0;
#X obj 220 94 adc~ 1 2 3 4;
#X obj 220 116 s~ \$0-1;
#X obj 246 136 s~ \$0-2;
#X obj 273 156 s~ \$0-3;
#X obj 300 176 s~ \$0-4;
#X obj 148 118 env~;
#X floatatom 148 140 5 0 0 0 - - -;
#X obj 245 223 outlet~ dummy;
#X connect 0 0 1 0;
#X connect 0 0 5 0;
#X connect 0 1 2 0;
#X connect 0 2 3 0;
#X connect 0 3 4 0;
#X connect 5 0 6 0;
#X restore 414 228 pd input~;
#X obj 30 100 route /start /stop /destination;
#X obj 414 249 sandbox \$0-payloader \$0;
#N canvas 6 49 450 300 proxy 0;
#X obj 58 41 r _pcmtimestamp;
#X msg 58 63 timestamp \$1 \$2;
#X obj 58 85 s \$0-payloadcontrol;
#X obj 245 43 r \$0-payloader:start;
#X msg 245 65 auto \$1;
#X obj 245 87 s \$0-control2payloader;
#X connect 0 0 1 0;
#X connect 1 0 2 0;
#X connect 3 0 4 0;
#X connect 4 0 5 0;
#X restore 231 495 pd proxy;
#X obj 30 306 s \$0-control2sender;
#N canvas 6 49 647 293 reconfigure 0;
#X obj 67 36 inlet;
#X obj 442 104 outlet reject;
#X obj 67 133 s \$0-transport:protocol;
#X obj 67 155 s \$0-transport:port;
#X obj 67 177 s \$0-stream:protocol;
#X obj 67 199 s \$0-stream:profile;
#X obj 67 80 routeOSC /protocol /port;
#X obj 232 102 oscprefix /transport;
#X obj 67 59 routeOSC /transport /protocol /profile /channels;
#X obj 315 178 s \$0-audio:channels;
#X obj 315 153 t f f;
#X connect 0 0 8 0;
#X connect 6 0 2 0;
#X connect 6 1 3 0;
#X connect 6 2 7 0;
#X connect 7 0 1 0;
#X connect 8 0 6 0;
#X connect 8 1 4 0;
#X connect 8 2 5 0;
#X connect 8 3 10 0;
#X connect 8 4 1 0;
#X connect 10 0 9 0;
#X restore 30 50 pd reconfigure;
#X obj 95 201 t b b;
#X obj 30 122 t b;
#X msg 179 252 1;
#X obj 179 274 s \$0-payloader:start;
#X msg 216 253 0;
#X connect 0 0 19 0;
#X connect 3 0 4 0;
#X connect 4 0 9 0;
#X connect 5 0 9 0;
#X connect 7 0 6 0;
#X connect 9 0 18 0;
#X connect 9 1 10 0;
#X connect 11 0 6 1;
#X connect 12 0 6 0;
#X connect 13 0 16 1;
#X connect 14 0 16 0;
#X connect 15 0 21 0;
#X connect 15 1 20 0;
#X connect 15 2 3 0;
#X connect 19 0 15 0;
#X connect 20 1 24 0;
#X connect 21 0 22 0;
#X connect 22 0 23 0;
#X connect 24 0 23 0;
