#N canvas 333 150 735 300 10;
#X text 49 39 [_STREAMRECVguts 1:<ID> 2:<proto> 3:<profile> 4:<bufsize>
5:<channels> 6:<dacoffset>];
#X obj 366 187 loadbang;
#X msg 449 186 bang;
#X msg 475 245 reset;
#X text 520 245 clear for saving!;
#N canvas 5 49 450 300 proxydata 0;
#X obj 210 103 r \$0-timestamp;
#X obj 210 125 s \$1-timestamp;
#X obj 89 125 s \$0-payload;
#X obj 89 103 r \$1-payload;
#X connect 0 0 1 0;
#X connect 3 0 2 0;
#X restore 407 89 pd proxydata;
#N canvas 550 49 726 604 creator 0;
#X obj 100 61 inlet bang;
#X obj 100 84 route reset;
#X msg 609 455 clear;
#X obj 609 130 t b;
#X obj 334 494 t a;
#N canvas 1350 167 747 776 createoutputs 0;
#X obj 93 531 t a;
#X obj 266 180 t s b;
#X msg 310 180 symbol;
#X obj 266 202 select symbol;
#X obj 266 246 t s;
#X obj 93 213 until;
#X obj 93 235 i;
#X obj 93 257 t f f;
#X obj 123 235 + 1;
#X obj 93 338 * 30;
#X obj 93 360 + 50;
#X obj 266 155 symbol;
#X obj 93 171 t f b;
#X obj 93 193 t f b;
#X msg 135 213 0;
#X obj 266 224 symbol \$0-;
#X obj 93 553 outlet;
#X obj 93 17 inlet channels dacoffset recprefix;
#X obj 93 39 unpack 0 0 s;
#X text 120 410 1:<y> 2:<recID> 3:<dacID> 4:<recprefix> 5:<recnum>
6:<dacnum>;
#X msg 93 452 obj 100 \$1 r~ \$4\$5 \, obj 200 \$1 dac~ \$6 \, connect
\$2 0 \$3 0;
#X obj 93 382 pack 0 0 0 s 0 0;
#X obj 93 279 t f f f;
#X obj 292 334 t f f;
#X obj 324 356 +;
#X obj 134 316 * 2;
#X obj 134 338 t f f;
#X obj 166 360 + 1;
#X connect 0 0 16 0;
#X connect 1 0 3 0;
#X connect 1 1 2 0;
#X connect 2 0 3 1;
#X connect 3 0 15 0;
#X connect 3 1 4 0;
#X connect 4 0 21 3;
#X connect 5 0 6 0;
#X connect 6 0 7 0;
#X connect 7 0 22 0;
#X connect 7 1 8 0;
#X connect 8 0 6 1;
#X connect 9 0 10 0;
#X connect 10 0 21 0;
#X connect 11 0 1 0;
#X connect 12 0 13 0;
#X connect 12 1 11 0;
#X connect 13 0 5 0;
#X connect 13 1 14 0;
#X connect 14 0 6 1;
#X connect 15 0 4 0;
#X connect 17 0 18 0;
#X connect 18 0 12 0;
#X connect 18 1 24 1;
#X connect 18 2 11 1;
#X connect 20 0 0 0;
#X connect 21 0 20 0;
#X connect 22 0 9 0;
#X connect 22 1 25 0;
#X connect 22 2 23 0;
#X connect 23 0 21 4;
#X connect 23 1 24 0;
#X connect 24 0 21 5;
#X connect 25 0 26 0;
#X connect 26 0 21 1;
#X connect 26 1 27 0;
#X connect 27 0 21 2;
#X restore 334 474 pd createoutputs;
#X obj 334 514 s \$0-output;
#X obj 197 356 t l l l;
#X text 199 322 1:<transport> 2:<port> 3:<protocol> 4:<profile> 5:<bufsize>
6:<channels> 7:<dacoffset>;
#X obj 197 218 t b b b;
#N canvas 9 49 450 300 transport2 0;
#X obj 75 40 inlet;
#X obj 75 114 pack s 0;
#X obj 75 136 outlet;
#X text 75 156 transport port;
#X obj 75 62 t b;
#X obj 261 139 outlet activeChange;
#X obj 170 59 t b a;
#X obj 261 67 r \$0-transport:port;
#X obj 261 89 t b f;
#X obj 170 37 r \$0-transport:protocol;
#X obj 202 79 symbol;
#X obj 75 84 symbol \$2;
#X connect 0 0 4 0;
#X connect 1 0 2 0;
#X connect 4 0 11 0;
#X connect 6 0 5 0;
#X connect 6 1 10 0;
#X connect 7 0 8 0;
#X connect 8 0 5 0;
#X connect 8 1 1 1;
#X connect 9 0 6 0;
#X connect 10 0 11 1;
#X connect 11 0 1 0;
#X restore 197 244 pd transport2;
#N canvas 6 49 450 300 stream2 0;
#X obj 53 35 inlet;
#X obj 53 57 t b b b;
#X obj 53 79 symbol \$4;
#X obj 75 105 symbol \$5;
#X obj 53 171 outlet;
#X text 48 194 protocol profile;
#X obj 53 149 pack s s;
#X obj 294 180 outlet activeChange;
#X obj 229 28 r \$0-stream:protocol;
#X obj 294 51 r \$0-stream:profile;
#X obj 294 73 t b a;
#X obj 229 70 t b s;
#X obj 229 50 symbol;
#X connect 0 0 1 0;
#X connect 1 0 2 0;
#X connect 1 1 3 0;
#X connect 2 0 6 0;
#X connect 3 0 6 1;
#X connect 6 0 4 0;
#X connect 8 0 12 0;
#X connect 9 0 10 0;
#X connect 10 0 7 0;
#X connect 10 1 3 0;
#X connect 11 0 7 0;
#X connect 11 1 2 1;
#X connect 12 0 11 0;
#X restore 297 244 pd stream2;
#N canvas 5 49 450 300 audio3 0;
#X obj 61 39 inlet;
#X obj 61 61 t b b b;
#X obj 61 127 outlet;
#X text 63 147 bufsize channels dacoffset;
#X obj 61 83 i \$6;
#X obj 61 105 pack \$6 \$7 \$8;
#X obj 202 24 r \$0-audio:bufsize;
#X obj 202 46 t b f;
#X obj 309 152 outlet activeChange;
#X obj 252 65 t b f;
#X obj 302 86 t b f;
#X obj 252 44 r \$0-audio:channels;
#X obj 302 64 r \$0-audio:dacoffset;
#X connect 0 0 1 0;
#X connect 1 0 4 0;
#X connect 4 0 5 0;
#X connect 5 0 2 0;
#X connect 6 0 7 0;
#X connect 7 0 8 0;
#X connect 7 1 4 1;
#X connect 9 0 8 0;
#X connect 9 1 5 1;
#X connect 10 0 8 0;
#X connect 10 1 5 2;
#X connect 11 0 9 0;
#X connect 12 0 10 0;
#X restore 377 244 pd audio3;
#X obj 297 266 list append;
#X obj 197 266 list append;
#X obj 437 276 t b;
#X obj 437 298 del 0;
#X obj 609 477 t a;
#X obj 174 113 t b b b;
#X msg 174 414 loadbang;
#X msg 334 454 \$6 \$7;
#X msg 218 75 bang;
#X obj 334 404 t l l;
#X connect 0 0 1 0;
#X connect 1 0 3 0;
#X connect 1 1 18 0;
#X connect 2 0 17 0;
#X connect 3 0 2 0;
#X connect 4 0 6 0;
#X connect 5 0 4 0;
#X connect 7 0 22 0;
#X connect 9 0 10 0;
#X connect 9 1 11 0;
#X connect 9 2 12 0;
#X connect 10 0 14 0;
#X connect 10 1 15 0;
#X connect 11 0 13 0;
#X connect 11 1 15 0;
#X connect 12 0 13 1;
#X connect 12 1 15 0;
#X connect 13 0 14 1;
#X connect 14 0 7 0;
#X connect 15 0 16 0;
#X connect 16 0 18 0;
#X connect 17 0 4 0;
#X connect 18 0 19 0;
#X connect 18 1 9 0;
#X connect 18 2 3 0;
#X connect 19 0 17 0;
#X connect 20 0 5 0;
#X connect 21 0 18 0;
#X connect 22 0 20 0;
#X restore 366 211 pd creator;
#X text 50 66 [_STREAMRECVguts 1:<ID> 2:transport 3:<proto> 4:<profile>
5:<bufsize> 7:<channels> 7:<dacoffset>];
#X obj 104 209 sandbox \$0-output;
#X msg 239 207 vis 1;
#X obj 105 181 STREAM\$4receiver \$0 \$2 \$3 \$5 \$6 \$7;
#X connect 1 0 6 0;
#X connect 2 0 6 0;
#X connect 3 0 6 0;
#X connect 9 0 8 1;
#X connect 10 0 8 0;
