#N canvas 304 181 675 579 10;
#X obj 73 274 t f f;
#X obj 30 28 inlet control;
#X text 352 139 start <receiver> <port>;
#X text 353 155 stop;
#X obj 30 72 pack s f;
#X msg 30 94 disconnect \, connect \$1 \$2;
#X obj 95 71 t b;
#X msg 95 120 disconnect;
#X obj 73 211 r \$0-payload;
#N canvas 697 247 581 513 creator 0;
#X obj 38 35 inlet;
#X msg 244 198 clear;
#X msg 101 28 bang;
#X obj 38 139 t a b;
#X obj 38 183 list prepend \$0;
#X obj 38 57 route bang;
#X obj 105 79 t b a;
#X obj 322 43 inlet reset;
#X obj 322 65 t b;
#X obj 38 117 list prepend rtp L16 4 128;
#X obj 38 161 pack s s 4 128;
#X msg 38 223 obj 100 100 _WILMA/STREAMERguts \$1 \$2 \$3 \$4 \$5 \,
loadbang;
#X obj 38 273 s \$0-payloader;
#X connect 0 0 5 0;
#X connect 1 0 12 0;
#X connect 2 0 5 0;
#X connect 3 0 10 0;
#X connect 3 1 1 0;
#X connect 4 0 11 0;
#X connect 5 0 9 0;
#X connect 5 1 6 0;
#X connect 6 0 9 0;
#X connect 6 1 9 1;
#X connect 7 0 8 0;
#X connect 8 0 1 0;
#X connect 9 0 3 0;
#X connect 10 0 4 0;
#X connect 11 0 12 0;
#X restore 350 113 pd creator;
#X obj 350 52 loadbang;
#X msg 105 370 auto \$1;
#X obj 105 392 s \$0-control;
#X text 248 336 <- restart DSP;
#X text 249 356 since dynamic patching audio;
#X text 251 369 breaks DSP-chain;
#X obj 55 520 outlet data;
#X obj 55 426 r \$0-payload;
#X obj 55 448 list length;
#X obj 73 296 tgl 15 0 empty empty empty 17 7 0 10 -262144 -1 -1 0
1;
#X obj 30 116 t a a;
#X obj 70 153 print \$0-ctl;
#X msg 428 113 reset;
#X obj 55 470 change;
#X msg 55 492 /length \$1;
#X obj 254 223 r _pcmtimestamp;
#X msg 254 245 timestamp \$1 \$2;
#X obj 254 267 s \$0-control;
#X msg 516 78 rtp L16 4;
#X msg 592 92 rtp L16 4 128;
#N canvas 335 295 450 394 args 0;
#X obj 157 232 symbol rtp;
#X obj 234 232 symbol L16;
#X obj 125 40 inlet bang;
#X obj 157 209 t b b;
#X obj 124 256 pack 4 s s;
#X obj 125 62 t b b;
#X obj 180 159 route symbol;
#X obj 300 159 route symbol;
#X obj 125 86 t b b b;
#X obj 56 145 route float;
#X obj 56 167 select 0;
#X obj 56 189 t b;
#X msg 124 278 list \$2 \$3 \$1;
#X obj 124 300 outlet;
#X obj 180 137 list prepend \$3;
#X obj 300 137 list prepend \$4;
#X obj 56 123 list prepend \$5;
#X connect 0 0 4 1;
#X connect 1 0 4 2;
#X connect 2 0 5 0;
#X connect 3 0 0 0;
#X connect 3 1 1 0;
#X connect 4 0 12 0;
#X connect 5 0 8 0;
#X connect 5 1 3 0;
#X connect 6 0 0 0;
#X connect 7 0 1 0;
#X connect 8 0 16 0;
#X connect 8 1 14 0;
#X connect 8 2 15 0;
#X connect 9 0 10 0;
#X connect 9 1 11 0;
#X connect 10 0 11 0;
#X connect 10 1 4 0;
#X connect 11 0 4 0;
#X connect 12 0 13 0;
#X connect 14 0 6 0;
#X connect 15 0 7 0;
#X connect 16 0 9 0;
#X restore 350 74 pd args;
#X msg 430 51 bang;
#X obj 73 252 \$1_packetsender;
#X obj 414 249 sandbox \$0-payloader;
#X msg 561 249 vis 1;
#N canvas 4 49 450 300 input~ 0;
#X obj 220 94 adc~ 1 2 3 4;
#X obj 220 116 s~ \$0-1;
#X obj 246 136 s~ \$0-2;
#X obj 273 156 s~ \$0-3;
#X obj 300 176 s~ \$0-4;
#X obj 148 118 env~;
#X floatatom 148 140 5 0 0 0 - - -;
#X obj 245 223 outlet~ dummy;
#X connect 0 0 1 0;
#X connect 0 0 5 0;
#X connect 0 1 2 0;
#X connect 0 2 3 0;
#X connect 0 3 4 0;
#X connect 5 0 6 0;
#X restore 414 228 pd input~;
#X obj 30 50 route /start /stop /destination;
#X connect 0 0 19 0;
#X connect 0 1 11 0;
#X connect 1 0 36 0;
#X connect 4 0 5 0;
#X connect 5 0 20 0;
#X connect 6 0 7 0;
#X connect 7 0 20 0;
#X connect 8 0 32 0;
#X connect 10 0 30 0;
#X connect 11 0 12 0;
#X connect 17 0 18 0;
#X connect 18 0 23 0;
#X connect 20 0 32 1;
#X connect 20 1 21 0;
#X connect 22 0 9 1;
#X connect 23 0 24 0;
#X connect 24 0 16 0;
#X connect 25 0 26 0;
#X connect 26 0 27 0;
#X connect 28 0 9 0;
#X connect 29 0 9 0;
#X connect 30 0 9 0;
#X connect 31 0 30 0;
#X connect 32 0 0 0;
#X connect 34 0 33 1;
#X connect 35 0 33 0;
#X connect 36 0 4 0;
#X connect 36 1 6 0;
#X connect 36 2 4 0;
