#N canvas 80 58 889 461 10;
#N canvas 98 94 749 755 createreceivers 0;
#X obj 89 187 t a b;
#X msg 324 548 clear;
#N canvas 5 49 450 300 serizalize 0;
#X obj 78 202 list split 1;
#X obj 78 119 until;
#X obj 78 157 list append;
#X obj 208 202 bang;
#X obj 104 62 inlet;
#X obj 78 224 outlet;
#X obj 104 86 t b a;
#X connect 0 0 5 0;
#X connect 0 1 2 1;
#X connect 0 2 3 0;
#X connect 1 0 2 0;
#X connect 2 0 0 0;
#X connect 3 0 1 1;
#X connect 4 0 6 0;
#X connect 6 0 1 0;
#X connect 6 1 2 1;
#X restore 89 260 pd serizalize;
#X obj 89 282 t a b;
#X obj 121 304 i;
#X obj 121 326 t f f;
#X obj 152 304 + 4;
#X obj 89 215 t a b;
#X obj 89 514 t l b;
#X obj 89 237 t a b;
#X msg 139 239 0;
#X obj 149 523 i;
#X obj 149 546 t f f;
#X obj 180 523 + 30;
#X obj 89 628 list trim;
#X obj 149 568 + 100;
#X msg 387 606 obj 100 \$1 STREAMRECVRguts;
#X obj 34 27 inlet;
#X obj 57 159 t b a;
#X msg 57 652 loadbang;
#X obj 324 35 inlet reset;
#X obj 89 683 t a;
#N canvas 8 49 450 300 transport 0;
#X obj 60 31 inlet bang;
#X obj 60 135 outlet transport|port;
#X obj 60 53 t b;
#X obj 60 75 symbol udp;
#X obj 60 97 pack s 0;
#X obj 254 134 outlet activeChange;
#X obj 170 59 t b a;
#X obj 261 67 r \$0-transport:port;
#X obj 261 89 t b f;
#X obj 170 37 r \$0-transport:protocol;
#X obj 202 79 symbol;
#X connect 0 0 2 0;
#X connect 2 0 3 0;
#X connect 3 0 4 0;
#X connect 4 0 1 0;
#X connect 6 0 5 0;
#X connect 6 1 10 0;
#X connect 7 0 8 0;
#X connect 8 0 5 0;
#X connect 8 1 4 1;
#X connect 9 0 6 0;
#X connect 10 0 3 1;
#X restore 163 366 pd transport;
#N canvas 8 49 645 300 stream 0;
#X obj 84 25 inlet;
#X obj 84 47 t b b;
#X obj 84 69 symbol rtp;
#X obj 84 153 outlet;
#X obj 160 69 symbol L16;
#X obj 272 184 outlet activeChange;
#X obj 84 91 pack s s 32768;
#X text 92 139 protocol profile buffersize;
#X obj 335 28 r \$0-stream:protocol;
#X obj 400 51 r \$0-stream:profile;
#X obj 400 73 t b a;
#X obj 335 70 t b s;
#X obj 335 50 symbol;
#X obj 481 103 r \$0-audio:bufsize;
#X obj 481 125 t b f;
#X connect 0 0 1 0;
#X connect 1 0 2 0;
#X connect 1 1 4 0;
#X connect 2 0 6 0;
#X connect 4 0 6 1;
#X connect 6 0 3 0;
#X connect 8 0 12 0;
#X connect 9 0 10 0;
#X connect 10 0 5 0;
#X connect 10 1 4 0;
#X connect 11 0 5 0;
#X connect 11 1 2 1;
#X connect 12 0 11 0;
#X connect 13 0 14 0;
#X connect 14 0 5 0;
#X connect 14 1 6 2;
#X restore 257 366 pd stream;
#N canvas 6 49 450 300 channels 0;
#X obj 74 35 inlet;
#X obj 74 57 t b;
#X obj 74 79 i 4;
#X obj 74 101 outlet;
#X obj 225 104 outlet activeChanged;
#X obj 225 30 r \$0-audio:channels;
#X obj 225 52 t b f;
#X connect 0 0 1 0;
#X connect 1 0 2 0;
#X connect 2 0 3 0;
#X connect 5 0 6 0;
#X connect 6 0 4 0;
#X connect 6 1 2 1;
#X restore 331 366 pd channels;
#X obj 163 344 t b b b;
#X obj 163 418 list append;
#X obj 257 418 list append;
#X obj 440 383 t b;
#X obj 331 388 t f f;
#X obj 89 440 list append;
#X obj 89 462 list append 0;
#X obj 57 99 t b a;
#X obj 57 121 list append;
#X obj 89 712 s \$0-receivers;
#X obj 89 606 list prepend obj 100 100 STREAMRECVguts;
#X text 219 474 \$0 <id> <transport> <port> <protocol> <profile> <bufsize>
<channels> <dacoffset>;
#X obj 89 484 list prepend \$0;
#X obj 34 49 t b a b;
#X obj 11 76 suspendresumedsp;
#X obj 440 405 del 0;
#X obj 324 248 t b b;
#X msg 467 383 stop;
#X connect 0 0 7 0;
#X connect 0 1 41 0;
#X connect 1 0 21 0;
#X connect 2 0 3 0;
#X connect 3 0 30 0;
#X connect 3 1 4 0;
#X connect 4 0 5 0;
#X connect 5 0 31 1;
#X connect 5 1 6 0;
#X connect 6 0 4 1;
#X connect 7 0 9 0;
#X connect 7 1 25 0;
#X connect 8 0 35 0;
#X connect 8 1 11 0;
#X connect 9 0 2 0;
#X connect 9 1 10 0;
#X connect 10 0 4 1;
#X connect 10 0 11 1;
#X connect 11 0 12 0;
#X connect 12 0 15 0;
#X connect 12 1 13 0;
#X connect 13 0 11 1;
#X connect 14 0 21 0;
#X connect 15 0 16 0;
#X connect 16 0 35 1;
#X connect 17 0 38 0;
#X connect 18 0 19 0;
#X connect 18 1 0 0;
#X connect 19 0 21 0;
#X connect 20 0 41 0;
#X connect 21 0 34 0;
#X connect 22 0 26 0;
#X connect 22 1 28 0;
#X connect 23 0 27 0;
#X connect 23 1 28 0;
#X connect 24 0 29 0;
#X connect 24 1 28 0;
#X connect 25 0 22 0;
#X connect 25 1 23 0;
#X connect 25 2 24 0;
#X connect 26 0 30 1;
#X connect 27 0 26 1;
#X connect 28 0 40 0;
#X connect 29 0 27 1;
#X connect 29 1 6 1;
#X connect 30 0 31 0;
#X connect 31 0 37 0;
#X connect 32 0 33 0;
#X connect 32 1 33 1;
#X connect 33 0 18 0;
#X connect 35 0 14 0;
#X connect 37 0 8 0;
#X connect 38 0 39 0;
#X connect 38 1 32 0;
#X connect 38 2 39 1;
#X connect 40 0 33 0;
#X connect 41 0 1 0;
#X connect 41 1 42 0;
#X connect 42 0 40 0;
#X restore 346 272 pd createreceivers;
#X msg 491 189 reset;
#X obj 271 51 inlet ctrl;
#X msg 187 165 vis 1;
#X text 51 42 args: none;
#X obj 561 386 outlet ->MINTmix;
#X obj 50 188 sandbox \$0-receivers;
#X obj 544 119 symbol \$0-;
#X symbolatom 544 141 10 0 0 0 - - -;
#X msg 544 95 bang;
#X obj 563 306 s WILMix->\$0;
#X msg 563 276 /foo/port 9876;
#X msg 573 246 /foo/port 9777;
#N canvas 12 49 824 337 stream 0;
#X obj 80 37 inlet;
#X obj 80 221 s \$0-transport:protocol;
#X obj 156 199 s \$0-transport:port;
#X obj 217 134 s \$0-stream:protocol;
#X obj 217 156 s \$0-stream:profile;
#X obj 79 59 route /transport/protocol /transport/port /protocol /profile
/channels /bufsize;
#X obj 376 158 s \$0-audio:bufsize;
#X obj 217 178 s \$0-audio:channels;
#X obj 445 108 outlet reject;
#X connect 0 0 5 0;
#X connect 5 0 1 0;
#X connect 5 1 2 0;
#X connect 5 2 3 0;
#X connect 5 3 4 0;
#X connect 5 4 7 0;
#X connect 5 5 6 0;
#X connect 5 6 8 0;
#X restore 271 219 pd stream;
#N canvas 11 49 450 300 receivers 0;
#X obj 114 39 inlet;
#X obj 114 65 s WILMix->\$0;
#X text 85 94 we don't know whether everybody rejected this!;
#X connect 0 0 1 0;
#X restore 436 102 pd receivers;
#X obj 561 339 r \$0->WILMix;
#X obj 561 361 list trim;
#X obj 583 412 sprint ->WILMix;
#X obj 271 73 routeOSC /stream /create;
#X msg 360 193 foo bar baz;
#X obj 155 351 STREAMRECVRsync \$0;
#X connect 1 0 0 1;
#X connect 2 0 18 0;
#X connect 3 0 6 1;
#X connect 7 0 8 0;
#X connect 9 0 7 0;
#X connect 11 0 10 0;
#X connect 12 0 10 0;
#X connect 15 0 16 0;
#X connect 16 0 5 0;
#X connect 18 0 13 0;
#X connect 18 1 0 0;
#X connect 18 2 14 0;
#X connect 19 0 0 0;
