#N canvas 281 417 889 461 10;
#X text 51 42 args: \$0 transport protocol profile channels;
#N canvas 435 135 749 755 createreceivers 0;
#X obj 89 137 t a b;
#X msg 324 498 clear;
#N canvas 5 49 450 300 serizalize 0;
#X obj 78 202 list split 1;
#X obj 78 119 until;
#X obj 78 157 list append;
#X obj 208 202 bang;
#X obj 104 62 inlet;
#X obj 78 224 outlet;
#X obj 104 86 t b a;
#X connect 0 0 5 0;
#X connect 0 1 2 1;
#X connect 0 2 3 0;
#X connect 1 0 2 0;
#X connect 2 0 0 0;
#X connect 3 0 1 1;
#X connect 4 0 6 0;
#X connect 6 0 1 0;
#X connect 6 1 2 1;
#X restore 89 210 pd serizalize;
#X obj 89 232 t a b;
#X obj 121 254 i;
#X obj 121 276 t f f;
#X obj 152 254 + 4;
#X obj 89 165 t a b;
#X obj 89 464 t l b;
#X obj 89 556 list prepend 100 100;
#X obj 89 187 t a b;
#X msg 139 189 0;
#X obj 149 473 i;
#X obj 149 496 t f f;
#X obj 180 473 + 30;
#X obj 89 578 list trim;
#X obj 149 518 + 100;
#X msg 235 559 obj 100 \$1 STREAMRECVRguts;
#X obj 57 27 inlet;
#X obj 57 109 t b a;
#X msg 57 602 loadbang;
#X obj 324 35 inlet reset;
#X obj 324 198 t b;
#X obj 89 633 t a;
#N canvas 5 49 450 300 transport 0;
#X obj 60 31 inlet bang;
#X obj 60 135 outlet transport|port;
#X obj 60 53 t b;
#X obj 60 75 symbol udp;
#X obj 60 97 pack s 0;
#X obj 254 134 outlet activeChange;
#X connect 0 0 2 0;
#X connect 2 0 3 0;
#X connect 3 0 4 0;
#X connect 4 0 1 0;
#X restore 163 316 pd transport;
#N canvas 6 49 450 300 stream 0;
#X obj 84 25 inlet;
#X obj 84 47 t b b;
#X obj 84 69 symbol rtp;
#X obj 84 153 outlet;
#X obj 160 69 symbol L16;
#X obj 272 184 outlet activeChange;
#X obj 84 91 pack s s 32768;
#X text 92 139 protocol profile buffersize;
#X connect 0 0 1 0;
#X connect 1 0 2 0;
#X connect 1 1 4 0;
#X connect 2 0 6 0;
#X connect 4 0 6 1;
#X connect 6 0 3 0;
#X restore 257 316 pd stream;
#N canvas 4 49 450 300 channels 0;
#X obj 74 35 inlet;
#X obj 74 57 t b;
#X obj 74 79 i 4;
#X obj 74 101 outlet;
#X obj 225 104 outlet activeChanged;
#X connect 0 0 1 0;
#X connect 1 0 2 0;
#X connect 2 0 3 0;
#X restore 331 316 pd channels;
#X obj 163 294 t b b b;
#X obj 163 368 list append;
#X obj 257 368 list append;
#X obj 440 333 t b;
#X obj 331 338 t f f;
#X obj 89 390 list append;
#X obj 89 412 list append 0;
#X obj 57 49 t b a;
#X obj 57 71 list append;
#X text 189 424 <id> <transport> <port> <protocol> <profile> <bufsize>
<channels> <dacoffset>;
#X obj 89 662 s \$0-receivers;
#X connect 0 0 7 0;
#X connect 0 1 22 0;
#X connect 1 0 23 0;
#X connect 2 0 3 0;
#X connect 3 0 32 0;
#X connect 3 1 4 0;
#X connect 4 0 5 0;
#X connect 5 0 33 1;
#X connect 5 1 6 0;
#X connect 6 0 4 1;
#X connect 7 0 10 0;
#X connect 7 1 27 0;
#X connect 8 0 9 0;
#X connect 8 1 12 0;
#X connect 9 0 15 0;
#X connect 10 0 2 0;
#X connect 10 1 11 0;
#X connect 11 0 4 1;
#X connect 11 0 12 1;
#X connect 12 0 13 0;
#X connect 13 0 16 0;
#X connect 13 1 14 0;
#X connect 14 0 12 1;
#X connect 15 0 23 0;
#X connect 16 0 17 0;
#X connect 17 0 9 1;
#X connect 18 0 34 0;
#X connect 19 0 20 0;
#X connect 19 1 0 0;
#X connect 20 0 23 0;
#X connect 21 0 22 0;
#X connect 22 0 1 0;
#X connect 23 0 37 0;
#X connect 24 0 28 0;
#X connect 24 1 30 0;
#X connect 25 0 29 0;
#X connect 25 1 30 0;
#X connect 26 0 31 0;
#X connect 26 1 30 0;
#X connect 27 0 24 0;
#X connect 27 1 25 0;
#X connect 27 2 26 0;
#X connect 28 0 32 1;
#X connect 29 0 28 1;
#X connect 30 0 35 0;
#X connect 31 0 29 1;
#X connect 31 1 6 1;
#X connect 32 0 33 0;
#X connect 33 0 8 0;
#X connect 34 0 35 0;
#X connect 34 1 35 1;
#X connect 35 0 19 0;
#X restore 301 193 pd createreceivers;
#X msg 301 164 foo bar baz;
#X msg 446 160 reset;
#X obj 518 154 inlet ctrl;
#X obj 518 176 route;
#X obj 50 188 sandbox \$0-receivers;
#X msg 187 165 vis 1;
#X connect 2 0 1 0;
#X connect 3 0 1 1;
#X connect 4 0 5 0;
#X connect 7 0 6 1;
