#N canvas 384 152 835 695 10;
#X obj 154 181 inlet syncRequest;
#X obj 209 318 s \$1-syncRequest;
#X obj 211 339 r \$1-syncCurrentTS;
#X text 74 89 find the minimum timestamp: TS=min(TSi);
#X text 75 69 query the current (playback) TS from each receiver: TSi
;
#X msg 192 203 1;
#X text 243 295 1:sync \, 0:freerunner;
#N canvas 289 77 576 456 minpair 0;
#X obj 91 15 inlet hi lo;
#X obj 343 66 inlet hi lo;
#X obj 91 370 outlet HImin LOmin;
#X obj 239 370 outlet which;
#X obj 91 127 t l l;
#X obj 91 329 list;
#X obj 91 294 select 0 1;
#X obj 91 272 t f f;
#X obj 124 329 list;
#X obj 343 130 t l l;
#X obj 91 351 t l;
#X obj 91 149 unpack;
#X obj 343 152 unpack;
#X obj 91 171 select;
#X obj 343 174 t f f;
#X obj 91 193 f;
#X obj 91 235 t f;
#X obj 91 213 >;
#X obj 130 213 >;
#X obj 91 107 list;
#X obj 91 57 route bang;
#X obj 97 83 t b l;
#X obj 343 88 route bang;
#X msg 343 110 65535 65535;
#X connect 0 0 20 0;
#X connect 1 0 22 0;
#X connect 4 0 11 0;
#X connect 4 1 5 1;
#X connect 5 0 10 0;
#X connect 6 0 5 0;
#X connect 6 1 8 0;
#X connect 7 0 6 0;
#X connect 7 1 3 0;
#X connect 8 0 10 0;
#X connect 9 0 12 0;
#X connect 9 1 8 1;
#X connect 10 0 2 0;
#X connect 11 0 13 0;
#X connect 11 1 15 1;
#X connect 12 0 14 0;
#X connect 12 1 17 1;
#X connect 13 0 15 0;
#X connect 13 1 18 0;
#X connect 14 0 13 1;
#X connect 14 1 18 1;
#X connect 15 0 17 0;
#X connect 16 0 7 0;
#X connect 17 0 16 0;
#X connect 18 0 16 0;
#X connect 19 0 4 0;
#X connect 20 0 19 0;
#X connect 20 1 21 0;
#X connect 21 0 19 0;
#X connect 21 1 19 1;
#X connect 22 0 23 0;
#X connect 22 1 9 0;
#X connect 23 0 9 0;
#X restore 211 431 pd minpair;
#X obj 186 483 list;
#X obj 211 453 t l l;
#X text 217 357 list <ID> <TShi> <TSlo>;
#N canvas 4 50 450 300 ID2back 0;
#X obj 129 140 list split 1;
#X obj 129 116 t l l;
#X obj 219 140 list split 1;
#X obj 169 165 list append;
#X obj 169 187 outlet;
#X obj 129 84 inlet;
#X connect 0 1 3 0;
#X connect 1 0 0 0;
#X connect 1 1 2 0;
#X connect 2 0 3 1;
#X connect 3 0 4 0;
#X connect 5 0 1 0;
#X restore 211 380 pd ID2back;
#X obj 278 409 t b b;
#X obj 285 576 s \$1-syncTS;
#X msg 253 526 \$1 \$2;
#X text 307 527 drop ID;
#X text 294 381 move ID out of the way;
#X text 85 22 args: 1:namespace (\$0);
#X text 75 111 tell all stream-receivers (in namespace) to adjust their
current playback to TS;
#X obj 186 282 t b f b;
#X obj 186 505 route bang;
#X msg 231 203 0;
#X obj 154 616 outlet;
#X obj 154 203 t f;
#X obj 111 183 tgl 15 0 empty empty empty 17 7 0 10 -262144 -1 -1 0
1;
#X obj 154 232 t f f;
#N canvas 103 111 656 565 timestamp 0;
#X obj 195 200 bang~;
#X msg 195 222 64;
#X obj 195 246 t f f;
#N canvas 6 50 450 379 timestamp_add 0;
#X text 192 16 timestamps: a*65536+b;
#X obj 225 104 unpack 0 0;
#X obj 207 282 outlet;
#X obj 207 236 +;
#X obj 207 178 t f f;
#X obj 207 200 >> 16;
#X obj 254 203 % 65536;
#X obj 207 260 pack;
#X obj 51 42 inlet increment;
#X obj 225 41 inlet timestamp;
#X obj 207 156 +;
#X connect 1 0 3 1;
#X connect 1 1 10 1;
#X connect 3 0 7 0;
#X connect 4 0 5 0;
#X connect 4 1 6 0;
#X connect 5 0 3 0;
#X connect 6 0 7 1;
#X connect 7 0 2 0;
#X connect 8 0 10 0;
#X connect 9 0 1 0;
#X connect 10 0 4 0;
#X restore 195 268 pd timestamp_add;
#X obj 386 213 inlet timestamp;
#X obj 195 289 t l l;
#X obj 170 507 outlet timestamp;
#X obj 170 325 list;
#X obj 170 92 inlet on/off;
#X obj 170 463 list prepend;
#N canvas 4 50 450 300 ts2osc 0;
#X obj 81 23 inlet hi lo;
#X obj 81 162 outlet hi . . lo;
#X obj 81 45 unpack 0 0;
#X obj 81 67 t f f;
#X obj 81 89 >> 8;
#X obj 121 112 & 255;
#X obj 81 112 & 255;
#X obj 81 134 pack 0 0 0 0;
#X obj 171 67 t f f;
#X obj 171 89 >> 8;
#X obj 211 112 & 255;
#X obj 171 112 & 255;
#X connect 0 0 2 0;
#X connect 2 0 3 0;
#X connect 2 1 8 0;
#X connect 3 0 4 0;
#X connect 3 1 5 0;
#X connect 4 0 6 0;
#X connect 5 0 7 1;
#X connect 6 0 7 0;
#X connect 7 0 1 0;
#X connect 8 0 9 0;
#X connect 8 1 10 0;
#X connect 9 0 11 0;
#X connect 10 0 7 3;
#X connect 11 0 7 2;
#X restore 170 432 pd ts2osc;
#X obj 251 386 loadbang;
#N canvas 314 321 450 300 /synched 0;
#X obj 68 36 inlet loadbang;
#X obj 68 98 packOSC;
#X obj 68 120 t l l;
#X obj 68 142 list split;
#X obj 174 105 list length;
#X obj 174 127 - 4;
#X obj 68 164 outlet;
#X connect 0 0 1 0;
#X connect 1 0 2 0;
#X connect 2 0 3 0;
#X connect 2 1 4 0;
#X connect 3 0 6 0;
#X connect 4 0 5 0;
#X connect 5 0 3 1;
#X restore 251 436 pd /synched;
#X msg 251 411 /stream/synched 0;
#X msg 20 371 /stream/synched *;
#X obj 20 92 inlet ping;
#X obj 20 139 f;
#X obj 20 114 t b;
#X obj 20 161 select 0 1;
#X connect 0 0 1 0;
#X connect 1 0 2 0;
#X connect 2 0 3 0;
#X connect 3 0 5 0;
#X connect 4 0 5 0;
#X connect 5 0 7 1;
#X connect 5 1 3 1;
#X connect 7 0 10 0;
#X connect 8 0 16 1;
#X connect 9 0 6 0;
#X connect 10 0 9 0;
#X connect 11 0 13 0;
#X connect 12 0 9 1;
#X connect 13 0 12 0;
#X connect 14 0 6 0;
#X connect 15 0 17 0;
#X connect 16 0 18 0;
#X connect 17 0 16 0;
#X connect 18 0 14 0;
#X connect 18 1 7 0;
#X restore 154 589 pd timestamp;
#X obj 253 548 t l l;
#X obj 406 170 inlet ping;
#X connect 0 0 23 0;
#X connect 2 0 11 0;
#X connect 5 0 23 0;
#X connect 7 0 9 0;
#X connect 8 0 20 0;
#X connect 9 0 8 1;
#X connect 9 1 7 1;
#X connect 11 0 7 0;
#X connect 12 0 7 1;
#X connect 12 1 8 1;
#X connect 14 0 27 0;
#X connect 19 0 8 0;
#X connect 19 1 1 0;
#X connect 19 2 12 0;
#X connect 20 1 14 0;
#X connect 21 0 23 0;
#X connect 23 0 25 0;
#X connect 24 0 23 0;
#X connect 25 0 26 1;
#X connect 25 1 19 0;
#X connect 26 0 22 0;
#X connect 27 0 26 2;
#X connect 27 1 13 0;
#X connect 28 0 26 0;
