#N canvas 335 246 725 577 10;
#X obj 154 181 inlet syncRequest;
#X obj 154 203 t b;
#X obj 177 318 s \$1-syncRequest;
#X obj 179 339 r \$1-syncCurrentTS;
#X text 74 89 find the minimum timestamp: TS=min(TSi);
#X text 75 69 query the current (playback) TS from each receiver: TSi
;
#X msg 154 248 1;
#X text 211 295 1:sync \, 0:freerunner;
#X msg 113 180 bang;
#N canvas 289 77 576 456 minpair 0;
#X obj 91 15 inlet hi lo;
#X obj 343 66 inlet hi lo;
#X obj 91 370 outlet HImin LOmin;
#X obj 239 370 outlet which;
#X obj 91 127 t l l;
#X obj 91 329 list;
#X obj 91 294 select 0 1;
#X obj 91 272 t f f;
#X obj 124 329 list;
#X obj 343 130 t l l;
#X obj 91 351 t l;
#X obj 91 149 unpack;
#X obj 343 152 unpack;
#X obj 91 171 select;
#X obj 343 174 t f f;
#X obj 91 193 f;
#X obj 91 235 t f;
#X obj 91 213 >;
#X obj 130 213 >;
#X obj 91 107 list;
#X obj 91 57 route bang;
#X obj 97 83 t b l;
#X obj 343 88 route bang;
#X msg 343 110 65535 65535;
#X connect 0 0 20 0;
#X connect 1 0 22 0;
#X connect 4 0 11 0;
#X connect 4 1 5 1;
#X connect 5 0 10 0;
#X connect 6 0 5 0;
#X connect 6 1 8 0;
#X connect 7 0 6 0;
#X connect 7 1 3 0;
#X connect 8 0 10 0;
#X connect 9 0 12 0;
#X connect 9 1 8 1;
#X connect 10 0 2 0;
#X connect 11 0 13 0;
#X connect 11 1 15 1;
#X connect 12 0 14 0;
#X connect 12 1 17 1;
#X connect 13 0 15 0;
#X connect 13 1 18 0;
#X connect 14 0 13 1;
#X connect 14 1 18 1;
#X connect 15 0 17 0;
#X connect 16 0 7 0;
#X connect 17 0 16 0;
#X connect 18 0 16 0;
#X connect 19 0 4 0;
#X connect 20 0 19 0;
#X connect 20 1 21 0;
#X connect 21 0 19 0;
#X connect 21 1 19 1;
#X connect 22 0 23 0;
#X connect 22 1 9 0;
#X connect 23 0 9 0;
#X restore 179 431 pd minpair;
#X obj 154 483 list;
#X obj 179 453 t l l;
#X text 185 357 list <ID> <TShi> <TSlo>;
#N canvas 4 49 450 300 ID2back 0;
#X obj 129 140 list split 1;
#X obj 129 116 t l l;
#X obj 219 140 list split 1;
#X obj 169 165 list append;
#X obj 169 187 outlet;
#X obj 129 84 inlet;
#X connect 0 1 3 0;
#X connect 1 0 0 0;
#X connect 1 1 2 0;
#X connect 2 0 3 1;
#X connect 3 0 4 0;
#X connect 5 0 1 0;
#X restore 179 380 pd ID2back;
#X obj 246 409 t b b;
#X obj 221 546 s \$1-syncTS;
#X msg 221 526 \$1 \$2;
#X text 275 527 drop ID;
#X text 262 381 move ID out of the way;
#X text 85 22 args: 1:namespace (\$0);
#X text 75 111 tell all stream-receivers (in namespace) to adjust their
current playback to TS;
#X obj 154 282 t b f b;
#X obj 154 505 route bang;
#X msg 193 248 0;
#X connect 0 0 1 0;
#X connect 1 0 6 0;
#X connect 3 0 13 0;
#X connect 6 0 21 0;
#X connect 8 0 1 0;
#X connect 9 0 11 0;
#X connect 10 0 22 0;
#X connect 11 0 10 1;
#X connect 11 1 9 1;
#X connect 13 0 9 0;
#X connect 14 0 9 1;
#X connect 14 1 10 1;
#X connect 16 0 15 0;
#X connect 21 0 10 0;
#X connect 21 1 2 0;
#X connect 21 2 14 0;
#X connect 22 1 16 0;
#X connect 23 0 21 0;
