#N canvas 398 532 580 304 10;
#X obj 85 148 rtpdepay~ \$4 \$6 \$5 \$1-;
#X obj 85 95 \$2_packetreceiver \$3;
#N canvas 5 49 450 300 depaycontrol 0;
#X obj 53 109 route /timestamp /channels /bufsize;
#X obj 53 131 list prepend timestamp;
#X msg 133 151 channels \$1;
#X msg 220 132 bufsize \$1;
#X obj 53 153 list trim;
#X obj 53 175 t a;
#X obj 53 79 inlet ctl;
#X obj 53 197 outlet ->depay;
#X obj 295 208 outlet reject;
#X connect 0 0 1 0;
#X connect 0 1 2 0;
#X connect 0 2 3 0;
#X connect 0 3 8 0;
#X connect 1 0 4 0;
#X connect 2 0 5 0;
#X connect 3 0 5 0;
#X connect 4 0 5 0;
#X connect 5 0 7 0;
#X connect 6 0 0 0;
#X restore 234 127 pd depaycontrol;
#N canvas 6 49 450 300 netcontrol 0;
#X obj 68 49 inlet;
#X msg 68 97 port \$1;
#X obj 68 75 route /port;
#X obj 68 119 outlet ctrl;
#X obj 213 126 outlet reject;
#X connect 0 0 2 0;
#X connect 1 0 3 0;
#X connect 2 0 1 0;
#X connect 2 1 4 0;
#X restore 85 75 pd netcontrol;
#X obj 85 170 outlet~ dummy;
#X obj 393 216 s \$1-timestamp;
#X obj 85 33 r \$1->recv;
#X obj 222 220 s recv->\$1;
#X connect 0 0 4 0;
#X connect 0 1 5 0;
#X connect 1 0 0 0;
#X connect 1 1 7 0;
#X connect 2 0 0 1;
#X connect 3 0 1 0;
#X connect 3 1 2 0;
#X connect 6 0 3 0;
