#N canvas 624 383 580 304 10;
#X obj 85 107 \$2_packetreceiver \$3;
#X obj 236 153 s \$1-timestamp;
#X obj 85 128 rtpdepay~ \$4 \$6 \$5 \$1-;
#X obj 85 150 outlet~;
#X obj 277 123 print \$1port;
#X connect 0 0 2 0;
#X connect 0 1 4 0;
#X connect 2 0 3 0;
#X connect 2 1 1 0;
