#N canvas 208 181 738 409 10;
#X obj 95 48 inlet resume;
#X obj 260 48 inlet suspend;
#X obj 411 123 r pd;
#X obj 411 145 route dsp;
#X obj 393 173 i;
#X obj 260 70 t b b;
#X obj 95 196 i;
#X obj 95 70 t b;
#X msg 95 240 \; pd dsp 1;
#X obj 95 218 select 1;
#X msg 260 92 \; pd dsp 0;
#X connect 0 0 7 0;
#X connect 1 0 5 0;
#X connect 2 0 3 0;
#X connect 3 0 4 1;
#X connect 4 0 6 1;
#X connect 5 0 10 0;
#X connect 5 1 4 0;
#X connect 6 0 9 0;
#X connect 7 0 6 0;
#X connect 9 0 8 0;
