#N canvas 215 153 738 409 10;
#X obj 95 138 inlet resume;
#X obj 260 138 inlet suspend;
#X obj 411 173 r pd;
#X obj 411 195 route dsp;
#X obj 393 263 i;
#X obj 260 210 t b b;
#X msg 95 320 \; pd dsp 1;
#X obj 95 298 select 1;
#X msg 260 232 \; pd dsp 0;
#X text 198 332 when running JACK (pd<0.44 \, probably pd>0.42) \,
this might actually be slower \, since "dsp 0" will stop jackclient
\, and "dsp 1" will start it again.;
#X text 173 317 NOTE:;
#X text 64 21 temporarily turn off DSP and turn it on later (if it
was running before);
#X text 65 53 this should speedup dynamic patching \, as the DSP-grph
only needs to be rebuild once.;
#X text 64 95 NOTE: for this abstraction to work properly \, it must
be created before DSP is turned on.;
#X text 55 167 bang: try to restore state;
#X text 102 179 before "suspend";
#X text 57 203 1: force DSP-on;
#X obj 95 276 i;
#X obj 411 218 t b f;
#X obj 260 160 spigot;
#X msg 313 160 1;
#X connect 0 0 17 0;
#X connect 1 0 19 0;
#X connect 2 0 3 0;
#X connect 3 0 18 0;
#X connect 4 0 17 1;
#X connect 5 0 8 0;
#X connect 5 1 4 0;
#X connect 7 0 6 0;
#X connect 17 0 7 0;
#X connect 18 0 20 0;
#X connect 18 1 4 1;
#X connect 19 0 5 0;
#X connect 20 0 19 1;
