#N canvas 388 239 704 339 10;
#X obj 119 73 i \$2;
#X msg 119 93 port \$1;
#X obj 228 137 route port;
#X obj 228 159 select -1;
#X msg 228 181 port;
#X obj 119 53 loadbang;
#X msg 332 210 /port \$1;
#X obj 332 243 outlet info;
#X obj 333 51 inlet control;
#X obj 119 215 outlet payload;
#X obj 119 113 tcpreceive;
#X obj 119 186 slipdec 65535;
#X text 347 69 FIXME: only accept packets from a certain host;
#X connect 0 0 1 0;
#X connect 1 0 10 0;
#X connect 2 0 3 0;
#X connect 3 0 4 0;
#X connect 3 1 6 0;
#X connect 4 0 10 0;
#X connect 5 0 0 0;
#X connect 6 0 7 0;
#X connect 10 0 11 0;
#X connect 10 3 2 0;
#X connect 11 0 9 0;
