#N canvas 589 203 450 300 10;
#X obj 78 144 t f f;
#X obj 78 60 spigot;
#X obj 78 38 inlet data;
#X obj 238 38 inlet control;
#X obj 78 166 outlet info;
#X obj 78 100 slipenc;
#X obj 78 122 tcpsend;
#X connect 0 0 4 0;
#X connect 0 1 1 1;
#X connect 1 0 5 0;
#X connect 2 0 1 0;
#X connect 3 0 6 0;
#X connect 5 0 6 0;
#X connect 6 0 0 0;
