#N canvas 4 49 529 637 10;
#X obj 63 143 inlet TS;
#X obj 220 142 inlet now;
#X obj 63 281 / 64;
#X obj 63 303 int;
#X text 72 323 blocks to delay;
#X obj 63 581 outlet;
#X obj 63 465 moses 0;
#X msg 63 539 0;
#X obj 108 258 r _WILMA_blocksize;
#X obj 63 355 * 64;
#X text 78 375 samples to delay;
#X obj 108 280 t f f;
#X obj 63 444 moses 480000;
#N canvas 826 550 450 300 TS-now 0;
#X obj 63 197 outlet deltaT;
#X obj 63 40 inlet TS;
#X obj 220 40 inlet now;
#X obj 63 73 unpack 0 0;
#X obj 220 73 unpack 0 0;
#X obj 63 125 -;
#X obj 63 147 * 65536;
#X obj 130 125 -;
#X obj 63 169 +;
#X connect 1 0 3 0;
#X connect 2 0 4 0;
#X connect 3 0 5 0;
#X connect 3 1 7 0;
#X connect 4 0 5 1;
#X connect 4 1 7 1;
#X connect 5 0 6 0;
#X connect 6 0 8 0;
#X connect 7 0 8 1;
#X connect 8 0 0 0;
#X restore 63 230 pd TS-now;
#X obj 272 401 list prepend;
#X obj 367 399 list prepend;
#X obj 109 515 t f b;
#X obj 63 514 t b b;
#X obj 63 561 t f f;
#N canvas 9 50 627 381 debug 0;
#X obj 101 72 inlet offset;
#X obj 281 77 inlet TS;
#X obj 361 75 inlet now;
#X obj 281 140 pack 0 0 0 0;
#X obj 281 99 unpack;
#X obj 351 106 unpack;
#X obj 101 94 t f;
#X obj 101 204 route 0;
#X msg 101 226 missed \$1/\$2 < \$3/\$4;
#X msg 268 226 start @\$1: \$2/\$3 >= \$4/\$5;
#X obj 101 182 list append 0 0 0 0;
#X obj 101 266 logger 40 recording;
#X connect 0 0 6 0;
#X connect 1 0 4 0;
#X connect 2 0 5 0;
#X connect 3 0 10 1;
#X connect 4 0 3 0;
#X connect 4 1 3 1;
#X connect 5 0 3 2;
#X connect 5 1 3 3;
#X connect 6 0 10 0;
#X connect 7 0 8 0;
#X connect 7 1 9 0;
#X connect 8 0 11 0;
#X connect 9 0 11 0;
#X connect 10 0 7 0;
#X restore 164 594 pd debug;
#X obj 63 165 t a a a;
#X obj 220 164 t a a a;
#X obj 367 452 outlet usedTS;
#X text 54 109 if the TS has been missed (or is too far off) \, the
event will be sceduled immediately (0ms delay);
#X text 70 22 inlet#1: timestamp to schedule event at;
#X text 70 52 outlet#1: delay in [ms] \, when timestamp should happen
;
#X text 70 37 inlet#2: current timestamp;
#X text 70 67 outlet#2: actual timestamp of the event;
#X text 53 4 [tsdeltime]: get delay for a given TimeStamp;
#X connect 0 0 20 0;
#X connect 1 0 21 0;
#X connect 2 0 3 0;
#X connect 3 0 9 0;
#X connect 6 0 17 0;
#X connect 6 1 16 0;
#X connect 7 0 18 0;
#X connect 8 0 11 0;
#X connect 9 0 12 0;
#X connect 11 0 2 1;
#X connect 11 1 9 1;
#X connect 12 0 6 0;
#X connect 12 1 17 0;
#X connect 13 0 2 0;
#X connect 14 0 22 0;
#X connect 15 0 22 0;
#X connect 16 0 18 0;
#X connect 16 1 14 0;
#X connect 17 0 7 0;
#X connect 17 1 15 0;
#X connect 18 0 5 0;
#X connect 18 1 19 0;
#X connect 20 0 13 0;
#X connect 20 1 14 1;
#X connect 20 2 19 1;
#X connect 21 0 13 1;
#X connect 21 1 15 1;
#X connect 21 2 19 2;
