#N canvas 1284 321 718 584 10;
#X obj 105 77 inlet ts;
#X obj 105 476 outlet ts;
#X text 44 28 check if we receive consecutive 0:0 timestamps.;
#X text 47 43 if so \, fake the TS;
#X obj 105 99 t l l;
#X obj 105 121 +;
#X obj 105 143 == 0;
#X obj 105 233 list;
#X text 219 65 if((TS1==0)&&(TS0==0))then TS=TS+1 \; else TS=TS1;
#X obj 105 164 t f f;
#X obj 105 187 *;
#X obj 105 209 select 0 1;
#X obj 207 278 + \$1;
#X obj 207 300 t f f;
#X obj 140 365 +;
#X obj 140 388 % 65536;
#X obj 140 233 list prepend 0 0;
#X obj 140 255 unpack 0 0;
#X obj 140 410 pack;
#X obj 207 324 >> 16;
#X obj 267 322 & 65535;
#X obj 140 432 t l l;
#X msg 275 221 65000 0;
#X msg 348 230 0 0;
#X connect 0 0 4 0;
#X connect 4 0 5 0;
#X connect 4 1 7 1;
#X connect 5 0 6 0;
#X connect 6 0 9 0;
#X connect 7 0 1 0;
#X connect 9 0 10 1;
#X connect 9 1 10 0;
#X connect 10 0 11 0;
#X connect 11 0 7 0;
#X connect 11 1 16 0;
#X connect 12 0 13 0;
#X connect 13 0 19 0;
#X connect 13 1 20 0;
#X connect 14 0 15 0;
#X connect 15 0 18 0;
#X connect 16 0 17 0;
#X connect 17 0 14 0;
#X connect 17 1 12 0;
#X connect 18 0 21 0;
#X connect 19 0 14 1;
#X connect 20 0 18 1;
#X connect 21 0 1 0;
#X connect 21 1 16 1;
#X connect 22 0 16 1;
#X connect 23 0 16 1;
