#N canvas 588 207 450 300 10;
#X obj 78 82 udpsend;
#X obj 78 104 t f f;
#X obj 78 60 spigot;
#X obj 78 38 inlet data;
#X obj 238 38 inlet control;
#X obj 78 126 outlet info;
#X connect 0 0 1 0;
#X connect 1 0 5 0;
#X connect 1 1 2 1;
#X connect 2 0 0 0;
#X connect 3 0 2 0;
#X connect 4 0 0 0;
