#N canvas 590 199 450 300 10;
#X obj 78 82 udpsend;
#X obj 78 60 spigot;
#X obj 78 38 inlet data;
#X obj 238 38 inlet control;
#X obj 78 126 outlet info;
#X obj 78 104 t f f f;
#X obj 137 105 tgl 15 0 empty empty empty 17 7 0 10 -262144 -1 -1 1
1;
#X connect 0 0 5 0;
#X connect 1 0 0 0;
#X connect 2 0 1 0;
#X connect 3 0 0 0;
#X connect 5 0 4 0;
#X connect 5 1 1 1;
#X connect 5 2 6 0;
