#N canvas 396 207 768 304 10;
#X msg 119 93 port \$1;
#X obj 228 157 route port;
#X obj 228 179 select -1;
#X msg 228 201 port;
#X obj 119 53 loadbang;
#X obj 332 243 outlet info;
#X obj 264 48 inlet control;
#X obj 119 238 outlet payload;
#X text 364 51 FIXME: only accept packages from a certain host;
#X text 309 182 if port assignment failed (-1) \, assign a random valid
port;
#X obj 119 73 i \$1;
#X obj 264 70 route port;
#X obj 119 115 t a a;
#X obj 228 137 t a a;
#X obj 119 136 udpreceive;
#X msg 332 210 /port \$1;
#X connect 0 0 12 0;
#X connect 1 0 2 0;
#X connect 2 0 3 0;
#X connect 2 1 15 0;
#X connect 3 0 12 0;
#X connect 4 0 10 0;
#X connect 6 0 11 0;
#X connect 10 0 0 0;
#X connect 11 0 10 0;
#X connect 12 0 14 0;
#X connect 13 0 1 0;
#X connect 14 0 7 0;
#X connect 14 2 13 0;
#X connect 15 0 5 0;
