#N canvas 385 251 768 304 10;
#X obj 119 113 udpreceive 12345;
#X obj 119 73 i \$2;
#X msg 119 93 port \$1;
#X obj 228 137 route port;
#X obj 228 159 select -1;
#X msg 228 181 port;
#X obj 119 53 loadbang;
#X msg 332 210 /port \$1;
#X obj 332 243 outlet info;
#X obj 333 51 inlet control;
#X obj 119 238 outlet payload;
#X text 313 76 FIXME: only accept packages from a certain host;
#X text 327 157 if port assignment failed (-1) \, assign a random valid
port;
#X connect 0 0 10 0;
#X connect 0 2 3 0;
#X connect 1 0 2 0;
#X connect 2 0 0 0;
#X connect 3 0 4 0;
#X connect 4 0 5 0;
#X connect 4 1 7 0;
#X connect 5 0 0 0;
#X connect 6 0 1 0;
#X connect 7 0 8 0;
