#N canvas 140 517 768 392 10;
#N canvas 338 75 450 300 _\$0-patch 0;
#X restore 110 60 pd _\$0-patch;
#X obj 78 227 outlet;
#X obj 77 136 inlet;
#X text 544 104 4 inlet~s \, 8 outlet~s;
#N canvas 432 68 816 468 rebuild 0;
#X msg 353 134 clear;
#X obj 191 214 s pd-_\$0-patch;
#X obj 101 43 inlet;
#X text 339 14 0.. patch;
#X text 339 29 1.. r messages;
#X text 339 45 2.. s messages;
#X text 339 61 3.. adc;
#X text 339 78 4.. dac;
#X obj 191 134 swap;
#N canvas 627 448 501 402 inlet~ 0;
#X obj 82 42 inlet num;
#X obj 82 334 outlet create;
#X obj 82 64 t f f;
#X obj 286 137 until;
#X obj 286 159 i;
#X obj 286 181 + 1;
#X obj 286 203 t f f;
#X obj 286 230 list prepend;
#X obj 286 252 t l l;
#X obj 221 284 list;
#X obj 335 134 t b b;
#X msg 335 157 0;
#X obj 82 130 until;
#X obj 82 152 i;
#X obj 82 174 + 1;
#X obj 82 196 t f f;
#X obj 82 107 t f b;
#X msg 128 130 -1;
#X obj 82 218 t f f;
#X obj 82 265 pack;
#X obj 114 240 + 1;
#X obj 221 306 list trim;
#X msg 82 287 connect 3 \$1 0 \$2;
#X msg 367 156 list obj 250 100 adc~;
#X obj 221 116 t f f b;
#X obj 221 137 > 0;
#X obj 221 159 select 1;
#X connect 0 0 2 0;
#X connect 2 0 16 0;
#X connect 2 1 24 0;
#X connect 3 0 4 0;
#X connect 4 0 5 0;
#X connect 5 0 6 0;
#X connect 6 0 7 0;
#X connect 6 1 4 1;
#X connect 7 0 8 0;
#X connect 8 0 9 1;
#X connect 8 1 7 1;
#X connect 9 0 21 0;
#X connect 10 0 11 0;
#X connect 10 1 23 0;
#X connect 11 0 4 1;
#X connect 12 0 13 0;
#X connect 13 0 14 0;
#X connect 14 0 15 0;
#X connect 15 0 18 0;
#X connect 15 1 13 1;
#X connect 16 0 12 0;
#X connect 16 1 17 0;
#X connect 17 0 13 1;
#X connect 18 0 19 0;
#X connect 18 1 20 0;
#X connect 19 0 22 0;
#X connect 20 0 19 1;
#X connect 21 0 1 0;
#X connect 22 0 1 0;
#X connect 23 0 8 0;
#X connect 24 0 25 0;
#X connect 24 1 3 0;
#X connect 24 2 10 0;
#X connect 25 0 26 0;
#X connect 26 0 9 0;
#X restore 216 175 pd inlet~;
#N canvas 628 444 532 402 outlet~ 0;
#X obj 82 42 inlet num;
#X obj 82 334 outlet create;
#X obj 82 64 t f f;
#X obj 286 147 until;
#X obj 286 169 i;
#X obj 286 191 + 1;
#X obj 286 213 t f f;
#X obj 286 240 list prepend;
#X obj 286 262 t l l;
#X obj 221 284 list;
#X obj 336 144 t b b;
#X msg 336 167 0;
#X obj 82 130 until;
#X obj 82 152 i;
#X obj 82 174 + 1;
#X obj 82 196 t f f;
#X obj 82 107 t f b;
#X msg 128 130 -1;
#X obj 82 218 t f f;
#X obj 82 265 pack;
#X obj 114 240 + 1;
#X obj 221 306 list trim;
#X msg 82 287 connect 0 \$2 4 \$1;
#X msg 368 166 list obj 250 200 dac~;
#X obj 221 138 > 0;
#X obj 221 160 select 1;
#X obj 221 116 t f f b;
#X connect 0 0 2 0;
#X connect 2 0 16 0;
#X connect 2 1 26 0;
#X connect 3 0 4 0;
#X connect 4 0 5 0;
#X connect 5 0 6 0;
#X connect 6 0 7 0;
#X connect 6 1 4 1;
#X connect 7 0 8 0;
#X connect 8 0 9 1;
#X connect 8 1 7 1;
#X connect 9 0 21 0;
#X connect 10 0 11 0;
#X connect 10 1 23 0;
#X connect 11 0 4 1;
#X connect 12 0 13 0;
#X connect 13 0 14 0;
#X connect 14 0 15 0;
#X connect 15 0 18 0;
#X connect 15 1 13 1;
#X connect 16 0 12 0;
#X connect 16 1 17 0;
#X connect 17 0 13 1;
#X connect 18 0 19 0;
#X connect 18 1 20 0;
#X connect 19 0 22 0;
#X connect 20 0 19 1;
#X connect 21 0 1 0;
#X connect 22 0 1 0;
#X connect 23 0 8 0;
#X connect 24 0 25 0;
#X connect 25 0 9 0;
#X connect 26 0 24 0;
#X connect 26 1 3 0;
#X connect 26 2 10 0;
#X restore 191 154 pd outlet~;
#N canvas 274 304 508 399 core+messages 0;
#X msg 71 209 0;
#X msg 103 91 1;
#X obj 71 233 makefilename $%d-toPatch;
#X msg 252 209 0;
#X obj 252 233 makefilename $%d-fromPatch;
#X obj 103 115 makefilename ./$%d;
#X obj 71 346 outlet;
#X obj 71 20 inlet;
#X obj 71 189 t b b;
#X obj 103 64 route bang;
#X obj 103 141 list prepend obj 100 150;
#X obj 103 163 list trim;
#X obj 71 43 t b a;
#X obj 71 266 pack s s;
#X msg 71 298 obj 100 100 r \$1 \, obj 100 200 s \$2 \, connect 1 0
0 0 \, connect 0 0 2 0;
#X connect 0 0 2 0;
#X connect 1 0 5 0;
#X connect 2 0 13 0;
#X connect 3 0 4 0;
#X connect 4 0 13 1;
#X connect 5 0 10 0;
#X connect 7 0 12 0;
#X connect 8 0 0 0;
#X connect 8 1 3 0;
#X connect 9 0 1 0;
#X connect 9 1 10 0;
#X connect 10 0 11 0;
#X connect 11 0 6 0;
#X connect 12 0 8 0;
#X connect 12 1 9 0;
#X connect 13 0 14 0;
#X connect 14 0 6 0;
#X restore 231 134 pd core+messages;
#X obj 191 112 list split 2;
#X msg 153 40 0 0 _STREAMER;
#X obj 101 65 t b l b;
#X msg 101 194 loadbang;
#X obj 468 76 inlet reset;
#X obj 468 98 t b;
#X obj 124 88 route bang;
#X connect 0 0 1 0;
#X connect 2 0 14 0;
#X connect 8 0 10 0;
#X connect 8 1 9 0;
#X connect 9 0 1 0;
#X connect 10 0 1 0;
#X connect 11 0 1 0;
#X connect 12 0 8 0;
#X connect 12 1 11 0;
#X connect 13 0 14 0;
#X connect 14 0 15 0;
#X connect 14 1 18 0;
#X connect 14 2 0 0;
#X connect 15 0 1 0;
#X connect 16 0 17 0;
#X connect 17 0 0 0;
#X connect 18 0 0 0;
#X connect 18 1 12 0;
#X restore 325 188 pd rebuild;
#X msg 551 78 4 8 \$1;
#X msg 621 78 4 8;
#X obj 302 23 inlet load;
#X text 386 23 <num.inlet~s> <num.outlet~s> <name>;
#X msg 551 53 symbol test;
#X obj 302 75 t b a b;
#X msg 390 53 0 0 _STREAMER;
#X msg 348 96 0;
#X msg 302 97 1;
#X obj 302 119 t f;
#X msg 302 141 \; pd dsp \$1;
#X obj 77 158 s \$0-toPatch;
#X obj 78 205 r \$0-fromPatch;
#X msg 392 164 reset;
#X connect 2 0 16 0;
#X connect 7 0 10 0;
#X connect 9 0 5 0;
#X connect 10 0 13 0;
#X connect 10 1 4 0;
#X connect 10 2 12 0;
#X connect 11 0 10 0;
#X connect 12 0 14 0;
#X connect 13 0 14 0;
#X connect 14 0 15 0;
#X connect 17 0 1 0;
#X connect 18 0 4 1;
