#N canvas 312 105 450 300 10;
#X obj 112 82 adc~ 1 2 3 4;
#X obj 89 196 pack 0 0 0 0 0;
#X msg 89 218 /meter \$2 \$3 \$4 \$5;
#X obj 89 16 r pd;
#X obj 89 38 route dsp;
#X obj 89 60 metro 100;
#X obj 89 240 s \$1-OSCout;
#X obj 257 39 iemlib1;
#X obj 112 113 pvu~ 100 100 100;
#X obj 152 132 pvu~ 100 100 100;
#X obj 192 153 pvu~ 100 100 100;
#X obj 232 113 pvu~ 100 100 100;
#X connect 0 0 8 0;
#X connect 0 1 9 0;
#X connect 0 2 10 0;
#X connect 0 3 11 0;
#X connect 1 0 2 0;
#X connect 2 0 6 0;
#X connect 3 0 4 0;
#X connect 4 0 5 0;
#X connect 5 0 1 0;
#X connect 8 0 1 1;
#X connect 9 0 1 2;
#X connect 10 0 1 3;
#X connect 11 0 1 4;
