#N canvas 411 369 756 440 10;
#X obj 106 211 adc~ 1 2 3 4;
#X obj 106 242 writesf~ 4 1e+06;
#X obj 277 60 inlet ctl;
#X obj 412 169 r pcmtimestamp;
#X text 283 32 stop;
#X text 284 20 start <basefilename> <TShi> <TSlo>;
#X msg 362 58 start foo 1234 1234;
#X msg 460 215 1234 1298;
#X msg 458 195 1234 1106;
#X text 530 195 two blocks early;
#X text 537 216 one block late;
#X msg 462 235 1234 1234;
#X text 545 237 in time;
#X obj 277 151 t a;
#N canvas 9 49 450 497 control 0;
#X obj 63 61 pack s 0 0;
#N canvas 322 208 527 655 timestamp-diff 0;
#X obj 63 43 inlet TS;
#X obj 220 42 inlet now;
#X obj 63 73 unpack 0 0;
#X obj 220 73 unpack 0 0;
#X obj 63 125 -;
#X obj 63 147 * 65536;
#X obj 130 125 -;
#X obj 63 169 +;
#X obj 63 191 / 64;
#X obj 63 213 int;
#X text 72 233 blocks to delay;
#X obj 63 491 outlet;
#X obj 299 365 outlet startTS;
#X obj 63 375 moses 0;
#X obj 299 324 pack 0 0 0;
#X obj 219 325 pack 0 0 0;
#X obj 299 346 route 0;
#X obj 63 427 t b b;
#X msg 63 449 0;
#X obj 109 425 t f b;
#X obj 63 471 t f;
#X obj 63 95 t f f;
#X obj 130 96 t f f;
#X obj 220 95 t f f;
#X obj 287 97 t f f;
#X obj 98 169 r _MINT_blocksize;
#X obj 63 265 * 64;
#X text 78 285 samples to delay;
#X obj 98 191 t f f;
#X obj 301 505 *;
#X floatatom 301 526 0 0 0 0 - - -;
#X msg 301 482 48000 10;
#X obj 63 324 moses 480000;
#X connect 0 0 2 0;
#X connect 1 0 3 0;
#X connect 2 0 21 0;
#X connect 2 1 22 0;
#X connect 3 0 23 0;
#X connect 3 1 24 0;
#X connect 4 0 5 0;
#X connect 5 0 7 0;
#X connect 6 0 7 1;
#X connect 7 0 8 0;
#X connect 8 0 9 0;
#X connect 9 0 26 0;
#X connect 13 0 17 0;
#X connect 13 1 19 0;
#X connect 14 0 16 0;
#X connect 15 0 16 0;
#X connect 16 0 12 0;
#X connect 17 0 18 0;
#X connect 17 1 15 0;
#X connect 18 0 20 0;
#X connect 19 0 20 0;
#X connect 19 1 14 0;
#X connect 20 0 11 0;
#X connect 21 0 4 0;
#X connect 21 1 14 1;
#X connect 22 0 6 0;
#X connect 22 1 14 2;
#X connect 23 0 4 1;
#X connect 23 1 15 1;
#X connect 24 0 6 1;
#X connect 24 1 15 2;
#X connect 25 0 28 0;
#X connect 26 0 32 0;
#X connect 28 0 8 1;
#X connect 28 1 26 1;
#X connect 29 0 30 0;
#X connect 31 0 29 0;
#X connect 32 0 13 0;
#X connect 32 1 17 0;
#X restore 63 172 pd timestamp-diff;
#X obj 63 147 pack;
#X obj 179 217 unpack 0 0;
#X obj 179 239 makefilename %04d;
#X obj 306 239 makefilename %04d;
#X msg 63 83 \$2 \$3 \$1;
#X msg 179 398 stop \, open \$1;
#N canvas 4 49 450 300 blocks2ms 0;
#X obj 66 75 t f b;
#X obj 98 97 samplerate~;
#X obj 66 153 /;
#X obj 98 119 / 1000;
#X obj 66 53 inlet samples;
#X obj 66 195 outlet ms;
#X connect 0 0 2 0;
#X connect 0 1 1 0;
#X connect 1 0 3 0;
#X connect 2 0 5 0;
#X connect 3 0 2 1;
#X connect 4 0 0 0;
#X restore 63 194 pd blocks2ms;
#X obj 63 123 unpack 0 0 s;
#X obj 63 216 delay;
#X msg 63 240 start;
#X obj 157 60 t b;
#X msg 157 82 stop;
#X obj 63 15 inlet;
#X obj 63 456 outlet ->writesf;
#X obj 263 24 inlet now;
#X obj 63 39 route /start /stop;
#X obj 63 434 t a a;
#X obj 193 455 print RECctl;
#X obj 179 261 t s b;
#X obj 179 354 pack s s s s;
#X msg 179 376 symbol \$4/\$3_\$1\$2.wav;
#X obj 315 283 list prepend \$1;
#X obj 315 305 route symbol;
#X obj 315 327 symbol;
#X msg 396 356 .;
#X obj 396 330 t b;
#X connect 0 0 6 0;
#X connect 1 0 8 0;
#X connect 1 1 3 0;
#X connect 2 0 1 0;
#X connect 3 0 4 0;
#X connect 3 1 5 0;
#X connect 4 0 20 0;
#X connect 5 0 21 1;
#X connect 6 0 9 0;
#X connect 7 0 18 0;
#X connect 8 0 10 0;
#X connect 8 0 19 0;
#X connect 9 0 2 0;
#X connect 9 1 2 1;
#X connect 9 2 21 2;
#X connect 10 0 11 0;
#X connect 11 0 18 0;
#X connect 12 0 13 0;
#X connect 13 0 18 0;
#X connect 14 0 17 0;
#X connect 16 0 1 1;
#X connect 17 0 0 0;
#X connect 17 1 12 0;
#X connect 18 0 15 0;
#X connect 18 1 19 0;
#X connect 20 0 21 0;
#X connect 20 1 23 0;
#X connect 21 0 22 0;
#X connect 22 0 7 0;
#X connect 23 0 24 0;
#X connect 24 0 25 0;
#X connect 24 1 27 0;
#X connect 25 0 21 3;
#X connect 26 0 25 0;
#X connect 27 0 26 0;
#X restore 277 123 pd control;
#X obj 412 191 t a;
#X obj 251 279 outlet data;
#X connect 0 0 1 0;
#X connect 0 1 1 1;
#X connect 0 2 1 2;
#X connect 0 3 1 3;
#X connect 2 0 14 0;
#X connect 3 0 15 0;
#X connect 6 0 14 0;
#X connect 7 0 15 0;
#X connect 8 0 15 0;
#X connect 11 0 15 0;
#X connect 13 0 1 0;
#X connect 14 0 13 0;
#X connect 15 0 14 1;
