#N canvas 302 237 675 579 10;
#X obj 73 252 udpsend;
#X obj 73 231 spigot;
#X obj 73 274 t f f;
#X obj 30 28 inlet control;
#X text 352 139 start <receiver> <port>;
#X text 353 155 stop;
#X obj 30 72 pack s f;
#X msg 30 94 disconnect \, connect \$1 \$2;
#X obj 95 71 t b;
#X msg 95 120 disconnect;
#X obj 105 298 t f f;
#N canvas 277 295 450 300 \$0-payloader 0;
#X restore 474 299 pd \$0-payloader;
#X obj 73 211 r \$0-payload;
#N canvas 695 323 581 513 creator 0;
#X obj 38 35 inlet;
#X obj 38 273 s pd-\$0-payloader;
#X msg 244 198 clear;
#X msg 101 28 bang;
#X obj 38 139 t a b;
#X obj 38 183 list prepend \$0;
#X obj 38 57 route bang;
#X obj 105 79 t b a;
#X obj 322 43 inlet reset;
#X obj 322 65 t b;
#X obj 38 117 list prepend rtp L16 4 128;
#X obj 38 161 pack s s 4 128;
#X msg 38 223 obj 100 100 _MINT/STREAMERguts \$1 \$2 \$3 \$4 \$5 \,
loadbang;
#X connect 0 0 6 0;
#X connect 2 0 1 0;
#X connect 3 0 6 0;
#X connect 4 0 11 0;
#X connect 4 1 2 0;
#X connect 5 0 12 0;
#X connect 6 0 10 0;
#X connect 6 1 7 0;
#X connect 7 0 10 0;
#X connect 7 1 10 1;
#X connect 8 0 9 0;
#X connect 9 0 2 0;
#X connect 10 0 4 0;
#X connect 11 0 5 0;
#X connect 12 0 1 0;
#X restore 350 113 pd creator;
#X obj 470 194 adc~ 1 2 3 4;
#X obj 470 216 s~ \$0-1;
#X obj 496 236 s~ \$0-2;
#X obj 523 256 s~ \$0-3;
#X obj 550 276 s~ \$0-4;
#X obj 350 52 loadbang;
#X msg 105 370 auto \$1;
#X obj 105 392 s \$0-control;
#X text 248 336 <- restart DSP;
#X text 249 356 since dynamic patching audio;
#X text 251 369 breaks DSP-chain;
#X obj 55 520 outlet data;
#X obj 398 218 env~;
#X floatatom 398 240 5 0 0 0 - - -;
#X obj 55 426 r \$0-payload;
#X obj 55 448 list length;
#X obj 73 296 tgl 15 0 empty empty empty 17 7 0 10 -262144 -1 -1 0
1;
#X obj 30 116 t a a;
#X obj 70 153 print \$0-ctl;
#X msg 428 113 reset;
#X obj 30 50 route /start /stop;
#X obj 55 470 change;
#X msg 55 492 /length \$1;
#X obj 254 223 r _pcmtimestamp;
#X msg 254 245 timestamp \$1 \$2;
#X obj 254 267 s \$0-control;
#X msg 516 78 rtp L16 4;
#X msg 592 92 rtp L16 4 128;
#N canvas 333 303 450 394 args 0;
#X obj 157 232 symbol rtp;
#X obj 234 232 symbol L16;
#X obj 125 40 inlet bang;
#X obj 157 209 t b b;
#X obj 124 256 pack 4 s s;
#X obj 125 62 t b b;
#X obj 180 137 list prepend \$1;
#X obj 180 159 route symbol;
#X obj 300 159 route symbol;
#X obj 300 137 list prepend \$2;
#X obj 125 86 t b b b;
#X obj 56 123 list prepend \$3;
#X obj 56 145 route float;
#X obj 56 167 select 0;
#X obj 56 189 t b;
#X msg 124 278 list \$2 \$3 \$1;
#X obj 124 300 outlet;
#X connect 0 0 4 1;
#X connect 1 0 4 2;
#X connect 2 0 5 0;
#X connect 3 0 0 0;
#X connect 3 1 1 0;
#X connect 4 0 15 0;
#X connect 5 0 10 0;
#X connect 5 1 3 0;
#X connect 6 0 7 0;
#X connect 7 0 0 0;
#X connect 8 0 1 0;
#X connect 9 0 8 0;
#X connect 10 0 11 0;
#X connect 10 1 6 0;
#X connect 10 2 9 0;
#X connect 11 0 12 0;
#X connect 12 0 13 0;
#X connect 12 1 14 0;
#X connect 13 0 14 0;
#X connect 13 1 4 0;
#X connect 14 0 4 0;
#X connect 15 0 16 0;
#X restore 350 74 pd args;
#X msg 430 51 bang;
#X connect 0 0 2 0;
#X connect 1 0 0 0;
#X connect 2 0 30 0;
#X connect 2 1 10 0;
#X connect 3 0 34 0;
#X connect 6 0 7 0;
#X connect 7 0 31 0;
#X connect 8 0 9 0;
#X connect 9 0 31 0;
#X connect 10 0 20 0;
#X connect 10 1 1 1;
#X connect 12 0 1 0;
#X connect 14 0 15 0;
#X connect 14 0 26 0;
#X connect 14 1 16 0;
#X connect 14 2 17 0;
#X connect 14 3 18 0;
#X connect 19 0 42 0;
#X connect 20 0 21 0;
#X connect 26 0 27 0;
#X connect 28 0 29 0;
#X connect 29 0 35 0;
#X connect 31 0 0 0;
#X connect 31 1 32 0;
#X connect 33 0 13 1;
#X connect 34 0 6 0;
#X connect 34 1 8 0;
#X connect 35 0 36 0;
#X connect 36 0 25 0;
#X connect 37 0 38 0;
#X connect 38 0 39 0;
#X connect 40 0 13 0;
#X connect 41 0 13 0;
#X connect 42 0 13 0;
#X connect 43 0 42 0;
