#N canvas 302 237 675 579 10;
#X obj 73 252 udpsend;
#X obj 73 231 spigot;
#X obj 73 274 t f f;
#X obj 30 28 inlet control;
#X text 352 109 start <receiver> <port>;
#X text 353 125 stop;
#X obj 30 72 pack s f;
#X msg 30 94 disconnect \, connect \$1 \$2;
#X obj 95 71 t b;
#X msg 95 120 disconnect;
#X obj 105 298 t f f;
#N canvas 272 315 450 300 \$0-payloader 0;
#X restore 474 299 pd \$0-payloader;
#X obj 73 211 r \$0-payload;
#N canvas 500 331 581 513 creator 0;
#X obj 38 35 inlet;
#X obj 38 273 s pd-\$0-payloader;
#X msg 244 198 clear;
#X msg 101 28 bang;
#X obj 38 139 t a b;
#X obj 38 161 pack s 128;
#X obj 38 183 list prepend \$0;
#X obj 38 117 list prepend L16 128;
#X msg 38 223 obj 100 100 _MINT/STREAMERguts \$1 \$2 \$3 \, loadbang
;
#X obj 38 57 route bang;
#X obj 105 79 t b a;
#X obj 322 43 inlet reset;
#X obj 322 65 t b;
#X connect 0 0 9 0;
#X connect 2 0 1 0;
#X connect 3 0 9 0;
#X connect 4 0 5 0;
#X connect 4 1 2 0;
#X connect 5 0 6 0;
#X connect 6 0 8 0;
#X connect 7 0 4 0;
#X connect 8 0 1 0;
#X connect 9 0 7 0;
#X connect 9 1 10 0;
#X connect 10 0 7 0;
#X connect 10 1 7 1;
#X connect 11 0 12 0;
#X connect 12 0 2 0;
#X restore 350 83 pd creator;
#X obj 470 194 adc~ 1 2 3 4;
#X obj 470 216 s~ \$0-1;
#X obj 496 236 s~ \$0-2;
#X obj 523 256 s~ \$0-3;
#X obj 550 276 s~ \$0-4;
#X obj 350 25 loadbang;
#X msg 350 51 L16;
#X msg 105 370 auto \$1;
#X obj 105 392 s \$0-control;
#X msg 416 61 L16 64;
#X msg 469 62 L16 128;
#X text 248 336 <- restart DSP;
#X text 249 356 since dynamic patching audio;
#X text 251 369 breaks DSP-chain;
#X obj 55 520 outlet data;
#X obj 398 218 env~;
#X floatatom 398 240 5 0 0 0 - - -;
#X obj 55 426 r \$0-payload;
#X obj 55 448 list length;
#X obj 73 296 tgl 15 0 empty empty empty 17 7 0 10 -262144 -1 -1 0
1;
#X obj 30 116 t a a;
#X obj 70 153 print \$0-ctl;
#X msg 428 83 reset;
#X obj 30 50 route /start /stop;
#X obj 55 470 change;
#X msg 55 492 /length \$1;
#X obj 254 223 r _pcmtimestamp;
#X msg 254 245 timestamp \$1 \$2;
#X obj 254 267 s \$0-control;
#X connect 0 0 2 0;
#X connect 1 0 0 0;
#X connect 2 0 33 0;
#X connect 2 1 10 0;
#X connect 3 0 37 0;
#X connect 6 0 7 0;
#X connect 7 0 34 0;
#X connect 8 0 9 0;
#X connect 9 0 34 0;
#X connect 10 0 21 0;
#X connect 10 1 1 1;
#X connect 12 0 1 0;
#X connect 14 0 15 0;
#X connect 14 0 29 0;
#X connect 14 1 16 0;
#X connect 14 2 17 0;
#X connect 14 3 18 0;
#X connect 19 0 20 0;
#X connect 20 0 13 0;
#X connect 21 0 22 0;
#X connect 23 0 13 0;
#X connect 24 0 13 0;
#X connect 29 0 30 0;
#X connect 31 0 32 0;
#X connect 32 0 38 0;
#X connect 34 0 0 0;
#X connect 34 1 35 0;
#X connect 36 0 13 1;
#X connect 37 0 6 0;
#X connect 37 1 8 0;
#X connect 38 0 39 0;
#X connect 39 0 28 0;
#X connect 40 0 41 0;
#X connect 41 0 42 0;
