#N canvas 554 467 450 300 10;
#N canvas 11 49 450 300 reblock 0;
#X obj 50 147 outlet;
#X obj 50 45 inlet~;
#X obj 73 65 inlet~;
#X obj 100 85 inlet~;
#X obj 123 105 inlet~;
#X obj 215 60 inlet control;
#X obj 50 125 \$2\$3pay~ \$4;
#X obj 267 197 block~ \$5;
#X connect 1 0 6 0;
#X connect 2 0 6 1;
#X connect 3 0 6 2;
#X connect 4 0 6 3;
#X connect 5 0 6 0;
#X connect 6 0 0 0;
#X restore 52 167 pd reblock;
#X text 35 27 usage: [_STREAMERguts <enc> \$0 <block>];
#X obj 53 83 r~ \$1-1;
#X obj 209 145 r \$1-control;
#X obj 52 197 s \$1-payload;
#X obj 67 103 r~ \$1-2;
#X obj 84 123 r~ \$1-3;
#X obj 102 143 r~ \$1-4;
#X connect 0 0 4 0;
#X connect 2 0 0 0;
#X connect 3 0 0 4;
#X connect 5 0 0 1;
#X connect 6 0 0 2;
#X connect 7 0 0 3;
